<svg xmlns="http://www.w3.org/2000/svg" width="11.699" height="6.63" viewBox="0 0 1280.000000 725.000000"
 fill="#19647e">
<g transform="translate(0.000000,725.000000) scale(0.100000,-0.100000)">
<path d="M11835 7203 c-105 -15 -248 -70 -342 -133 -26 -18 -1185 -1169 -2576
-2559 l-2527 -2526 -2518 2516 c-1384 1384 -2538 2531 -2565 2548 -67 46 -181
98 -257 118 -101 27 -312 25 -413 -5 -267 -77 -465 -266 -553 -527 -39 -116
-45 -312 -15 -440 26 -107 73 -206 140 -295 28 -36 1318 -1332 2868 -2881
2616 -2615 2824 -2820 2898 -2863 289 -167 653 -144 913 58 31 24 1327 1315
2879 2868 2078 2079 2832 2840 2861 2886 128 200 163 440 97 666 l-26 89 51
52 50 51 0 152 0 152 -241 0 c-235 0 -244 1 -313 26 -129 47 -284 64 -411 47z"/>
</g>
</svg>
