<svg xmlns="http://www.w3.org/2000/svg" width="11.699" height="6.63" viewBox="0 0 11.699 6.63">
    <g id="down-arrow_2_" transform="rotate(180 5.58 61.678)">
        <path id="Tracé_2145" d="M10.238 117.342l-4.913 4.913-4.913-4.913a.231.231 0 0 0-.326.326l5.076 5.076a.231.231 0 0 0 .326 0l5.076-5.076a.231.231 0 1 0-.321-.332l-.006.006z" class="cls-1" transform="translate(-.021)"/>
        <path id="Tracé_2146" d="M5.3 122.814a.231.231 0 0 1-.163-.067L.064 117.67a.231.231 0 0 1 .326-.326l4.91 4.913 4.913-4.913a.231.231 0 1 1 .332.321l-.006.006-5.076 5.076a.231.231 0 0 1-.163.067z" class="cls-1" transform="translate(0 -.001)"/>
    </g>
</svg>
