<svg xmlns="http://www.w3.org/2000/svg" width="28.252" height="18.308" viewBox="0 0 28.252 18.308">
    <path fill="#403f4c" fill-rule="evenodd" d="M19.208.29a1.182 1.182 0 0 1 1.608.053l7.906 8.037.724.736-.724.736-7.905 8.038a1.182 1.182 0 0 1-1.608.053 1.04 1.04 0 0 1-.056-1.525l5.771-5.867a1.547 1.547 0 0 1-.959-.433 1.189 1.189 0 0 1-.428.079H1.138a1.081 1.081 0 1 1 0-2.158h22.4a1.188 1.188 0 0 1 .428.079 1.548 1.548 0 0 1 .96-.434l-5.774-5.869A1.04 1.04 0 0 1 19.208.29z" transform="matrix(.961 0 0 1 -.1 .061)"/>
</svg>
