<svg xmlns="http://www.w3.org/2000/svg" fill="#19647e" width="26.133" height="26.134" viewBox="0 0 26.133 26.134">
    <g>
        <g>
            <path  d="M26.092 15.935L21.8 6.572l1.041-.518-.389-.78-1.014.505-.137-.3a.436.436 0 0 0-.792 0l-.122.267a5.6 5.6 0 0 0-2.356-.521h-3.656v-.87h.871v-.871H14.5l.313-1.253a1.8 1.8 0 1 0-3.484 0l.313 1.253h-.749v.871h.871v.871H8.105a5.6 5.6 0 0 0-2.359.523l-.122-.267a.436.436 0 0 0-.792 0l-.137.3-1.014-.509-.389.781 1.041.52-4.291 9.359a.425.425 0 0 0-.04.182 3.052 3.052 0 0 0 3.049 3.049h4.355a3.052 3.052 0 0 0 3.049-3.049.426.426 0 0 0-.044-.18l-4.3-9.4a4.738 4.738 0 0 1 2-.44h3.656v15.938l-1.492 1.487H8.713a2.18 2.18 0 0 0-2.178 2.18.436.436 0 0 0 .436.436h12.2a.436.436 0 0 0 .429-.436 2.18 2.18 0 0 0-2.178-2.178h-1.56l-1.487-1.487V6.1h3.659a4.738 4.738 0 0 1 2 .44l-4.309 9.4a.425.425 0 0 0-.04.182 3.052 3.052 0 0 0 3.049 3.049h4.356a3.052 3.052 0 0 0 3.049-3.049.424.424 0 0 0-.047-.187zM7.406 18.293H3.051a2.181 2.181 0 0 1-2.134-1.742h8.624a2.181 2.181 0 0 1-2.135 1.742zm1.935-2.613H1.116l4-8.729a.43.43 0 0 0 .223 0zm3-14.453a.953.953 0 0 1 1.457 0 .919.919 0 0 1 .169.794L13.6 3.484h-1.062l-.367-1.464a.92.92 0 0 1 .169-.794zm.293 4v-.872h.866v.871zm.866.873v15.68h-.871V6.1zm3.92 18.293a1.309 1.309 0 0 1 1.232.871H7.481a1.309 1.309 0 0 1 1.232-.871zm-2.79-.873h-3.123l.871-.871h1.382zM20.8 6.952a.3.3 0 0 0 .22-.009l4 8.737H16.8zm2.29 11.341h-4.359a2.181 2.181 0 0 1-2.131-1.742h8.624a2.181 2.181 0 0 1-2.138 1.742z" transform="translate(-.002 .001)"/>
        </g>
    </g>
</svg>
