<svg xmlns="http://www.w3.org/2000/svg" width="19.971" height="19.971" viewBox="0 0 19.971 19.971">
    <defs>
        <style>
            .cls-1{fill:#19647e}
        </style>
    </defs>
    <g id="bank_2_" transform="translate(-1 -1)">
        <path id="Tracé_2289" d="M20.649 8.086a.322.322 0 0 0 .322-.322V2.611a.322.322 0 0 0-.322-.322h-.322v-.967A.322.322 0 0 0 20 1H1.966a.322.322 0 0 0-.322.322v.966h-.322A.322.322 0 0 0 1 2.611v5.153a.322.322 0 0 0 .322.322h.322v10.952h-.322A.322.322 0 0 0 1 19.36v1.288a.322.322 0 0 0 .322.322h19.327a.322.322 0 0 0 .322-.322V19.36a.322.322 0 0 0-.322-.322h-.322V8.086zM2.288 1.644h17.394v.644H2.288zm-.644 1.289h18.682v4.51H1.644zm18.038 8.375h-3.865V9.375h3.865zm-4.51 0h-3.865V9.375h3.865zm-4.51 0H6.8V9.375h3.865zm-4.51 0H2.288V9.375h3.866zm14.173 9.019H1.644v-.644h18.682zm-8.375-1.288h-.644v-4.833a.322.322 0 0 0-.322-.322H4.543a.322.322 0 0 0-.322.322v4.832h-.644v-5.8h8.375zm-7.086 0v-4.51h2.578v4.51zm3.221-4.51h2.577v4.51H8.086zm10.307 4.51h-3.863v-5.8h3.865zm.644 0v-6.12a.322.322 0 0 0-.322-.322h-4.51a.322.322 0 0 0-.322.322v6.12H12.6v-6.12a.322.322 0 0 0-.322-.322H3.255a.322.322 0 0 0-.322.322v6.12h-.645v-7.087h17.394v7.086zm.644-10.307H2.288v-.646h17.394z" class="cls-1"/>
        <path id="Tracé_2290" d="M15.611 9h-1.289a.322.322 0 0 0-.322.322V11.9a.322.322 0 0 0 .322.322h1.288a.966.966 0 0 0 .72-1.611A.966.966 0 0 0 15.611 9zm0 2.577h-.966v-.644h.966a.322.322 0 0 1 0 .644zm0-1.288h-.966v-.645h.966a.322.322 0 0 1 0 .644z" class="cls-1" transform="translate(-6.878 -5.423)"/>
        <path id="Tracé_2291" d="M25.288 9A1.29 1.29 0 0 0 24 10.288v1.933h.644v-.966h1.288v.966h.644v-1.933A1.29 1.29 0 0 0 25.288 9zm-.644 1.611v-.322a.644.644 0 1 1 1.288 0v.322z" class="cls-1" transform="translate(-13.657 -5.423)"/>
        <path id="Tracé_2292" d="M35.933 10.932l-1.353-1.8a.322.322 0 0 0-.58.193v2.9h.644v-1.937L36 12.092a.322.322 0 0 0 .258.129.328.328 0 0 0 .1-.016.322.322 0 0 0 .22-.306V9h-.644z" class="cls-1" transform="translate(-20.436 -5.423)"/>
        <path id="Tracé_2293" d="M45.933 9h-.644a1.232 1.232 0 0 1-.644 1.086V9H44v3.221h.644v-1.085a1.232 1.232 0 0 1 .644 1.086h.644a1.871 1.871 0 0 0-.913-1.611A1.871 1.871 0 0 0 45.933 9z" class="cls-1" transform="translate(-27.214 -5.423)"/>
        <path id="Tracé_2294" d="M45.322 43.577h1.933a.322.322 0 0 0 .322-.322v-1.933a.322.322 0 0 0-.322-.322h-1.933a.322.322 0 0 0-.322.322v1.933a.322.322 0 0 0 .322.322zm.322-1.933h1.288v1.288h-1.288z" class="cls-1" transform="translate(-29.827 -27.116)"/>
        <g id="Groupe_2379" transform="translate(2.329 4.025)">
            <g id="Groupe_2381">
                <path id="Tracé_2296" d="M139.632 136.424h-.949v-.949a.237.237 0 1 0-.475 0v.949h-.949a.237.237 0 1 0 0 .475h.949v.949a.237.237 0 1 0 .475 0v-.948h.949a.237.237 0 1 0 0-.475z" class="cls-1" transform="translate(-137.022 -135.238)"/>
            </g>
        </g>
    </g>
</svg>
