<svg xmlns="http://www.w3.org/2000/svg" width="750" height="1333" viewBox="0 0 750 1333">
    <defs>
        <clipPath id="clip-path">
            <path id="Rectangle_303" fill="#fff" d="M0 0H750V1333H0z"/>
        </clipPath>
        <style>
            .cls-3{fill:#4d8af0}.cls-3,.cls-4,.cls-5,.cls-6{opacity:.5}.cls-4{fill:#f55f44}.cls-5,.cls-7{fill:#47e6b1}
        </style>
    </defs>
    <g id="Groupe_de_masques_9" clip-path="url(#clip-path)">
        <g id="Groupe_239" transform="translate(19.996 118.342)">
            <path id="Tracé_146" d="M333.452 112.88a3.035 3.035 0 0 1-1.691-3.668 1.455 1.455 0 0 0 .066-.337 1.522 1.522 0 0 0-2.734-1.009 1.456 1.456 0 0 0-.168.3 3.035 3.035 0 0 1-3.668 1.691 1.459 1.459 0 0 0-.337-.066 1.522 1.522 0 0 0-1.009 2.734 1.461 1.461 0 0 0 .3.168 3.035 3.035 0 0 1 1.691 3.668 1.455 1.455 0 0 0-.066.337 1.522 1.522 0 0 0 2.734 1.009 1.459 1.459 0 0 0 .168-.3 3.035 3.035 0 0 1 3.668-1.691 1.46 1.46 0 0 0 .337.066 1.522 1.522 0 0 0 1.009-2.734 1.458 1.458 0 0 0-.3-.168z" class="cls-3" transform="translate(-196.928 -73.27)"/>
            <path id="Tracé_147" d="M187.452 437.88a3.035 3.035 0 0 1-1.691-3.668 1.456 1.456 0 0 0 .066-.337 1.522 1.522 0 0 0-2.734-1.009 1.465 1.465 0 0 0-.168.3 3.035 3.035 0 0 1-3.668 1.691 1.461 1.461 0 0 0-.337-.066 1.522 1.522 0 0 0-1.009 2.734 1.459 1.459 0 0 0 .3.168 3.035 3.035 0 0 1 1.691 3.668 1.457 1.457 0 0 0-.066.337 1.522 1.522 0 0 0 2.734 1.009 1.464 1.464 0 0 0 .168-.3 3.035 3.035 0 0 1 3.668-1.691 1.459 1.459 0 0 0 .337.066 1.522 1.522 0 0 0 1.009-2.734 1.466 1.466 0 0 0-.3-.168z" class="cls-3" transform="translate(-171.519 -129.833)"/>
            <circle id="Ellipse_36" cx="4.956" cy="4.956" r="4.956" class="cls-4" transform="translate(613.193 204.838)"/>
            <circle id="Ellipse_37" cx="4.956" cy="4.956" r="4.956" class="cls-4" transform="translate(95.316 559.175)"/>
            <circle id="Ellipse_38" cx="4.956" cy="4.956" r="4.956" class="cls-4" transform="translate(697.441 395.635)"/>
            <path id="Tracé_148" d="M872.452 141.88a3.035 3.035 0 0 1-1.691-3.668 1.452 1.452 0 0 0 .066-.337 1.522 1.522 0 0 0-2.734-1.009 1.455 1.455 0 0 0-.168.3 3.035 3.035 0 0 1-3.668 1.691 1.454 1.454 0 0 0-.337-.066 1.522 1.522 0 0 0-1.009 2.734 1.462 1.462 0 0 0 .3.168 3.035 3.035 0 0 1 1.691 3.668 1.458 1.458 0 0 0-.066.337 1.522 1.522 0 0 0 2.734 1.009 1.444 1.444 0 0 0 .168-.3 3.035 3.035 0 0 1 3.668-1.691 1.457 1.457 0 0 0 .336.066 1.522 1.522 0 0 0 1.009-2.734 1.462 1.462 0 0 0-.299-.168z" class="cls-3" transform="translate(-290.736 -78.317)"/>
            <path id="Tracé_149" d="M972.452 769.88a3.035 3.035 0 0 1-1.691-3.668 1.462 1.462 0 0 0 .066-.337 1.522 1.522 0 0 0-2.734-1.009 1.474 1.474 0 0 0-.168.3 3.035 3.035 0 0 1-3.668 1.691 1.465 1.465 0 0 0-.337-.066 1.522 1.522 0 0 0-1.008 2.734 1.463 1.463 0 0 0 .3.169 3.035 3.035 0 0 1 1.691 3.668 1.486 1.486 0 0 0-.066.337 1.522 1.522 0 0 0 2.734 1.009 1.452 1.452 0 0 0 .168-.3 3.035 3.035 0 0 1 3.668-1.691 1.465 1.465 0 0 0 .337.066 1.522 1.522 0 0 0 1.008-2.734 1.454 1.454 0 0 0-.3-.168z" class="cls-3" transform="translate(-308.14 -187.614)"/>
            <path id="Tracé_150" d="M180.452 247.88a3.035 3.035 0 0 1-1.691-3.668 1.463 1.463 0 0 0 .066-.337 1.522 1.522 0 0 0-2.734-1.009 1.46 1.46 0 0 0-.168.3 3.035 3.035 0 0 1-3.668 1.691 1.46 1.46 0 0 0-.337-.066 1.522 1.522 0 0 0-1.009 2.734 1.458 1.458 0 0 0 .3.168 3.035 3.035 0 0 1 1.691 3.668 1.459 1.459 0 0 0-.066.337 1.522 1.522 0 0 0 2.734 1.009 1.459 1.459 0 0 0 .168-.3 3.035 3.035 0 0 1 3.668-1.691 1.458 1.458 0 0 0 .337.066 1.522 1.522 0 0 0 1.009-2.734 1.46 1.46 0 0 0-.3-.168z" class="cls-3" transform="translate(-170.3 -96.766)"/>
            <circle id="Ellipse_39" cx="4.956" cy="4.956" r="4.956" class="cls-5" transform="translate(60.626 229.617)"/>
            <circle id="Ellipse_40" cx="4.956" cy="4.956" r="4.956" class="cls-5" transform="translate(699.919 269.263)"/>
            <g id="Groupe_9" class="cls-6" transform="translate(476.084)">
                <path id="Rectangle_58" d="M0 0H2.478V14.041H0z" class="cls-7" transform="translate(5.782)"/>
                <path id="Rectangle_59" d="M0 0H2.478V14.041H0z" class="cls-7" transform="rotate(90 4.13 9.912)"/>
            </g>
            <g id="Groupe_10" class="cls-6" transform="translate(485.17 550.09)">
                <path id="Rectangle_60" d="M0 0H2.478V14.041H0z" class="cls-7" transform="translate(5.781)"/>
                <path id="Rectangle_61" d="M0 0H2.478V14.041H0z" class="cls-7" transform="rotate(90 4.13 9.912)"/>
            </g>
            <g id="Groupe_11" class="cls-6" transform="translate(16.024 579.824)">
                <path id="Rectangle_62" d="M0 0H2.478V14.041H0z" class="cls-7" transform="translate(5.782)"/>
                <path id="Rectangle_63" d="M0 0H2.478V14.041H0z" class="cls-7" transform="rotate(90 4.13 9.912)"/>
            </g>
            <g id="Groupe_12" class="cls-6" transform="translate(580.155 327.08)">
                <path id="Rectangle_64" d="M0 0H2.478V14.041H0z" class="cls-7" transform="translate(5.781)"/>
                <path id="Rectangle_65" d="M0 0H2.478V14.041H0z" class="cls-7" transform="rotate(90 4.13 9.912)"/>
            </g>
            <path id="Tracé_151" d="M795.139 121.71l5.322 4.878L808 115.5l2.661 2.218-10.2 13.305-7.539-8.426z" class="cls-5" transform="translate(-137.999 -20.102)"/>
        </g>
    </g>
</svg>
