<svg xmlns="http://www.w3.org/2000/svg" width="22.84" height="23.226" viewBox="0 0 22.84 23.226">
    <g id="calculator">
        <g id="Groupe_342">
            <path id="Tracé_2152" d="M342.385 313.63c-.109-.036-.22-.074-.331-.114v-1.623a1.177 1.177 0 0 1 .492.215.34.34 0 0 0 .444-.516 1.894 1.894 0 0 0-.936-.388v-.134a.34.34 0 1 0-.68 0v.159c-.057.012-.116.025-.176.042a1.411 1.411 0 0 0-1.007 1.114 1.193 1.193 0 0 0 .43 1.192 3.56 3.56 0 0 0 .753.4v2.052a1.577 1.577 0 0 1-.837-.288.34.34 0 1 0-.357.579 2.243 2.243 0 0 0 1.194.389v.175a.34.34 0 1 0 .68 0v-.2a1.725 1.725 0 0 0 1.4-1.4 1.469 1.469 0 0 0-1.069-1.654zm-1.359-.6a.528.528 0 0 1-.165-.523.737.737 0 0 1 .513-.578v1.307a2.319 2.319 0 0 1-.349-.205zm1.759 2.15a1.023 1.023 0 0 1-.73.811v-1.755l.116.039a.8.8 0 0 1 .613.906z" class="cls-1" transform="translate(-324.786 -296.635)"/>
            <path id="Tracé_2153" d="M59.621 43.1a.615.615 0 0 0-.614-.614H45.452a.615.615 0 0 0-.614.614v.917a.34.34 0 1 0 .68 0v-.851h13.423v3.291H45.517v-.85a.34.34 0 0 0-.68 0v.915a.615.615 0 0 0 .614.614h13.556a.615.615 0 0 0 .614-.614z" class="cls-1" transform="translate(-42.996 -40.56)"/>
            <path id="Tracé_2154" d="M50.285 181.548a.56.56 0 0 0-.56-.56h-1.681a.56.56 0 0 0-.56.56v1.682a.56.56 0 0 0 .56.56h1.682a.56.56 0 0 0 .56-.56zm-.68 1.561h-1.44v-1.44H49.6z" class="cls-1" transform="translate(-45.523 -172.778)"/>
            <path id="Tracé_2155" d="M136.576 181.548a.56.56 0 0 0-.56-.56h-1.682a.56.56 0 0 0-.56.56v1.682a.56.56 0 0 0 .56.56h1.682a.56.56 0 0 0 .56-.56zm-.68 1.561h-1.44v-1.44h1.44z" class="cls-1" transform="translate(-127.899 -172.778)"/>
            <path id="Tracé_2156" d="M220.625 180.988a.56.56 0 0 0-.56.56v1.682a.56.56 0 0 0 .56.56h1.681a.56.56 0 0 0 .56-.56v-1.682a.56.56 0 0 0-.56-.56zm1.561 2.12h-1.44v-1.44h1.44z" class="cls-1" transform="translate(-210.275 -172.778)"/>
            <path id="Tracé_2157" d="M308.6 180.988h-1.682a.56.56 0 0 0-.56.56v1.682a.56.56 0 0 0 .56.56h1.682a.56.56 0 0 0 .56-.56v-1.682a.56.56 0 0 0-.56-.56zm-.121 2.12h-1.44v-1.44h1.44z" class="cls-1" transform="translate(-292.653 -172.778)"/>
            <path id="Tracé_2158" d="M50.285 272.836a.56.56 0 0 0-.56-.56h-1.681a.56.56 0 0 0-.56.56v1.682a.56.56 0 0 0 .56.56h1.682a.56.56 0 0 0 .56-.56zM49.6 274.4h-1.44v-1.44h1.44z" class="cls-1" transform="translate(-45.523 -259.925)"/>
            <path id="Tracé_2159" d="M136.576 272.836a.56.56 0 0 0-.56-.56h-1.682a.56.56 0 0 0-.56.56v1.682a.56.56 0 0 0 .56.56h1.682a.56.56 0 0 0 .56-.56zm-.68 1.561h-1.44v-1.44h1.44z" class="cls-1" transform="translate(-127.899 -259.925)"/>
            <path id="Tracé_2160" d="M136.016 363.563h-1.682a.56.56 0 0 0-.56.56v1.677a.56.56 0 0 0 .56.56h1.682a.56.56 0 0 0 .56-.56v-1.681a.56.56 0 0 0-.56-.556zm-.121 2.12h-1.44v-1.44h1.44z" class="cls-1" transform="translate(-127.899 -347.071)"/>
            <path id="Tracé_2161" d="M227.236 252.753a5.867 5.867 0 0 0-4.369 1.949v-.5a.56.56 0 0 0-.56-.56h-1.682a.56.56 0 0 0-.56.56v1.681a.56.56 0 0 0 .56.56h1.155a5.834 5.834 0 0 0-.363 1.34h-.792a.56.56 0 0 0-.56.56v1.682a.56.56 0 0 0 .56.56h1.062a5.88 5.88 0 1 0 5.548-7.827zm-6.49 3.006v-1.44h1.44v1.3l-.079.136zm0 4.141v-1.44h.612v.173a5.881 5.881 0 0 0 .138 1.267zm6.49 3.933a5.2 5.2 0 1 1 5.2-5.2 5.206 5.206 0 0 1-5.2 5.2z" class="cls-1" transform="translate(-210.276 -241.287)"/>
            <path id="Tracé_2162" d="M283.128 282.866a4.514 4.514 0 1 0 4.514 4.514 4.519 4.519 0 0 0-4.514-4.514zm0 8.348a3.834 3.834 0 1 1 3.834-3.834 3.838 3.838 0 0 1-3.834 3.834z" class="cls-1" transform="translate(-266.168 -270.034)"/>
            <path id="Tracé_2163" d="M49.725 363.563h-1.681a.56.56 0 0 0-.56.56v1.677a.56.56 0 0 0 .56.56h1.682a.56.56 0 0 0 .56-.56v-1.681a.56.56 0 0 0-.561-.556zm-.121 2.12h-1.44v-1.44H49.6z" class="cls-1" transform="translate(-45.523 -347.071)"/>
            <path id="Tracé_2164" d="M16.282 21.566H6.236a1.306 1.306 0 0 1-1.3-1.3V1.984a1.306 1.306 0 0 1 1.3-1.3h14.5a1.306 1.306 0 0 1 1.3 1.3v8.349a.34.34 0 1 0 .68 0V1.984A1.987 1.987 0 0 0 20.734 0H6.236a1.987 1.987 0 0 0-1.984 1.984v18.278a1.987 1.987 0 0 0 1.984 1.984h10.046a.34.34 0 0 0 0-.68z" class="cls-1" transform="translate(-4.252)"/>
        </g>
    </g>
</svg>
