<svg xmlns="http://www.w3.org/2000/svg" id="calendar" width="20.229" height="20.229" viewBox="0 0 20.229 20.229">
    <defs>
        <style>
            .cls-1{fill:#19647e}
        </style>
    </defs>
    <g id="Groupe_303">
        <g id="Groupe_302">
            <path id="Tracé_2147" d="M17.858 1.58h-.948V0h-1.58v1.58H4.9V0H3.319v1.58h-.948A2.373 2.373 0 0 0 0 3.951v13.907a2.373 2.373 0 0 0 2.371 2.371h15.487a2.373 2.373 0 0 0 2.371-2.371V3.951a2.373 2.373 0 0 0-2.371-2.371zm.79 16.278a.791.791 0 0 1-.79.79H2.371a.791.791 0 0 1-.79-.79V7.428h17.067zm0-12.011H1.58v-1.9a.791.791 0 0 1 .79-.79h.948v1.58H4.9V3.161h10.43v1.58h1.58v-1.58h.948a.791.791 0 0 1 .79.79z" class="cls-1"/>
        </g>
    </g>
    <g id="Groupe_305" transform="translate(3.109 9.346)">
        <g id="Groupe_304">
            <path id="Rectangle_231" d="M0 0H2V2H0z" class="cls-1" transform="translate(-.109 -.323)"/>
        </g>
    </g>
    <g id="Groupe_307" transform="translate(6.219 9.346)">
        <g id="Groupe_306">
            <path id="Rectangle_232" d="M0 0H2V2H0z" class="cls-1" transform="translate(-.219 -.323)"/>
        </g>
    </g>
    <g id="Groupe_309" transform="translate(9.328 9.346)">
        <g id="Groupe_308">
            <path id="Rectangle_233" d="M0 0H2V2H0z" class="cls-1" transform="translate(-.328 -.323)"/>
        </g>
    </g>
    <g id="Groupe_311" transform="translate(12.437 9.346)">
        <g id="Groupe_310">
            <path id="Rectangle_234" d="M0 0H2V2H0z" class="cls-1" transform="translate(-.438 -.323)"/>
        </g>
    </g>
    <g id="Groupe_313" transform="translate(15.547 9.346)">
        <g id="Groupe_312">
            <path id="Rectangle_235" d="M0 0H1V2H0z" class="cls-1" transform="translate(.453 -.323)"/>
        </g>
    </g>
    <g id="Groupe_315" transform="translate(3.109 12.455)">
        <g id="Groupe_314">
            <path id="Rectangle_236" d="M0 0H2V2H0z" class="cls-1" transform="translate(-.109 -.432)"/>
        </g>
    </g>
    <g id="Groupe_317" transform="translate(6.219 12.455)">
        <g id="Groupe_316">
            <path id="Rectangle_237" d="M0 0H2V2H0z" class="cls-1" transform="translate(-.219 -.432)"/>
        </g>
    </g>
    <g id="Groupe_319" transform="translate(9.328 12.455)">
        <g id="Groupe_318">
            <path id="Rectangle_238" d="M0 0H2V2H0z" class="cls-1" transform="translate(-.328 -.432)"/>
        </g>
    </g>
    <g id="Groupe_321" transform="translate(12.437 12.455)">
        <g id="Groupe_320">
            <path id="Rectangle_239" d="M0 0H2V2H0z" class="cls-1" transform="translate(-.438 -.432)"/>
        </g>
    </g>
    <g id="Groupe_323" transform="translate(3.109 15.565)">
        <g id="Groupe_322">
            <path id="Rectangle_240" d="M0 0H2V1H0z" class="cls-1" transform="translate(-.109 .458)"/>
        </g>
    </g>
    <g id="Groupe_325" transform="translate(6.219 15.565)">
        <g id="Groupe_324">
            <path id="Rectangle_241" d="M0 0H2V1H0z" class="cls-1" transform="translate(-.219 .458)"/>
        </g>
    </g>
    <g id="Groupe_327" transform="translate(9.328 15.565)">
        <g id="Groupe_326">
            <path id="Rectangle_242" d="M0 0H2V1H0z" class="cls-1" transform="translate(-.328 .458)"/>
        </g>
    </g>
    <g id="Groupe_329" transform="translate(12.437 15.565)">
        <g id="Groupe_328">
            <path id="Rectangle_243" d="M0 0H2V1H0z" class="cls-1" transform="translate(-.438 .458)"/>
        </g>
    </g>
    <g id="Groupe_331" transform="translate(15.547 12.455)">
        <g id="Groupe_330">
            <path id="Rectangle_244" d="M0 0H1V2H0z" class="cls-1" transform="translate(.453 -.432)"/>
        </g>
    </g>
</svg>
