<svg xmlns="http://www.w3.org/2000/svg" width="22.854" height="21.71" viewBox="0 0 22.854 21.71">
    <g id="contact">
        <g id="Groupe_344">
            <g id="Groupe_343">
                <path id="Tracé_2165" d="M21.884 12.813H5.92a.973.973 0 0 0-.972.972v4.4l-.73-1.095a1.129 1.129 0 0 0-1.524-.343l-1.5.9a2.2 2.2 0 0 0-1.008 1.311c-.548 1.995-.141 5.432 4.9 10.477 4.012 4.008 7 5.087 9.065 5.087a5.323 5.323 0 0 0 1.414-.184 2.207 2.207 0 0 0 1.306-1.005l.9-1.5a1.129 1.129 0 0 0-.343-1.522l-3.6-2.4a1.135 1.135 0 0 0-1.519.247L11.27 29.5a.365.365 0 0 1-.466.1l-.2-.11a11.977 11.977 0 0 1-3.12-2.451c-.178-.178-.34-.345-.491-.5h14.891a.971.971 0 0 0 .972-.967V13.785a.973.973 0 0 0-.972-.972zM10.24 30.161l.194.106a1.122 1.122 0 0 0 1.438-.3l1.047-1.346a.37.37 0 0 1 .5-.08l3.6 2.4a.368.368 0 0 1 .112.5l-.9 1.5a1.448 1.448 0 0 1-.854.663c-1.8.5-4.953.076-9.737-4.708S.428 20.959.922 19.16a1.448 1.448 0 0 1 .663-.854l1.5-.9a.368.368 0 0 1 .5.112l2.4 3.6a.37.37 0 0 1-.08.5l-1.35 1.036a1.122 1.122 0 0 0-.3 1.438l.107.194a12.63 12.63 0 0 0 2.584 3.294 12.656 12.656 0 0 0 3.294 2.581zm11.854-4.591a.208.208 0 0 1-.21.206H6.305a9.608 9.608 0 0 1-1.271-1.853l-.11-.2a.363.363 0 0 1 .1-.466L6.37 22.21a1.135 1.135 0 0 0 .247-1.519l-.907-1.36v-5.546a.207.207 0 0 1 .21-.21h15.964a.207.207 0 0 1 .21.21v11.784z" class="cls-1" transform="translate(-.001 -12.813)"/>
                <path id="Tracé_2166" d="M162.262 50.665l-6.368 4.829a.514.514 0 0 1-.6 0l-6.365-4.829a.381.381 0 0 0-.461.607l6.366 4.829a1.282 1.282 0 0 0 1.524 0l6.368-4.829a.381.381 0 0 0-.46-.607z" class="cls-1" transform="translate(-141.692 -48.901)"/>
                <path id="Tracé_2167" d="M152.815 172.517l-3.9 4.18a.381.381 0 1 0 .557.52l3.9-4.181a.381.381 0 0 0-.557-.518z" class="cls-1" transform="translate(-142.166 -165.285)"/>
                <path id="Tracé_2168" d="M370.611 172.2a.381.381 0 1 0-.557.52l3.9 4.179a.381.381 0 1 0 .557-.52z" class="cls-1" transform="translate(-353.434 -164.968)"/>
            </g>
        </g>
    </g>
</svg>
