<svg xmlns="http://www.w3.org/2000/svg" width="23.138" height="23.138" viewBox="0 0 23.138 23.138">
    <g opacity="0.32">
        <path fill="none" d="M0 0h23.138v23.138H0z"/>
        <path d="M12.605 8.749a3.856 3.856 0 1 0 3.856 3.856 3.855 3.855 0 0 0-3.856-3.856zm8.619 2.892a8.671 8.671 0 0 0-7.655-7.655V2h-1.928v1.986a8.671 8.671 0 0 0-7.655 7.655H2v1.928h1.986a8.671 8.671 0 0 0 7.655 7.655v1.986h1.928v-1.986a8.671 8.671 0 0 0 7.655-7.655h1.986v-1.928zm-8.619 7.713a6.749 6.749 0 1 1 6.749-6.749 6.75 6.75 0 0 1-6.749 6.749z" transform="translate(-1.036 -1.036)"/>
    </g>
</svg>
