<svg xmlns="http://www.w3.org/2000/svg" width="494.925" height="408.103" viewBox="0 0 494.925 408.103">
    <defs>
        <clipPath id="clip-path">
            <path id="path40" d="M2703.171-1495.711h-182.6a21.62 21.62 0 0 1-21.62-21.621v-221.84a21.62 21.62 0 0 1 21.62-21.624h182.6a21.62 21.62 0 0 1 21.621 21.624v221.84a21.62 21.62 0 0 1-21.621 21.621" transform="translate(-2498.954 1760.796)"/>
        </clipPath>
        <clipPath id="clip-path-2">
            <path id="path70" d="M1160.042-216.188c0 8.1-110.794 14.668-247.462 14.668s-247.462-6.567-247.462-14.668 110.792-14.665 247.462-14.665 247.462 6.567 247.462 14.665z" transform="translate(-665.117 230.853)"/>
        </clipPath>
        <linearGradient id="linear-gradient" x1="-2.596" x2="-2.596" y1="1.559" y2="1.559" gradientUnits="objectBoundingBox">
            <stop offset="0" stop-color="#d3d9e1"/>
            <stop offset="1" stop-color="#6da9a9" stop-opacity=".431"/>
        </linearGradient>
        <style>
            .cls-3{fill:#dcecf0}.cls-7{fill:#eea886}.cls-10{fill:#3c4145}.cls-11{fill:#51565c}.cls-12{fill:#f5e2d9}.cls-13{fill:#d44040}.cls-15{fill:#292c47}.cls-17{fill:#424773}.cls-18{fill:#3a3f47}.cls-21{fill:#ffdf69}.cls-22{fill:#ab9546}
        </style>
    </defs>
    <g id="Groupe_369" transform="translate(-48.45 -135.736)">
        <g id="g36" transform="translate(272.831 153.831)">
            <g id="g38" clip-path="url(#clip-path)">
                <path id="path50" fill="url(#linear-gradient)" d="M2703.171-1495.711h-182.6a21.62 21.62 0 0 1-21.62-21.621v-221.84a21.62 21.62 0 0 1 21.62-21.624h182.6a21.62 21.62 0 0 1 21.621 21.624v221.84a21.62 21.62 0 0 1-21.621 21.621" transform="translate(-2498.954 1760.796)"/>
            </g>
        </g>
        <path id="path52" d="M2953.279-1090.974h-17.913v-3.316h17.913v3.316" class="cls-3" transform="translate(-2560.138 1404.506)"/>
        <path id="path54" d="M2749.768-958.308H2645.54v-6.423h104.227v6.423" class="cls-3" transform="translate(-2338.316 1305.345)"/>
        <path id="path56" d="M2729.823-826.9h-84.283v-6.423h84.283v6.423" class="cls-3" transform="translate(-2338.316 1204.766)"/>
        <path id="path58" d="M2694.951-892.6h-49.411v-6.423h49.411v6.423" class="cls-3" transform="translate(-2338.316 1255.055)"/>
        <path id="path60" d="M2656.423-1534.464h-3.244v21.173h22.346v-3.244h-19.1zm145.56 0v17.929h-19.1v3.244h22.343v-21.173zm-148.8-92.5h3.244v-17.926h19.1v-3.244h-22.347zm129.7-21.17v3.244h19.1v17.926h3.241v-21.17h-22.343" class="cls-3" transform="translate(-2344.163 1828.396)"/>
        <path id="path62" d="M3195.788-963.046a15.42 15.42 0 0 0-15.4 15.4 15.42 15.42 0 0 0 15.4 15.4 15.42 15.42 0 0 0 15.4-15.4 15.42 15.42 0 0 0-15.4-15.4zm0 34.5a19.123 19.123 0 0 1-19.1-19.1 19.123 19.123 0 0 1 19.1-19.1 19.123 19.123 0 0 1 19.1 19.1 19.123 19.123 0 0 1-19.1 19.1" class="cls-3" transform="translate(-2744.836 1306.886)"/>
        <path id="path64" d="M3224.6-898.08l-8.678-8.678 2.613-2.615 6.066 6.063 8.5-8.5 2.612 2.615-11.113 11.115" class="cls-3" transform="translate(-2774.869 1264.842)"/>
        <g id="g66" transform="translate(48.45 514.506)">
            <g id="g68" clip-path="url(#clip-path-2)">
                <path id="path82" fill="#4a8599" d="M1160.042-216.188c0 8.1-110.794 14.668-247.462 14.668s-247.462-6.567-247.462-14.668 110.792-14.665 247.462-14.665 247.462 6.567 247.462 14.665" transform="translate(-665.117 230.853)"/>
            </g>
        </g>
        <path id="path330" fill="#decbc4" d="M2806.406-1442.129h-10.862c-.2-.435-.359-.813-.495-1.117-3.222-7.611-19.834-25.065-19.834-25.065v.037l-.009.019v.022l-.028.075c-.01.038-.019.084-.038.141l-.019.094c-.009.028-.019.047-.029.075-.681 2.544-4.029 15.214-5.7 25.719h-73.512c-.169-.973-.365-1.9-.594-2.762a59.45 59.45 0 0 1-1.417-7.6c-.009-.122-.028-.235-.038-.357-.056-.444-.106-.888-.143-1.326a69.85 69.85 0 0 1-.123-12.167c-.206.444-1.693 5.891-3.639 12.61-1.069 3.689-2.281 7.765-3.482 11.6h-17.356l21.783-62.847c.482-.378 6.135-3.11 10.258-5.078 4.208-2 9.286-4.943 13.868-7.458 2.347-1.286 4.559-2.45 6.479-3.329l.291-.131v-.009c3.168-1.449 5.277-2.4 5.277-2.4h.01c.075-.01.576-.057 1.37-.135 4.424-.425 18.155-1.708 22.75-1.974.375-.028.7-.037.945-.047a3.724 3.724 0 0 1 .463 0 57.638 57.638 0 0 1 7.13 2.44c.141.047.282.1.423.159.181.066.35.132.532.2.323.125.65.247.982.378.663.266 1.352.532 2.043.8.234.094.482.191.729.285 7.439 2.95 15.968 6.607 17.992 8.065 1.342.954 5.512 8.813 10.342 18.53 5.2 16.659 11.563 40.695 13.653 52.552" transform="translate(-2356.337 1734.575)"/>
        <path id="path332" d="M2940.546-1608.182c-.2 9.88-19.331 15.285-19.331 15.285s-8-10.033-6.091-10.993c.751-.378 1.057-1.874 1.151-3.554a34.938 34.938 0 0 0-.11-4.483c-.056-.7-.113-1.148-.113-1.148s2.735-2.884 6.213-6.319c6.075-6.01 14.432-13.706 14.444-10.643a2.872 2.872 0 0 1-.069.579c-1.47 6.892 3.9 21.276 3.9 21.276" class="cls-7" transform="translate(-2544.42 1815.08)"/>
        <path id="path334" fill="#a77860" d="M2931.331-1596.329c-.038.059-.851 1.273-2.234 3.016-2.937 3.694-8.459 9.764-14.667 12.2a34.94 34.94 0 0 0-.109-4.483 9.849 9.849 0 0 1-1.9-.229 59.5 59.5 0 0 1 4.161-6.091l3.842-1.148 10.909-3.266" transform="translate(-2542.576 1788.749)"/>
        <path id="path336" d="M2892.921-1735.53c-1.655 3.6-3.226 6.21-3.673 7.245a12.78 12.78 0 0 1-2.233 3.016c-3.154 3.4-9.017 7.877-14.776 7.718a9.819 9.819 0 0 1-1.9-.228 9.032 9.032 0 0 1-6.582-4.549c-11.938-23.37-3.294-42.478-3.294-42.478s32.635-9.229 37.741.594c3.585 6.892-1.392 20.222-5.281 28.681" class="cls-7" transform="translate(-2500.493 1920.704)"/>
        <path id="path338" fill="#e8734d" d="M2857.317-1817.753s-3.031-.169-3.782-5.916c-.742-5.678.757-7.252.757-7.252s13.474-5.64 18.315-6.372 16.734-1.439 19.524 1.752c0 0 6.776-1.577 8.622 9.673 2.928 17.844-9.98 35.173-9.98 35.173s.11-11.656-2.461-13.2-4.79 2.127-4.79 2.127l-5.259.942s7.988-17.247-1.6-17.885-13.865 1.962-19.349.961" transform="translate(-2497.35 1973.652)"/>
        <path id="path340" d="M2982.068-1719.712c.5-5.137 9.789-7.1 9.166-1.714s-5.2 10.555-7.307 10.374-2.24-4.746-1.858-8.659" class="cls-7" transform="translate(-2595.753 1886.949)"/>
        <path id="path342" d="M3010.219-1486.216c-3.025-9.689-5.644-17.356-6.807-18.189-2.033-1.458-18.142-5.891-25.791-8.887-.248-.094-.495-.191-.729-.285-.691-.272-1.379-.538-2.042-.8-.332-.131-.66-.253-.983-.379-.182-.065-.35-.131-.532-.2-.141-.057-.281-.113-.422-.16l-.041.034a126.233 126.233 0 0 0-8.44 10.8c-7.905 11.231-18.2 29.432-16.622 46.235.51 5.387 1.133 13.13 2.184 21.821.075.692.16 1.38.253 2.081h35.664c.435-9.1 1.211-21.076 2.384-25.719.01-.028.019-.047.028-.075l.019-.094c.01-.047.029-.094.037-.141l.029-.075v-.021l.009-.019s8.632 13.492 9.075 26.144h22.447c-1.1-11.754-4.53-35.436-9.72-52.07" class="cls-10" transform="translate(-2569.538 1726.592)"/>
        <path id="path344" d="M2710.145-1505.377s-2.693 8.963-6.172 31.344v.01c-.125.748-.238 1.511-.36 2.3-.009.084-.028.178-.036.275-.088.51-.164 1.039-.239 1.567l-.029.191c-.056.35-.112.71-.159 1.076-.135.882-.266 1.79-.4 2.706-1.305 9.132-3.047 23.645-4.815 39.133h-14.1c-.766-4.3-1.483-8.218-1.426-10.9a1.319 1.319 0 0 0-.066.182c-1.126 3.119-2.365 6.513-3.623 9.814l-.341.907h-24.3l24.2-63.319c.482-.379 6.714-3.736 10.837-5.691 4.3-2.052 9.739-4.577 14.56-6.8 2.306-1.07 4.471-2.062 6.307-2.9l.15.113" class="cls-10" transform="translate(-2344.857 1719.224)"/>
        <path id="path346" d="M2967.612-1490.6l-9.313 5.256 3.982 4.058-8.738 47.142h-3.292c-1.21-9.532-1.9-18.089-2.437-23.9-2.431-25.985 23.495-55.282 25.1-57.069 1.245.472 2.59.992 3.98 1.54l-9.285 22.975" class="cls-11" transform="translate(-2569.544 1726.592)"/>
        <path id="path348" d="M2842.97-1506.05s-3.479 11.353-7.524 39.709c-1.3 9.122-3.056 23.645-4.824 39.133h-1.37l-1.805-44.542 4.433-4.8-3.941-4.927 8.434-21.536c2.306-1.07 4.47-2.061 6.307-2.9l.291-.132" class="cls-11" transform="translate(-2477.541 1719.652)"/>
        <path id="path350" d="M2969.094-1529.937l-7.718-4.687s-.215 4.233-19.33 15.286l5.428 15.289 21.621-25.888" class="cls-12" transform="translate(-2565.251 1741.522)"/>
        <path id="path352" d="M2899.9-1525.543s.3 4.568 5.084 13.155l-10.593 13.809-.769-22.4 6.278-4.568" class="cls-12" transform="translate(-2528.187 1734.572)"/>
        <path id="path354" d="M2921.157-1469.476s2.052 8.212 1.314 10.512c0 0-4.514 1.642-7.759-.41a36.047 36.047 0 0 1 6.445-10.1" class="cls-13" transform="translate(-2544.332 1691.66)"/>
        <path id="path356" d="M2895.866-1414.778a206.573 206.573 0 0 0-1.362 42.34h-9.046q-.184-2.679-.351-5.6c-1.683-29.207 8.641-55.3 8.641-55.3l4.6-1.155s-1.483 12.9-2.487 19.712" class="cls-13" transform="translate(-2521.531 1664.883)"/>
        <path id="path358" fill="#2d3133" d="M2762.061-1329.7c-.344 7.008-.294 13.23-.294 13.23v.006c0 .031-.01.222-.022.535-.015-.119-.031-.235-.044-.354-1.123 3.123-2.365 6.51-3.616 9.814a104.51 104.51 0 0 1-.282-10.693c.5-19.65 6.682-29.952 6.682-29.952-1.42 3.423-2.1 10.771-2.424 17.413" transform="translate(-2424.212 1598.01)"/>
        <path id="path360" d="M2226.6-1306.644l-28.91 15.889-29.032-45.688 35.117-12.195 22.825 41.993" class="cls-15" transform="translate(-1973.328 1599.174)"/>
        <path id="path362" fill="#fff" d="M2231.049-1303.619l-27.036 14.86-27.152-42.725 32.839-11.406 21.349 39.271" transform="translate(-1979.604 1594.775)"/>
        <path id="path364" d="M2338.182-1240.547s-5.031-2.406-7.238-3.664-7.891-2.988-8.35-3.4-16.84-1.42-17.835-2.278-1.958 2.008 2.287 2.941 10.154 3.2 10.476 4.862-4.361 2.055-4.833 3.423.132 1.057.8 1.352 5.572-2.421 7.727-1.649 5.446-.3 7.1.269 9.682 3.266 9.682 3.266l.182-5.124" class="cls-7" transform="translate(-2076.839 1523.714)"/>
        <path id="path366" d="M2214.183-1220.872s-4.226-3.8-6.272-5.4-5.885-6.273-6.451-6.548-7.9-15.317-9.091-15.918 1.133-2.631 3.66 1.007 6.973 8.325 8.663 7.98.238-4.908 1.342-5.887 1.051-.288 1.586.231-.11 6.194 1.454 7.924 1.843 5.25 3.019 6.585 6.848 7.852 6.848 7.852l-4.758 2.168" class="cls-7" transform="translate(-1991.226 1523.56)"/>
        <path id="path368" d="M2674.394-262.348s.917 6.348 1.029 7.3 10.173-.563 10.173-.563l.813-7.555s-10.759-.078-12.016.817" class="cls-17" transform="translate(-2360.399 768.391)"/>
        <path id="path370" d="M2621.394-233.4a27.2 27.2 0 0 1-6.27 5.49c-3.081 1.668-7.924 2.328-9.748 4.054-1.314 1.245-4.79 6.607 8.008 6.5s18.974.757 20.344-1.3-1.984-15.173-1.984-15.173-3.031 1.089-10.352.429" class="cls-15" transform="translate(-2306.477 745.934)"/>
        <path id="path372" d="M2367.261-262.348s.913 6.348 1.026 7.3 10.173-.563 10.173-.563l.814-7.555s-10.759-.078-12.013.817" class="cls-17" transform="translate(-2125.329 768.391)"/>
        <path id="path374" d="M2294.958-233.4a27.13 27.13 0 0 1-6.27 5.49c-3.081 1.668-14.421 3.038-16.245 4.761-1.318 1.248-3.5 6.26 14.506 5.794 12.8-.335 18.974.757 20.344-1.3s-1.983-15.173-1.983-15.173-2.856 1.164-10.352.429" class="cls-15" transform="translate(-2052.107 745.934)"/>
        <path id="path376" d="M2563.628-954.758s9.451 15.013 8.746 28.587 3.426 28.391 4.846 42.569c1.583 15.808 8.059 53.227 8.293 61.683s-1 35.451-1 35.451l-12.967.3s-10.887-65.419-13.709-72.095-16.806-54.263-17.275-59.6 23.07-36.89 23.07-36.89" class="cls-15" transform="translate(-2257.96 1297.712)"/>
        <path id="path378" d="M2375.523-961.167s-7.123 37.2-8.062 45.506-1.567 40.2-2.036 45.393-3.135 67.943-5.644 75.655h16.577s12.724-45.616 12.724-67.2 9.83-46.92 16.177-61.161 20.87-14.578 24.768-41c0 0-49.222-5.578-54.5 2.8" class="cls-15" transform="translate(-2119.605 1306.155)"/>
        <path id="path380" d="M2497.991-1496.578s-12.686-4.739-18.532 4.915-5.287 28.988 1.107 31.366 16 1.135 19.274-4.909 6.229-14.775 6.085-20.613-4.6-9.076-7.934-10.759" class="cls-7" transform="translate(-2208.096 1713.293)"/>
        <path id="path382" d="M2502.06-1375.546s.529 3.426-.344 5.115 16.433 1.73 16.433 1.73a113.966 113.966 0 0 1 4.071-16.932c2.663-7.752-20.16 10.086-20.16 10.086" class="cls-7" transform="translate(-2228.213 1628.983)"/>
        <path id="path384" d="M2503.884-1474.71s-1.195 1.971-6.069 1.208-10.824-7.251-12.861-7.965-2.056-1.908-2.056-1.908l-1.273 1.861-2.165.138s1.975-5.8-1-8.168 3.087-18.783 18.724-13.318c0 0 12.01 3.31 11.575 10.139s-2.187 14.613-4.874 18.013" class="cls-18" transform="translate(-2209.877 1718.061)"/>
        <path id="path386" fill="#e2d2ca" d="M2497.447-1330.815s.053-3.225 1.514-3.535 16.13-1.718 17.923-1.014v3.757s-3.457 2.124-19.437.791" transform="translate(-2224.97 1589.164)"/>
        <path id="path388" d="M2499.892-1434.905c.275-1.145 3.188-4.421 4.3-.914s-1.683 8.222-3.247 7.818-1.746-4-1.054-6.9" class="cls-7" transform="translate(-2226.548 1667.106)"/>
        <path id="path390" fill="#323657" d="M2249.164-1153.034h.021c-.1.044-.115.05-.021 0" transform="translate(-2034.894 1449.469)"/>
        <path id="path392" d="M2351.508-1197.56a134.051 134.051 0 0 1-21.045 3.751c-13.265 1.461-46.41-.529-46.62-2.1s7.13-58.357 6.714-61.283-.642-13.346-.642-13.346c-.166 2.856-3.075 14.519-6.585 20.879-1.27 2.3-5.525 9.495-7.577 7.859-9.93-7.927-25.306-37.8-26.279-38.057.816-.357 7.286-3.335 8.193-3.635.8-.266 7.959 7.317 12.3 12.02 1.937 2.1 3.31 3.62 3.31 3.62 1.254-2.819 5.819-20.585 7.236-26.736 3.2-13.865 2.708-14.441 2.708-14.441 9.7-2.938 24.436-8.91 24.436-8.91l19.438-.795s17.838 3.929 24.865 7.1c.666.3.669 15.914 2.5 20.009l-5.825 12.289s-3.366 24.342-4.064 35.167c-.321 4.971 6.939 46.6 6.939 46.6" class="cls-21" transform="translate(-2035.18 1576.284)"/>
        <path id="path394" d="M2629.76-1248.185c-.51 1.64-2.812 3.025-4.311 3.629a5.574 5.574 0 0 1-3.113.313l-.76-.141-13.321-2.472s-2.912-33.565 18.2-41.608c.557.182 7.968 25.25 3.306 40.278" class="cls-21" transform="translate(-2309.674 1553.119)"/>
        <path id="path396" d="M2669.346-1156.723a5.567 5.567 0 0 1-3.113.313l-.76-.141 1.315-17.153 2.559 16.981" class="cls-22" transform="translate(-2353.572 1465.286)"/>
        <path id="path398" d="M2340.108-1113.684l-1.627 6.895s-1.768-6.92-1.683-10.515c1.936 2.1 3.31 3.62 3.31 3.62" class="cls-22" transform="translate(-2102.013 1422.119)"/>
        <path id="path400" d="M2587.087-1488.046s16.625-2.083.281 25.688l-.281-25.688" class="cls-18" transform="translate(-2293.577 1705.9)"/>
        <path id="path402" d="M2220.11-1331.554l-1.689-2.9 13.311-4.593 1.689 2.888-13.312 4.608" class="cls-15" transform="translate(-2011.412 1591.836)"/>
    </g>
</svg>
