<svg xmlns="http://www.w3.org/2000/svg" width="14.549" height="17.439" viewBox="0 0 14.549 17.439">
    <defs>
        <style>
            .cls-1{fill:#19647e}
        </style>
    </defs>
    <g id="user_1_" transform="translate(1 -68.92)">
        <path id="Tracé_2174" d="M91.232 8.4A4.064 4.064 0 0 0 94.2 7.17a4.065 4.065 0 0 0 1.23-2.97 4.065 4.065 0 0 0-1.23-2.969 4.2 4.2 0 0 0-5.94 0A4.064 4.064 0 0 0 87.032 4.2a4.065 4.065 0 0 0 1.231 2.97 4.066 4.066 0 0 0 2.969 1.23zm-2.247-6.447a3.177 3.177 0 0 1 4.494 0A3.037 3.037 0 0 1 94.41 4.2a3.037 3.037 0 0 1-.931 2.247 3.177 3.177 0 0 1-4.494 0 3.036 3.036 0 0 1-.931-2.247 3.036 3.036 0 0 1 .931-2.247zm0 0" class="cls-1" transform="translate(-85.067 68.92)"/>
        <path id="Tracé_2175" d="M14.514 252.3a10.375 10.375 0 0 0-.141-1.1 8.683 8.683 0 0 0-.271-1.108 5.473 5.473 0 0 0-.456-1.033 3.9 3.9 0 0 0-.687-.9 3.028 3.028 0 0 0-.987-.62 3.409 3.409 0 0 0-1.259-.228 1.278 1.278 0 0 0-.683.29c-.2.133-.444.288-.711.458a4.076 4.076 0 0 1-.92.405 3.573 3.573 0 0 1-2.251 0 4.064 4.064 0 0 1-.92-.405c-.265-.169-.5-.323-.712-.459a1.277 1.277 0 0 0-.682-.29 3.4 3.4 0 0 0-1.259.228 3.026 3.026 0 0 0-.987.62 3.9 3.9 0 0 0-.687.895 5.482 5.482 0 0 0-.455 1.033 8.7 8.7 0 0 0-.27 1.114 10.3 10.3 0 0 0-.141 1.1c-.023.333-.035.68-.035 1.03a2.9 2.9 0 0 0 .86 2.191 3.1 3.1 0 0 0 2.216.808h8.4a3.1 3.1 0 0 0 2.216-.808 2.9 2.9 0 0 0 .86-2.191c0-.351-.012-.7-.035-1.03zm-1.53 2.481a2.084 2.084 0 0 1-1.512.527h-8.4a2.084 2.084 0 0 1-1.512-.527 1.891 1.891 0 0 1-.543-1.451c0-.327.011-.649.032-.959a9.3 9.3 0 0 1 .128-.992 7.676 7.676 0 0 1 .238-.977 4.464 4.464 0 0 1 .371-.84 2.887 2.887 0 0 1 .5-.661 2.008 2.008 0 0 1 .656-.408 2.351 2.351 0 0 1 .8-.155c.036.019.1.055.2.123.21.137.452.293.72.464a5.063 5.063 0 0 0 1.155.516 4.594 4.594 0 0 0 2.88 0 5.069 5.069 0 0 0 1.156-.516c.274-.175.509-.327.719-.464.1-.067.167-.1.2-.123a2.353 2.353 0 0 1 .805.155 2.012 2.012 0 0 1 .656.408 2.88 2.88 0 0 1 .5.662 4.449 4.449 0 0 1 .371.84 7.657 7.657 0 0 1 .238.977 9.375 9.375 0 0 1 .128.993c.022.309.033.631.033.959a1.891 1.891 0 0 1-.543 1.45zm0 0" class="cls-1" transform="translate(-1 -169.972)"/>
    </g>
</svg>
