<svg xmlns="http://www.w3.org/2000/svg" id="information_1_" width="20.665" height="24.046" viewBox="0 0 20.665 24.046">
    <g id="Groupe_346">
        <g id="Groupe_345">
            <path id="Tracé_2169" d="M235.263 182.774c-.6 0-1.022.252-1.022.624v5.057c0 .319.425.637 1.022.637.571 0 1.035-.318 1.035-.637V183.4c.002-.374-.464-.626-1.035-.626z" class="cls-1" transform="translate(-224.93 -174.19)"/>
            <path id="Tracé_2170" d="M233.916 116.361a.956.956 0 1 0 1.075.942 1.028 1.028 0 0 0-1.075-.942z" class="cls-1" transform="translate(-223.584 -110.896)"/>
            <path id="Tracé_2171" d="M46.332 0a10.327 10.327 0 0 0-3.127 20.171l2.35 3.464a.939.939 0 0 0 1.555 0l2.35-3.464A10.327 10.327 0 0 0 46.332 0zm2.285 18.462a.939.939 0 0 0-.524.377l-1.76 2.595-1.76-2.595a.939.939 0 0 0-.524-.377 8.454 8.454 0 1 1 4.569 0z" class="cls-1" transform="translate(-36)"/>
        </g>
    </g>
</svg>
