<svg xmlns="http://www.w3.org/2000/svg" width="28.642" height="21.481" viewBox="0 0 28.642 21.481">
    <defs>
        <style>
            .cls-1{fill:#aeaeae}
        </style>
    </defs>
    <g id="visibility_1_" transform="translate(0 -64.008)">
        <g id="Groupe_282" transform="translate(10.771 71.198)">
            <g id="Groupe_281">
                <path id="Tracé_2092" d="M199.475 192.717a.6.6 0 1 0-.844.844 3.58 3.58 0 1 1-5.062 5.062.6.6 0 0 0-.844.844 4.773 4.773 0 1 0 6.75-6.75z" class="cls-1" transform="translate(-192.55 -192.542)"/>
            </g>
        </g>
        <g id="Groupe_284" transform="translate(9.547 69.974)">
            <g id="Groupe_283">
                <path id="Tracé_2093" d="M176.273 170.741a4.726 4.726 0 0 0-5.605 4.691 4.672 4.672 0 0 0 .084.832.6.6 0 0 0 .586.493.53.53 0 0 0 .1-.01.6.6 0 0 0 .483-.691 3.459 3.459 0 0 1-.064-.624 3.537 3.537 0 0 1 4.2-3.517.6.6 0 0 0 .208-1.174z" class="cls-1" transform="translate(-170.668 -170.659)"/>
            </g>
        </g>
        <g id="Groupe_286" transform="translate(7.464 68.061)">
            <g id="Groupe_285">
                <path id="Tracé_2094" d="M154.471 142.763a28.988 28.988 0 0 0-7.816-6.234.6.6 0 1 0-.548 1.061 28.043 28.043 0 0 1 7.107 5.559c-1.423 1.541-7.021 7.16-12.922 7.16a13.759 13.759 0 0 1-6-1.438.6.6 0 0 0-.518 1.074 14.922 14.922 0 0 0 6.518 1.557c7.353 0 13.9-7.643 14.18-7.968a.6.6 0 0 0-.001-.771z" class="cls-1" transform="translate(-133.435 -136.461)"/>
            </g>
        </g>
        <g id="Groupe_288" transform="translate(0 66.394)">
            <g id="Groupe_287">
                <path id="Tracé_2095" d="M18.236 107.346a12.322 12.322 0 0 0-3.916-.687c-7.353 0-13.9 7.643-14.18 7.968a.6.6 0 0 0-.033.727 22.153 22.153 0 0 0 5.474 5.19.593.593 0 0 0 .826-.168.6.6 0 0 0-.167-.826 21.823 21.823 0 0 1-4.873-4.505c1.374-1.492 7.009-7.193 12.953-7.193a11.17 11.17 0 0 1 3.535.624.589.589 0 0 0 .755-.375.6.6 0 0 0-.374-.755z" class="cls-1" transform="translate(0 -106.659)"/>
            </g>
        </g>
        <g id="Groupe_290" transform="translate(3.58 64.008)">
            <g id="Groupe_289">
                <path id="Tracé_2096" d="M85.3 64.183a.6.6 0 0 0-.844 0L64.171 84.471a.6.6 0 0 0 .844.844L85.3 65.026a.6.6 0 0 0 0-.843z" class="cls-1" transform="translate(-63.996 -64.008)"/>
            </g>
        </g>
    </g>
</svg>
