<svg xmlns="http://www.w3.org/2000/svg" width="17.092" height="15.268" viewBox="0 0 17.092 15.268">
    <path fill="#19647e" d="M13.857 32.933a4.265 4.265 0 0 0-5.307-6.658 4.267 4.267 0 0 0-5.314 6.659A6.062 6.062 0 0 0 0 38.32v1.831a.61.61 0 0 0 .61.61h15.872a.61.61 0 0 0 .61-.61V38.32a6.062 6.062 0 0 0-3.235-5.387zm-2.869-6.211a3.048 3.048 0 0 1 1.254 5.827l-.142.061a2.993 2.993 0 0 1-.465.145c-.031.007-.061.01-.092.016a3.053 3.053 0 0 1-.537.054c-.081 0-.163-.006-.244-.013a.461.461 0 0 1-.092-.006 3.084 3.084 0 0 1-1-.294c-.012-.006-.025 0-.037-.01-.061-.029-.122-.055-.176-.088 0-.006.008-.013.013-.019a4.282 4.282 0 0 0 .654-1.191l.019-.051a4.306 4.306 0 0 0 .162-.628c.006-.031.01-.061.015-.095a3.9 3.9 0 0 0 0-1.311c0-.032-.009-.061-.015-.095a4.307 4.307 0 0 0-.162-.628l-.019-.051a4.283 4.283 0 0 0-.654-1.191c0-.006-.008-.013-.013-.019a3.033 3.033 0 0 1 1.531-.413zm-7.935 3.052a3.044 3.044 0 0 1 5.151-2.2c.035.034.07.068.1.1a3.139 3.139 0 0 1 .289.351c.027.038.051.078.076.117a3 3 0 0 1 .224.412l.04.1a2.984 2.984 0 0 1 .151.488c0 .018.006.037.009.056a2.873 2.873 0 0 1 0 1.149c0 .019 0 .037-.009.056a2.977 2.977 0 0 1-.151.488c-.013.035-.025.07-.04.1a3.013 3.013 0 0 1-.224.411c-.025.039-.049.079-.076.117a3.131 3.131 0 0 1-.289.351l-.1.1a3.047 3.047 0 0 1-.843.569c-.049.023-.1.043-.15.061a3.07 3.07 0 0 1-.453.14c-.038.009-.078.013-.117.02a3.028 3.028 0 0 1-.5.051h-.07a3.025 3.025 0 0 1-.5-.051c-.039-.007-.079-.012-.117-.02A3.069 3.069 0 0 1 5 32.613l-.15-.061a3.052 3.052 0 0 1-1.797-2.778zm7.936 9.767H1.222V38.32a4.853 4.853 0 0 1 3.246-4.6 4.26 4.26 0 0 0 3.274 0 4.906 4.906 0 0 1 .595.263c.127.065.244.14.366.215.079.049.16.1.236.152.118.084.229.175.338.268.07.061.14.122.206.183.1.1.2.2.286.3.065.074.129.15.189.228.08.1.156.208.227.316.061.092.115.187.169.282s.117.21.168.319.1.229.14.346c.038.1.079.2.111.305.043.142.073.288.1.435.018.087.042.172.056.259a5.049 5.049 0 0 1 .056.73v1.221zm4.883 0h-3.663V38.32c0-.191-.011-.38-.028-.568 0-.055-.013-.109-.02-.164-.016-.135-.035-.269-.061-.4q-.016-.085-.035-.17-.044-.2-.1-.4c-.013-.044-.024-.089-.038-.132a6.048 6.048 0 0 0-.736-1.543l-.024-.035q-.157-.234-.336-.452v-.006a5.54 5.54 0 0 0-.394-.438h.025a4.32 4.32 0 0 0 .519.037h.034a4.318 4.318 0 0 0 .481-.031c.05-.006.1-.015.15-.023q.195-.03.385-.078l.109-.028a4.156 4.156 0 0 0 .488-.166 4.853 4.853 0 0 1 3.249 4.6v1.221z" transform="translate(-.001 -25.494)"/>
</svg>
