<?xml version="1.0" standalone="no"?>
<!DOCTYPE svg PUBLIC "-//W3C//DTD SVG 20010904//EN"
 "http://www.w3.org/TR/2001/REC-SVG-20010904/DTD/svg10.dtd">
<svg version="1.0" xmlns="http://www.w3.org/2000/svg"
 width="1024.000000pt" height="684.000000pt" viewBox="0 0 1024.000000 684.000000"
 preserveAspectRatio="xMidYMid meet">

<g transform="translate(0.000000,684.000000) scale(0.100000,-0.100000)"
fill="#4a8599" stroke="none">
<path d="M2448 6350 c-46 -14 -85 -48 -102 -90 -14 -35 -16 -96 -16 -441 0
-446 0 -445 68 -497 28 -22 49 -27 111 -32 l76 -5 3 -49 c5 -107 71 -156 209
-156 l83 0 0 100 0 99 -142 4 -143 3 148 2 147 2 0 -716 c0 -569 -3 -714 -12
-708 -7 4 -5 -2 5 -13 16 -18 17 -48 15 -373 l-3 -353 -265 -64 c-146 -35
-279 -66 -297 -69 -30 -6 -42 3 -193 136 -111 99 -157 146 -148 151 7 4 56 18
108 32 126 34 191 62 197 87 4 15 14 20 39 20 18 0 35 4 39 10 7 11 -46 40
-76 40 -11 0 -34 11 -50 24 -27 23 -28 25 -9 31 29 9 25 32 -9 49 -26 14 -40
12 -197 -29 -93 -24 -189 -51 -213 -59 -24 -9 -49 -16 -55 -16 -6 0 -38 25
-71 55 -45 40 -55 54 -40 55 12 0 16 3 9 10 -5 5 -19 7 -32 4 -38 -10 -26 -45
33 -94 29 -25 51 -48 49 -51 -2 -3 12 -13 30 -22 49 -23 107 -77 123 -114 8
-19 21 -33 31 -33 9 0 98 -72 196 -160 129 -115 187 -160 204 -160 14 0 60 7
104 16 l79 16 34 -26 c41 -31 47 -32 70 -6 14 16 31 20 79 20 l61 1 -35 31
c-28 26 -30 30 -12 26 12 -4 22 -3 22 1 0 5 37 16 83 26 45 10 88 20 95 22 9
4 12 -30 12 -149 0 -145 2 -157 23 -189 39 -58 43 -59 380 -59 266 0 307 -2
307 -15 0 -13 176 -15 1525 -15 1351 0 1524 2 1519 15 -5 13 33 15 310 15 344
0 355 2 391 56 12 18 19 57 24 125 3 55 4 99 1 99 -4 0 -1 151 4 157 0 1 51
-10 111 -24 90 -20 116 -23 141 -14 30 11 78 6 146 -15 12 -3 28 12 56 53 28
41 49 61 71 68 27 8 52 40 151 190 103 156 117 181 100 185 -13 3 -17 9 -11
18 14 22 0 62 -23 67 -11 3 -163 34 -336 70 -173 35 -337 69 -365 75 l-50 11
3 503 2 503 -287 5 -288 5 -33 -25 c-18 -14 -30 -27 -27 -30 3 -3 18 7 33 21
23 22 37 27 80 27 l52 0 0 -766 0 -766 -29 -29 -29 -29 -1702 0 -1702 0 -29
29 -29 29 0 1007 0 1006 83 -3 82 -3 3 -824 c2 -750 4 -826 19 -843 15 -17 79
-18 1573 -18 1498 0 1558 1 1574 18 15 17 16 68 14 574 l-3 555 -187 -164
c-104 -90 -188 -161 -188 -157 0 3 14 89 30 191 17 101 30 186 30 189 0 2 -94
4 -208 4 -196 0 -210 1 -252 23 -29 14 -53 36 -68 62 -23 40 -23 40 -20 360 2
176 2 281 0 233 l-3 -88 -530 0 c-480 0 -531 2 -525 16 3 9 6 51 6 95 l0 79
126 0 126 0 -4 213 c-3 190 -5 215 -23 246 -34 58 -67 75 -149 79 l-74 4 -4
57 c-5 70 -34 116 -92 142 -39 18 -89 19 -1141 18 -605 0 -1112 -4 -1127 -9z
m189 -248 c10 -6 -7 -128 -51 -364 l-5 -28 85 0 c83 0 85 -1 82 -22 -3 -22 -7
-23 -115 -26 -103 -2 -113 -1 -113 15 0 10 16 108 35 217 35 205 46 231 82
208z m1393 -41 c0 -17 -24 -51 -35 -51 -18 0 -35 16 -35 34 0 30 8 36 42 36
21 0 28 -5 28 -19z m-998 -98 c11 -10 18 -30 18 -54 0 -30 -7 -43 -34 -67 -31
-27 -104 -52 -153 -52 -21 0 -9 -49 19 -72 23 -20 48 -22 98 -8 34 10 49 2 50
-27 0 -16 -101 -37 -143 -29 -42 8 -87 55 -88 94 -3 91 15 144 69 195 50 48
123 57 164 20z m318 11 c2 -3 -6 -64 -18 -137 -12 -73 -22 -142 -22 -155 0
-20 -4 -23 -27 -20 -19 2 -28 9 -27 19 1 14 -5 12 -34 -7 -59 -40 -113 -28
-138 31 -18 44 -18 69 2 134 19 64 75 124 130 139 35 10 122 7 134 -4z m480 1
c42 -22 46 -52 24 -190 -19 -118 -19 -120 -46 -123 -33 -4 -33 -3 -13 101 28
146 18 182 -44 161 -36 -12 -77 -96 -92 -189 -12 -74 -12 -75 -41 -75 -27 0
-29 2 -24 28 21 106 46 263 44 274 -2 8 8 14 25 16 22 3 27 -1 27 -18 0 -21 0
-21 28 -2 50 35 71 38 112 17z m-350 -10 c0 -19 9 -19 34 0 11 8 33 15 49 15
25 0 28 -3 25 -26 -2 -21 -9 -28 -32 -30 -61 -6 -79 -44 -110 -226 -6 -32 -11
-38 -31 -38 -31 0 -32 11 -5 155 11 60 20 121 20 137 0 23 4 28 25 28 16 0 25
-6 25 -15z m841 -24 c23 -29 23 -41 -7 -203 -15 -82 -18 -88 -40 -88 -29 0
-29 4 -7 135 20 119 16 138 -28 133 -59 -6 -98 -79 -124 -230 -5 -32 -10 -38
-30 -38 -31 0 -31 4 -5 146 11 60 20 124 20 142 0 28 3 32 26 32 18 0 28 -6
31 -20 5 -19 7 -20 23 -5 43 39 109 37 141 -4z m314 19 c4 -6 -5 -82 -20 -168
-41 -236 -71 -277 -200 -277 -81 0 -90 4 -80 33 5 18 12 20 59 15 83 -9 124
19 141 96 l7 33 -31 -23 c-41 -30 -94 -30 -124 -1 -18 19 -22 34 -22 90 0 128
80 212 202 212 34 0 65 -5 68 -10z m-615 -3 c0 -15 -52 -292 -56 -298 -3 -5
-14 -9 -25 -9 -13 0 -19 7 -19 23 0 20 22 157 36 220 4 20 2 27 -10 27 -9 0
-16 8 -16 20 0 17 7 20 45 20 25 0 45 -1 45 -3z m1355 -691 c291 -99 491 -349
531 -662 6 -50 8 -52 48 -64 97 -29 202 -111 253 -198 82 -139 82 -315 0 -454
-31 -54 -120 -139 -173 -166 -176 -89 -387 -58 -517 76 l-39 40 -57 -23 c-191
-78 -427 -70 -616 20 -296 141 -478 470 -435 786 44 326 262 573 580 659 62
16 99 19 210 17 116 -3 147 -7 215 -31z m2313 -1572 c175 -36 318 -67 320 -69
3 -2 -55 -90 -77 -117 -5 -6 -389 69 -548 107 -21 5 -23 11 -23 75 0 39 3 70
6 70 3 0 148 -30 322 -66z m-5498 -134 c-8 -5 -22 -10 -30 -10 -13 0 -13 1 0
10 8 5 22 10 30 10 13 0 13 -1 0 -10z m18 -66 c13 -9 22 -17 20 -19 -1 -2 -70
-13 -153 -24 -82 -12 -161 -24 -175 -28 -15 -3 -22 -2 -17 3 5 5 63 28 130 51
125 43 151 45 195 17z m5362 16 c0 -5 -9 -10 -20 -10 -11 0 -20 5 -20 10 0 6
9 10 20 10 11 0 20 -4 20 -10z m200 -27 c0 -3 -11 -3 -25 -1 -14 3 -30 -1 -36
-8 -9 -11 -8 -14 4 -14 8 0 23 -3 33 -7 11 -4 15 -3 11 4 -4 6 5 13 21 16 15
3 30 1 33 -5 4 -6 12 -7 18 -3 7 4 23 4 37 1 21 -6 22 -9 12 -26 -13 -21 -48
-28 -48 -9 0 6 -9 8 -21 4 -12 -4 -19 -3 -16 1 3 5 -18 10 -45 11 -60 2 -67 7
-44 32 15 16 66 19 66 4z m-252 -45 c-3 -7 -11 -13 -18 -13 -7 0 -15 6 -17 13
-3 7 4 12 17 12 13 0 20 -5 18 -12z m-5243 -27 c-8 -14 -104 -49 -213 -78
-115 -30 -161 -26 -202 21 -34 37 -26 53 28 59 82 8 393 7 387 -2z m5481 -14
c16 6 18 -5 5 -26 -6 -9 -11 -10 -15 -3 -4 6 -13 9 -21 5 -17 -6 -18 -2 -9 22
4 11 10 13 17 6 5 -5 16 -7 23 -4z m-296 -32 c0 -8 -9 -15 -20 -15 -13 0 -18
5 -14 15 4 8 12 15 20 15 8 0 14 -7 14 -15z m255 -55 c3 -6 -5 -10 -19 -10
-14 0 -28 5 -31 10 -3 6 5 10 19 10 14 0 28 -4 31 -10z m-300 -20 c4 -6 -5
-10 -19 -10 -14 0 -26 5 -26 10 0 6 9 10 19 10 11 0 23 -4 26 -10z m255 -64
c0 -9 -45 -3 -59 8 -11 9 -9 12 10 16 21 5 49 -8 49 -24z"/>
<path d="M2945 5932 c-26 -5 -54 -30 -71 -64 -17 -32 -12 -34 51 -17 44 12 75
35 75 55 0 17 -30 32 -55 26z"/>
<path d="M3187 5900 c-69 -60 -77 -200 -10 -200 40 0 91 90 109 193 l6 37 -36
0 c-25 0 -45 -9 -69 -30z"/>
<path d="M4491 5906 c-81 -45 -99 -229 -21 -209 46 12 88 86 105 186 7 37 7
37 -26 37 -19 -1 -45 -7 -58 -14z"/>
<path d="M5039 5213 c-1 -5 0 -133 1 -285 l2 -278 -290 0 -290 0 -6 -22 c-7
-30 -8 -156 0 -185 l6 -23 287 -2 286 -3 3 -282 2 -282 45 -7 c25 -3 70 -3
100 1 l55 6 0 285 0 284 129 0 c129 0 130 0 162 29 65 60 188 111 268 111 32
0 33 1 27 31 -3 17 -6 38 -6 45 0 12 -51 14 -290 14 l-290 0 0 285 0 285 -100
0 c-55 0 -100 -3 -101 -7z"/>
<path d="M4925 5185 c-69 -20 -177 -83 -239 -138 l-59 -53 168 -107 c92 -59
169 -106 171 -104 3 2 3 96 2 209 l-3 205 -40 -12z m31 -382 c-2 -3 -73 39
-156 93 l-152 97 41 41 41 41 113 5 112 5 3 -139 c1 -76 1 -141 -2 -143z"/>
<path d="M5310 4993 l0 -205 28 18 c15 10 88 56 162 102 74 47 137 87 140 89
3 3 -19 27 -49 53 -54 48 -156 105 -239 134 l-42 15 0 -206z m128 142 l72 -34
0 -88 -1 -88 -56 -35 c-32 -19 -74 -45 -95 -58 l-38 -23 0 186 0 186 23 -6
c12 -4 55 -22 95 -40z"/>
<path d="M5482 4842 l-184 -117 65 -3 65 -3 139 87 c76 48 142 90 146 94 8 7
-29 60 -41 60 -4 0 -90 -53 -190 -118z"/>
<path d="M4536 4869 c-9 -15 -16 -30 -16 -33 0 -4 38 -31 85 -62 83 -54 85
-55 150 -52 l66 3 -134 86 -134 86 -17 -28z"/>
<path d="M5706 4757 l-50 -32 68 -3 c38 -2 70 -1 72 1 8 8 -18 67 -29 66 -7 0
-34 -15 -61 -32z"/>
<path d="M4490 4754 c-6 -14 -10 -26 -10 -27 0 -1 25 -2 55 -2 30 0 55 1 55 1
0 3 -80 54 -85 54 -3 0 -10 -12 -15 -26z m50 -9 c0 -3 -9 -5 -20 -5 -11 0 -20
7 -20 15 0 13 4 14 20 5 11 -6 20 -13 20 -15z"/>
<path d="M5740 4487 c-179 -51 -299 -205 -300 -384 l0 -43 390 0 390 0 0 45 0
45 -220 0 -220 0 0 50 0 50 205 0 c113 0 205 3 205 8 0 4 -9 22 -20 40 l-20
32 -185 0 -185 0 0 50 0 50 131 0 c78 0 128 4 124 9 -11 19 -122 53 -185 57
-36 2 -85 -2 -110 -9z"/>
<path d="M4492 4306 l11 -35 46 31 c25 17 48 33 50 35 2 1 -23 3 -56 3 l-61 0
10 -34z m48 5 c-26 -21 -40 -19 -40 5 0 9 11 14 33 14 l32 0 -25 -19z"/>
<path d="M4701 4255 c-73 -46 -135 -86 -138 -89 -6 -6 27 -56 38 -56 5 0 91
52 191 115 l181 115 -69 0 -70 0 -133 -85z"/>
<path d="M4799 4173 l-166 -106 60 -54 c58 -52 188 -123 250 -137 l27 -6 0
205 c0 113 -1 205 -2 205 -2 0 -78 -48 -169 -107z m161 -102 l0 -190 -61 21
c-63 21 -187 98 -227 140 l-22 25 152 96 c84 53 154 97 156 97 1 0 2 -85 2
-189z"/>
<path d="M5308 4069 c2 -164 5 -200 16 -196 8 3 32 11 55 18 23 7 41 16 41 20
0 4 -22 -1 -50 -12 l-50 -19 0 185 0 184 35 -20 c19 -12 35 -19 35 -16 0 4
-76 57 -82 57 -2 0 -2 -90 0 -201z"/>
<path d="M5491 3920 l23 -40 316 0 316 0 23 40 22 40 -361 0 -361 0 22 -40z"/>
<path d="M5645 3771 c3 -5 29 -18 58 -28 91 -31 281 -15 295 25 3 9 -44 12
-178 12 -108 0 -179 -4 -175 -9z"/>
<path d="M7833 3448 c2 -7 10 -13 17 -13 7 0 15 6 18 13 2 7 -5 12 -18 12 -13
0 -20 -5 -17 -12z"/>
<path d="M1855 3370 c10 -11 20 -20 23 -20 3 0 -3 9 -13 20 -10 11 -20 20 -23
20 -3 0 3 -9 13 -20z"/>
<path d="M7995 5915 c-18 -68 -16 -91 10 -101 26 -11 52 24 69 93 9 36 15 67
13 69 -2 3 -12 -26 -22 -63 -21 -83 -38 -105 -61 -82 -14 15 -14 22 1 79 9 34
14 64 12 66 -2 2 -12 -25 -22 -61z"/>
<path d="M8218 5873 c-57 -49 -98 -92 -98 -102 0 -21 24 -45 39 -39 17 5 211
172 206 176 -2 2 -49 -35 -103 -82 -98 -85 -132 -99 -132 -57 0 13 101 109
178 168 8 7 14 15 11 17 -2 2 -48 -34 -101 -81z"/>
<path d="M5615 5756 c-43 -19 -74 -57 -90 -110 l-14 -46 172 0 172 0 -3 85 -3
85 -102 0 c-63 -1 -114 -6 -132 -14z"/>
<path d="M7240 5664 c-8 -8 -15 -27 -16 -42 -1 -15 -15 -102 -31 -195 -30
-181 -29 -191 21 -215 19 -9 35 -11 54 -4 25 8 24 9 -14 8 -23 0 -49 6 -59 14
-21 17 -18 44 23 280 26 146 28 154 52 161 22 6 23 7 4 8 -12 1 -27 -6 -34
-15z"/>
<path d="M7793 5668 c-6 -7 -13 -38 -17 -68 -4 -30 -19 -126 -35 -213 -15 -86
-24 -154 -20 -150 8 9 69 357 69 396 0 26 29 45 50 32 12 -8 13 -67 1 -117
l-9 -37 29 14 c32 17 82 19 108 5 37 -19 43 -59 26 -161 -26 -157 -23 -149
-56 -149 -34 0 -33 -4 -14 97 8 43 15 97 15 121 0 40 -2 42 -29 42 -43 0 -60
-9 -77 -42 -15 -30 -45 -165 -43 -196 1 -10 10 26 20 78 21 109 42 144 87 148
30 3 32 1 32 -30 0 -18 -7 -73 -15 -121 -9 -48 -13 -92 -10 -97 8 -13 62 -13
70 -1 13 22 45 228 40 258 -3 18 -18 42 -33 54 -22 17 -36 20 -78 16 l-50 -5
4 54 c5 58 -7 84 -38 84 -10 0 -22 -6 -27 -12z"/>
<path d="M6383 5663 c31 -2 83 -2 115 0 31 2 5 3 -58 3 -63 0 -89 -1 -57 -3z"/>
<path d="M7400 5662 c0 -5 14 -7 30 -4 17 2 30 6 30 8 0 2 -13 4 -30 4 -16 0
-30 -4 -30 -8z"/>
<path d="M8296 5659 c-49 -5 -95 -14 -102 -20 -36 -30 2 -75 54 -65 15 3 53 6
85 8 32 1 60 6 64 11 3 5 -13 6 -38 3 -103 -13 -151 -12 -162 6 -19 28 2 37
101 44 51 4 92 11 92 15 0 5 -1 8 -2 8 -2 -1 -43 -6 -92 -10z"/>
<path d="M7277 5495 c-16 -94 -31 -182 -34 -197 -5 -25 -2 -28 21 -28 18 0 30
-7 36 -22 5 -14 9 -17 9 -7 1 20 -19 39 -42 39 -15 0 -18 5 -13 28 26 123 57
316 54 334 -2 13 -16 -54 -31 -147z"/>
<path d="M6306 5623 c-25 -122 -66 -388 -62 -399 4 -11 32 -14 126 -14 120 0
121 0 130 26 13 32 12 37 0 29 -5 -3 -10 -15 -10 -26 0 -18 -8 -19 -120 -19
-91 0 -120 3 -120 13 0 7 16 102 35 211 20 109 34 201 31 203 -2 2 -7 -8 -10
-24z"/>
<path d="M6555 5628 c-7 -28 -8 -28 -94 -28 l-87 0 -10 -60 -10 -60 69 0 68 0
-3 -27 c-3 -27 -5 -28 -74 -31 l-72 -3 -7 -47 c-3 -26 -9 -57 -12 -69 -5 -23
-4 -23 83 -21 l89 2 -81 3 -80 4 9 59 10 60 62 0 c68 0 89 13 83 52 -3 21 -9
23 -67 26 l-63 3 6 31 c3 17 6 37 6 44 0 11 19 14 80 14 74 0 81 2 96 25 9 13
14 30 11 37 -2 7 -8 1 -12 -14z"/>
<path d="M7382 5620 c0 -19 2 -27 5 -17 2 9 2 25 0 35 -3 9 -5 1 -5 -18z"/>
<path d="M7467 5636 c-4 -10 -7 -25 -6 -34 0 -11 4 -9 10 7 5 13 8 29 6 35 -2
5 -6 2 -10 -8z"/>
<path d="M7403 5573 c9 -2 25 -2 35 0 9 3 1 5 -18 5 -19 0 -27 -2 -17 -5z"/>
<path d="M6603 5543 c9 -2 23 -2 30 0 6 3 -1 5 -18 5 -16 0 -22 -2 -12 -5z"/>
<path d="M6684 5535 c-12 -8 -24 -11 -28 -8 -3 3 -6 -1 -6 -10 0 -15 4 -15 33
3 57 35 115 23 136 -28 10 -23 9 -48 -4 -123 -26 -157 -23 -149 -56 -149 -34
0 -33 -4 -14 97 8 43 15 97 15 121 0 40 -1 42 -30 42 -56 0 -102 -81 -114
-205 -4 -37 -1 -29 12 30 26 116 56 165 99 165 29 0 30 -25 8 -153 -9 -48 -13
-92 -10 -97 8 -13 62 -13 70 0 13 21 45 236 39 262 -12 58 -100 89 -150 53z"/>
<path d="M6985 5536 c-116 -51 -173 -240 -95 -311 22 -20 81 -26 113 -11 26
12 21 -11 -8 -40 -23 -23 -33 -25 -83 -23 -31 2 -63 0 -69 -4 -20 -12 -15 -55
6 -67 47 -25 158 -4 204 38 34 31 46 68 78 238 29 160 30 169 13 181 -23 17
-120 16 -159 -1z m153 -4 c16 -11 -37 -315 -65 -370 -32 -63 -129 -97 -211
-76 -18 5 -22 13 -20 33 3 25 5 26 65 23 85 -5 110 11 127 80 l6 26 -38 -20
c-93 -52 -163 34 -127 157 28 99 98 154 195 154 30 1 61 -3 68 -7z"/>
<path d="M7011 5472 c-56 -28 -76 -64 -76 -135 0 -59 1 -62 26 -65 49 -6 94
66 115 181 5 32 4 37 -12 37 -11 0 -34 -8 -53 -18z m59 0 c0 -4 -7 -34 -15
-67 -20 -73 -58 -127 -88 -123 -20 3 -22 9 -22 58 0 67 30 115 78 129 42 12
47 12 47 3z"/>
<path d="M7357 5532 c-21 -23 -22 -48 -1 -60 14 -8 14 -20 -5 -126 -12 -64
-19 -121 -16 -127 4 -5 20 -9 36 -9 21 0 32 6 39 23 12 30 53 273 48 287 -2 7
-14 -50 -27 -127 -30 -181 -27 -173 -62 -173 -34 0 -34 -17 0 168 17 89 17 92
-1 92 -11 0 -18 7 -18 19 0 24 18 36 47 33 12 -2 30 1 40 7 15 8 10 10 -23 11
-27 0 -46 -6 -57 -18z"/>
<path d="M7543 5530 c-37 -22 -53 -48 -53 -87 1 -37 25 -66 78 -92 28 -14 42
-28 42 -41 0 -24 -29 -33 -95 -28 -36 2 -50 -1 -59 -14 -17 -27 4 -51 52 -62
57 -12 107 0 147 35 67 59 52 130 -35 174 -28 14 -50 30 -50 35 0 19 47 30 82
19 28 -8 35 -6 51 12 22 28 22 35 -5 53 -32 23 -115 21 -155 -4z m141 0 c29
-11 32 -19 14 -43 -11 -14 -19 -15 -49 -7 -47 13 -89 -1 -89 -29 0 -15 15 -28
54 -46 64 -30 80 -61 62 -114 -18 -54 -56 -76 -131 -76 -70 0 -91 12 -80 44 6
19 11 20 59 15 64 -8 96 6 96 42 0 20 -8 28 -37 40 -75 31 -102 81 -73 134 23
43 113 64 174 40z"/>
<path d="M6559 5379 c-14 -82 -23 -149 -19 -149 7 0 55 288 49 294 -2 3 -16
-62 -30 -145z"/>
<path d="M6563 5213 c9 -2 23 -2 30 0 6 3 -1 5 -18 5 -16 0 -22 -2 -12 -5z"/>
<path d="M7743 5213 c9 -2 23 -2 30 0 6 3 -1 5 -18 5 -16 0 -22 -2 -12 -5z"/>
<path d="M7663 4813 l-283 -3 0 -80 0 -80 222 0 c204 0 225 2 264 21 24 11 52
35 64 53 22 36 38 97 24 94 -5 -2 -136 -4 -291 -5z"/>
<path d="M2720 3891 c0 -11 45 -41 61 -41 7 0 2 11 -11 25 -23 25 -50 33 -50
16z"/>
<path d="M2640 3874 c0 -12 35 -33 54 -34 18 0 18 1 1 20 -17 19 -55 28 -55
14z"/>
<path d="M2560 3853 c0 -9 48 -33 64 -33 5 0 1 9 -9 20 -17 19 -55 28 -55 13z"/>
<path d="M2486 3841 c-6 -10 36 -41 55 -41 7 0 2 11 -11 25 -25 27 -35 30 -44
16z"/>
<path d="M2400 3821 c0 -11 45 -41 61 -41 7 0 2 11 -11 25 -23 25 -50 33 -50
16z"/>
<path d="M2320 3803 c0 -5 12 -16 25 -26 33 -24 53 -12 24 14 -22 19 -49 26
-49 12z"/>
<path d="M2240 3784 c0 -12 34 -33 52 -34 17 0 17 1 1 20 -16 19 -53 28 -53
14z"/>
<path d="M2160 3764 c0 -12 34 -33 52 -34 17 0 17 1 1 20 -16 19 -53 28 -53
14z"/>
<path d="M2086 3751 c-6 -10 36 -41 55 -41 7 0 2 11 -11 25 -25 27 -35 30 -44
16z"/>
<path d="M2002 3729 c5 -16 56 -44 64 -36 9 9 -34 47 -53 47 -8 0 -13 -5 -11
-11z"/>
<path d="M1920 3714 c0 -12 35 -33 54 -34 17 0 17 2 -4 20 -22 19 -50 27 -50
14z"/>
<path d="M1840 3694 c0 -11 34 -33 49 -34 11 0 10 5 -4 20 -17 19 -45 27 -45
14z"/>
<path d="M1762 3681 c-10 -6 -6 -12 13 -25 36 -24 52 -16 23 11 -15 14 -28 19
-36 14z"/>
<path d="M1676 3661 c-6 -10 36 -41 55 -41 7 0 2 11 -11 25 -25 27 -35 30 -44
16z"/>
<path d="M5578 3463 l-3 -28 -899 -5 c-825 -5 -900 -6 -909 -22 -8 -12 -7 -21
2 -32 12 -14 104 -16 912 -16 l899 0 0 -25 c0 -21 5 -25 30 -25 25 0 30 4 30
24 0 21 6 25 33 28 28 3 32 7 35 36 3 31 2 32 -32 32 -30 0 -35 3 -38 28 -2
21 -9 28 -30 30 -23 3 -27 -1 -30 -25z"/>
<path d="M3550 3400 c0 -38 3 -70 6 -70 10 0 94 61 94 68 0 4 -23 22 -50 40
l-50 32 0 -70z"/>
<path d="M6690 3410 c0 -53 2 -60 20 -60 18 0 20 7 20 60 0 53 -2 60 -20 60
-18 0 -20 -7 -20 -60z"/>
<path d="M6640 3390 c0 -33 3 -40 20 -40 17 0 20 7 20 40 0 33 -3 40 -20 40
-17 0 -20 -7 -20 -40z"/>
<path d="M6587 3403 c-4 -3 -7 -17 -7 -30 0 -16 6 -23 20 -23 16 0 20 7 20 30
0 28 -17 40 -33 23z"/>
<path d="M1370 3320 c0 -5 7 -10 16 -10 8 0 12 5 9 10 -3 6 -10 10 -16 10 -5
0 -9 -4 -9 -10z"/>
<path d="M1430 3310 c0 -5 9 -10 20 -10 11 0 20 5 20 10 0 6 -9 10 -20 10 -11
0 -20 -4 -20 -10z"/>
<path d="M1480 3310 c0 -5 11 -10 25 -10 14 0 25 5 25 10 0 6 -11 10 -25 10
-14 0 -25 -4 -25 -10z"/>
<path d="M1540 3300 c0 -5 5 -10 10 -10 6 0 10 5 10 10 0 6 -4 10 -10 10 -5 0
-10 -4 -10 -10z"/>
<path d="M1090 3280 c-99 -10 -151 -42 -194 -117 -9 -17 46 -39 159 -65 70
-17 125 -21 250 -22 155 0 214 7 333 40 50 14 52 16 52 49 0 54 -50 102 -119
115 -59 11 -378 11 -481 0z"/>
<path d="M1888 3263 c7 -3 16 -2 19 1 4 3 -2 6 -13 5 -11 0 -14 -3 -6 -6z"/>
<path d="M9560 2975 c-14 -8 -20 -14 -15 -14 6 0 21 6 35 14 14 8 21 14 15 14
-5 0 -21 -6 -35 -14z"/>
<path d="M7380 2951 c0 -5 150 -83 333 -174 182 -90 373 -189 424 -220 73 -44
94 -53 102 -43 9 10 -3 19 -51 40 -35 15 -228 112 -429 217 -202 104 -369 189
-373 189 -3 0 -6 -4 -6 -9z"/>
<path d="M9295 2865 c-121 -52 -242 -104 -268 -115 l-48 -22 -104 33 c-88 27
-109 30 -130 21 -25 -12 -25 -12 -8 -39 l18 -27 -32 19 c-27 16 -34 17 -48 5
-16 -13 -15 -16 5 -32 22 -18 22 -18 2 -18 -12 0 -25 7 -30 16 -9 15 -11 15
-31 2 l-22 -16 21 -15 c15 -11 18 -16 8 -20 -7 -2 -21 2 -30 10 -13 12 -21 12
-39 2 l-23 -12 23 -18 c21 -17 22 -19 4 -19 -10 0 -24 5 -30 11 -8 8 -17 7
-34 -2 l-24 -12 29 -12 c26 -11 27 -12 8 -17 -12 -3 -26 0 -32 7 -9 11 -17 11
-36 3 -19 -9 -21 -14 -12 -25 15 -18 2 -29 -16 -14 -20 17 -60 -7 -44 -26 15
-18 2 -29 -16 -14 -20 16 -64 -5 -47 -22 19 -19 12 -31 -7 -14 -22 20 -36 21
-51 4 -8 -10 -7 -17 1 -25 15 -15 3 -42 -19 -41 -17 0 -17 1 0 8 17 6 17 8 3
20 -8 7 -24 10 -36 6 -22 -7 -26 -20 -10 -30 18 -11 11 -31 -12 -32 -17 -2
-19 0 -8 7 21 13 5 23 -25 16 -24 -6 -25 -7 -9 -31 19 -29 0 -37 -21 -9 -10
14 -15 14 -34 4 -21 -11 -21 -13 -7 -29 20 -22 20 -31 2 -31 -8 0 -16 7 -20
15 -7 18 -28 19 -44 3 -9 -9 -8 -16 5 -30 9 -10 13 -21 9 -26 -4 -4 -14 1 -21
12 -10 13 -21 17 -39 12 -15 -3 -26 -11 -26 -16 0 -6 -7 -10 -15 -10 -8 0 -15
-6 -15 -14 0 -8 33 -24 88 -41 48 -15 261 -83 474 -151 l388 -124 417 256
c230 141 424 263 432 270 20 18 16 19 -381 145 -180 57 -324 107 -320 110 4 3
108 47 232 99 124 51 241 101 260 111 77 40 4 13 -205 -76z m-932 -372 c-7 -2
-19 -2 -25 0 -7 3 -2 5 12 5 14 0 19 -2 13 -5z m-66 -29 c-3 -3 -12 -4 -19 -1
-8 3 -5 6 6 6 11 1 17 -2 13 -5z"/>
<path d="M7347 2671 c14 -13 34 -75 67 -212 27 -107 93 -375 147 -595 77 -313
99 -417 99 -470 0 -38 -4 -74 -8 -81 -4 -7 -24 -19 -45 -28 -32 -13 -305 -15
-2497 -15 -2190 0 -2465 2 -2497 15 l-37 16 39 -35 c22 -19 70 -51 107 -71
l66 -35 2481 0 c2631 0 2528 -2 2543 42 3 7 -59 258 -137 558 -78 300 -145
557 -149 573 l-6 27 93 0 c160 0 159 3 -46 166 -97 76 -190 145 -208 151 -32
12 -32 12 -12 -6z"/>
<path d="M2130 2514 c-133 -137 -451 -225 -815 -225 -276 0 -489 42 -667 130
-105 52 -113 50 -78 -18 104 -204 699 -317 1163 -221 222 45 385 129 433 221
15 29 18 101 6 132 -7 15 -12 13 -42 -19z"/>
<path d="M3153 2533 c-26 -5 -38 -19 -47 -55 -5 -21 -2 -30 13 -38 24 -12 181
-13 214 -1 27 11 45 67 27 85 -11 11 -167 18 -207 9z"/>
<path d="M3470 2531 c-32 -9 -53 -76 -29 -92 8 -5 63 -8 122 -7 118 3 127 8
127 64 0 27 -4 32 -31 38 -40 8 -156 6 -189 -3z"/>
<path d="M3790 2531 c-19 -5 -26 -16 -31 -44 -8 -50 6 -57 123 -57 107 0 125
8 130 59 3 30 -1 36 -22 42 -32 9 -167 9 -200 0z"/>
<path d="M4110 2527 c-19 -9 -26 -22 -28 -49 -3 -35 -1 -37 32 -43 19 -4 74
-5 121 -4 93 4 105 11 105 62 0 20 -7 30 -26 37 -36 14 -174 12 -204 -3z"/>
<path d="M4440 2531 c-19 -5 -26 -16 -31 -44 -8 -50 6 -57 121 -57 113 0 130
8 130 59 0 35 -3 39 -31 45 -40 8 -156 6 -189 -3z"/>
<path d="M4760 2531 c-19 -5 -26 -14 -28 -41 -5 -51 15 -60 128 -60 113 0 133
9 128 60 -4 42 -21 48 -128 48 -41 0 -86 -3 -100 -7z"/>
<path d="M5083 2533 c-20 -4 -23 -11 -23 -48 0 -51 8 -55 125 -55 118 0 127 4
123 53 -2 34 -7 42 -28 48 -27 8 -161 9 -197 2z"/>
<path d="M5410 2531 c-19 -5 -26 -14 -28 -41 -5 -51 15 -60 128 -60 116 0 135
9 125 62 -6 30 -12 37 -37 42 -39 8 -156 6 -188 -3z"/>
<path d="M5730 2531 c-22 -6 -25 -12 -22 -47 2 -21 6 -41 9 -44 8 -8 171 -13
209 -5 34 6 35 7 32 48 -2 34 -7 42 -28 48 -33 9 -168 9 -200 0z"/>
<path d="M6053 2533 c-19 -4 -23 -11 -23 -43 0 -52 17 -60 132 -60 114 0 134
10 121 60 -6 24 -17 36 -34 41 -26 8 -161 9 -196 2z"/>
<path d="M6371 2530 c-20 -9 -23 -15 -17 -43 3 -17 14 -38 23 -44 17 -13 187
-18 217 -7 18 7 22 59 7 83 -11 17 -194 26 -230 11z"/>
<path d="M6700 2531 c-21 -6 -25 -12 -22 -42 2 -19 8 -38 13 -44 6 -6 95 -11
212 -13 230 -3 241 -1 229 58 -6 28 -14 36 -37 41 -41 9 -364 9 -395 0z"/>
<path d="M3109 2403 c-19 -5 -42 -80 -28 -88 14 -10 432 -6 441 3 17 17 26 70
15 81 -11 11 -390 14 -428 4z"/>
<path d="M3626 2394 c-9 -8 -16 -31 -16 -50 0 -28 4 -34 23 -35 158 -3 212 1
224 17 18 25 16 71 -3 78 -9 3 -60 6 -114 6 -76 0 -102 -4 -114 -16z"/>
<path d="M3958 2399 c-12 -7 -18 -22 -18 -49 0 -35 3 -40 23 -41 158 -3 212 1
224 17 18 25 16 71 -3 78 -26 10 -208 6 -226 -5z"/>
<path d="M4282 2398 c-7 -7 -12 -29 -12 -49 l0 -38 98 -3 c147 -5 149 -4 157
44 5 29 3 43 -6 49 -22 14 -223 11 -237 -3z"/>
<path d="M4613 2403 c-8 -3 -13 -23 -13 -48 l0 -44 98 -3 c144 -5 148 -4 155
39 10 58 -1 63 -122 62 -58 0 -112 -3 -118 -6z"/>
<path d="M4943 2403 c-8 -3 -13 -23 -13 -49 0 -50 -13 -45 125 -45 134 0 122
-4 127 42 3 31 0 43 -14 50 -17 9 -203 11 -225 2z"/>
<path d="M5273 2403 c-8 -3 -13 -23 -13 -48 0 -52 0 -52 153 -47 l97 3 0 44
c0 30 -5 45 -16 49 -19 7 -203 7 -221 -1z"/>
<path d="M5591 2396 c-12 -14 -5 -73 10 -82 7 -4 124 -7 217 -5 19 1 22 6 22
45 0 31 -5 46 -16 50 -9 3 -62 6 -119 6 -74 0 -106 -4 -114 -14z"/>
<path d="M5922 2401 c-15 -9 -7 -77 9 -87 7 -4 123 -7 217 -5 19 1 22 6 22 39
0 21 -5 43 -12 50 -14 14 -215 17 -236 3z"/>
<path d="M6251 2401 c-15 -10 -8 -76 10 -86 12 -8 225 -9 237 -1 13 8 2 70
-16 84 -18 14 -209 17 -231 3z"/>
<path d="M6581 2401 c-15 -10 -8 -76 10 -86 12 -8 225 -9 237 -1 13 8 2 70
-16 84 -18 14 -209 17 -231 3z"/>
<path d="M6907 2403 c-12 -11 -8 -58 6 -77 11 -15 29 -17 125 -17 61 0 116 2
121 5 12 8 -4 77 -21 87 -15 10 -222 12 -231 2z"/>
<path d="M9693 2340 c-34 -20 -47 -38 -15 -21 23 13 58 40 52 41 -3 0 -20 -9
-37 -20z"/>
<path d="M3079 2273 c-21 -5 -41 -77 -26 -92 17 -17 578 -15 599 2 20 16 30
71 15 86 -8 8 -93 11 -291 10 -155 -1 -288 -3 -297 -6z"/>
<path d="M3768 2268 c-20 -17 -30 -72 -15 -87 13 -13 215 -15 235 -3 20 13 28
82 11 93 -22 14 -213 11 -231 -3z"/>
<path d="M4098 2269 c-24 -13 -25 -84 -2 -93 26 -10 204 -7 225 4 25 14 27 85
3 94 -26 10 -208 6 -226 -5z"/>
<path d="M4433 2272 c-6 -4 -14 -24 -18 -44 -6 -30 -4 -38 13 -47 23 -12 211
-15 228 -3 6 4 14 24 17 44 5 31 2 40 -13 48 -21 11 -209 13 -227 2z"/>
<path d="M4768 2273 c-24 -6 -26 -88 -2 -97 26 -10 204 -7 225 4 13 7 19 21
19 45 0 24 -6 38 -19 45 -19 10 -188 12 -223 3z"/>
<path d="M5098 2269 c-25 -14 -24 -75 1 -89 21 -11 199 -14 225 -4 22 9 22 89
0 98 -26 10 -208 6 -226 -5z"/>
<path d="M5430 2270 c-17 -11 -15 -81 3 -92 19 -12 206 -9 229 3 17 9 19 17
13 47 -4 20 -12 40 -18 44 -17 11 -209 9 -227 -2z"/>
<path d="M5763 2273 c-21 -8 -16 -81 6 -93 21 -11 199 -14 225 -4 24 9 22 80
-3 94 -20 10 -205 13 -228 3z"/>
<path d="M6091 2271 c-17 -11 -9 -80 11 -93 19 -11 206 -10 228 2 15 8 18 17
13 43 -3 17 -13 38 -21 45 -18 14 -209 17 -231 3z"/>
<path d="M6428 2270 c-21 -13 -14 -68 10 -87 18 -15 209 -18 231 -4 10 6 12
20 8 46 -3 21 -9 40 -12 44 -11 11 -219 12 -237 1z"/>
<path d="M6763 2273 c-18 -7 -16 -69 3 -87 13 -13 46 -16 207 -16 106 0 198 4
206 9 19 12 6 78 -19 91 -19 10 -373 13 -397 3z"/>
<path d="M7911 2186 c-9 -11 -8 -17 8 -28 12 -8 18 -17 15 -20 -5 -6 59 -27
658 -218 l287 -92 241 149 c160 98 234 149 221 151 -12 2 -109 -52 -243 -134
-122 -76 -234 -139 -248 -141 l-25 -3 25 9 c14 4 125 69 247 144 149 93 231
137 250 137 16 0 45 8 64 18 l36 18 -51 12 -50 12 -225 -138 c-124 -76 -236
-145 -247 -152 -19 -12 -62 -1 -380 100 -198 62 -361 114 -364 117 -2 2 2 8
10 13 19 12 16 13 -57 35 -49 14 -65 15 -77 6 -15 -13 -66 -5 -66 10 0 14 -16
11 -29 -5z m174 -36 c7 -12 -2 -12 -30 0 -19 8 -19 9 2 9 12 1 25 -3 28 -9z
m-45 -35 c19 -7 28 -13 20 -13 -8 0 -31 6 -50 13 -19 7 -28 13 -20 13 8 0 31
-6 50 -13z m250 -80 c19 -7 28 -13 20 -13 -8 0 -31 6 -50 13 -19 7 -28 13 -20
13 8 0 31 -6 50 -13z m220 -70 c19 -7 28 -13 20 -13 -8 0 -31 6 -50 13 -19 7
-28 13 -20 13 8 0 31 -6 50 -13z m235 -75 c28 -10 43 -18 35 -18 -8 0 -37 8
-65 18 -27 10 -43 18 -35 18 8 0 38 -8 65 -18z"/>
<path d="M9703 2137 c-25 -11 -27 -15 -14 -36 7 -11 -5 -21 -55 -44 -58 -27
-81 -47 -54 -47 20 0 180 85 180 96 0 6 -8 18 -17 26 -14 12 -23 13 -40 5z"/>
<path d="M3032 2123 c-16 -32 -22 -72 -12 -78 15 -10 241 -8 251 2 4 4 9 26
11 48 l3 40 -122 3 c-109 2 -123 1 -131 -15z"/>
<path d="M3373 2128 c-15 -20 -24 -76 -12 -83 15 -10 240 -8 249 2 5 4 10 26
12 48 l3 40 -121 3 c-89 2 -124 -1 -131 -10z"/>
<path d="M3707 2133 c-12 -21 -17 -82 -7 -88 14 -8 236 -8 250 0 5 3 10 26 10
51 l0 44 -124 0 c-69 0 -127 -3 -129 -7z"/>
<path d="M4036 2093 c-3 -25 -4 -48 -3 -50 3 -2 1071 -5 1470 -3 14 0 17 9 17
50 l0 50 -739 0 -738 0 -7 -47z"/>
<path d="M5607 2134 c-11 -11 -8 -82 3 -89 5 -3 52 -6 102 -6 167 0 150 -6
146 49 l-3 47 -121 3 c-66 1 -123 -1 -127 -4z"/>
<path d="M5936 2132 c-7 -12 5 -81 15 -88 5 -3 51 -5 101 -5 163 0 148 -4 148
39 0 21 -5 43 -12 50 -14 14 -244 17 -252 4z"/>
<path d="M6613 2124 c-3 -8 -1 -29 4 -47 l9 -32 99 -5 c138 -7 155 -4 155 25
0 13 -4 35 -10 49 -9 26 -10 26 -130 26 -100 0 -122 -3 -127 -16z"/>
<path d="M9775 2100 c3 -5 2 -10 -2 -10 -5 0 -18 -7 -29 -15 -16 -14 -15 -14
14 0 18 9 30 20 27 25 -4 6 -8 10 -11 10 -3 0 -2 -4 1 -10z"/>
<path d="M6282 2064 l3 -27 125 1 c69 1 128 2 131 2 3 0 4 11 1 25 l-4 25
-130 0 -129 0 3 -26z"/>
<path d="M6951 2083 c0 -5 4 -16 8 -27 6 -17 19 -18 135 -18 71 1 130 2 131 4
1 2 -1 13 -6 26 -8 21 -13 22 -139 22 -71 0 -130 -3 -129 -7z"/>
<path d="M9620 2015 c-25 -13 -40 -24 -35 -24 6 0 30 11 55 24 25 13 41 24 35
24 -5 0 -30 -11 -55 -24z"/>
<path d="M9320 1884 c-129 -63 -300 -145 -380 -183 -80 -39 -171 -77 -203 -86
-32 -9 -57 -19 -54 -21 14 -14 157 42 379 147 139 67 311 149 383 183 71 34
125 64 120 67 -6 4 -116 -45 -245 -107z"/>
<path d="M925 1798 c-187 -88 -343 -163 -348 -167 -4 -4 162 -102 369 -219
l376 -211 350 175 c193 97 347 179 342 184 -6 6 -692 369 -744 395 -3 1 -158
-70 -345 -157z"/>
<path d="M9380 1736 c-256 -77 -247 -74 -268 -95 -9 -10 -96 -44 -192 -76 -96
-32 -232 -80 -301 -107 -110 -42 -126 -51 -122 -68 4 -14 11 -18 27 -15 11 3
75 16 141 30 291 62 1061 286 1091 318 9 9 8 20 -2 43 -13 32 -13 32 -91 32
-67 0 -107 -9 -283 -62z m125 4 c-11 -5 -27 -9 -35 -9 -9 0 -8 4 5 9 11 5 27
9 35 9 9 0 8 -4 -5 -9z m-258 -114 c-3 -7 -17 -15 -30 -18 -19 -4 -28 1 -35
17 -9 20 -7 24 21 32 34 10 54 -4 44 -31z"/>
<path d="M8645 1600 c-3 -5 1 -10 10 -10 9 0 13 5 10 10 -3 6 -8 10 -10 10 -2
0 -7 -4 -10 -10z"/>
<path d="M476 1571 c-3 -5 -4 -15 -1 -23 4 -7 221 -134 483 -282 413 -232 484
-269 528 -273 50 -5 59 -2 360 152 170 86 315 162 322 167 18 16 15 46 -7 58
-16 8 -28 5 -58 -16 -21 -14 -163 -89 -315 -165 -227 -114 -286 -139 -321
-139 -37 0 -96 30 -458 233 -228 128 -440 248 -471 265 -31 18 -59 28 -62 23z"/>
<path d="M8460 1360 c-8 -5 -10 -10 -5 -10 6 0 17 5 25 10 8 5 11 10 5 10 -5
0 -17 -5 -25 -10z"/>
</g>
</svg>
