<svg xmlns="http://www.w3.org/2000/svg" width="13.288" height="13.508" viewBox="0 0 13.288 13.508" fill="#19647e" >
    <g id="Groupe_352" transform="translate(-32.026 -160.642)">
        <g id="Groupe_275" transform="translate(35.583 157.642)">
            <g id="Groupe_277" transform="translate(0 3)">
                <path  id="Tracé_2090" d="M193.53 118.277a3.215 3.215 0 1 0 3.215 3.215 3.219 3.219 0 0 0-3.215-3.215zm0 5.684a2.468 2.468 0 1 1 2.47-2.469 2.471 2.471 0 0 1-2.47 2.469z" class="cls-1" transform="translate(-190.315 -118.277)"/>
            </g>
        </g>
        <g id="Groupe_276" transform="translate(32.026 167.795)">
            <g id="Groupe_279">
                <path id="Tracé_2091" d="M127.551 263.641H121.8a3.779 3.779 0 0 0-2.347.82.373.373 0 1 0 .466.584 2.988 2.988 0 0 1 1.882-.657h5.752a3.025 3.025 0 0 1 3.021 3.021v1.833a.007.007 0 0 1-.007.007h-1.676v-1.772a.373.373 0 1 0-.747 0v1.772h-6.851v-1.772a.373.373 0 1 0-.747 0v1.772h-1.759a.007.007 0 0 1-.007-.007v-1.833a3.023 3.023 0 0 1 .376-1.461.373.373 0 0 0-.653-.362 3.772 3.772 0 0 0-.47 1.823v1.833a.755.755 0 0 0 .754.754h11.78a.755.755 0 0 0 .754-.754v-1.833a3.772 3.772 0 0 0-3.77-3.768z" class="cls-1" transform="translate(-118.031 -263.641)"/>
            </g>
        </g>
    </g>
</svg>
