<svg xmlns="http://www.w3.org/2000/svg" xmlns:xlink="http://www.w3.org/1999/xlink" width="457.019" height="514.347" viewBox="0 0 457.019 514.347">
    <defs>
        <linearGradient id="linear-gradient" x1="-1.485" x2="1.878" y1=".508" y2=".492" gradientUnits="objectBoundingBox">
            <stop offset=".01"/>
            <stop offset=".13" stop-opacity=".69"/>
            <stop offset="1" stop-opacity="0"/>
        </linearGradient>
        <linearGradient id="linear-gradient-2" x1="1.263" x2="-.026" y1="-.004" y2=".833" xlink:href="#linear-gradient"/>
        <linearGradient id="linear-gradient-3" x1="-.785" x2="3.576" y1=".078" y2="1.628" xlink:href="#linear-gradient"/>
        <linearGradient id="linear-gradient-4" x1="0" x2="1" y1=".5" y2=".5" xlink:href="#linear-gradient"/>
        <linearGradient id="linear-gradient-5" x1="1.18" x2=".378" y1=".694" y2=".466" xlink:href="#linear-gradient"/>
        <linearGradient id="linear-gradient-6" x1="0" x2="1.002" y1=".5" y2=".5" xlink:href="#linear-gradient"/>
        <linearGradient id="linear-gradient-7" x1="-1.852" x2="2.467" y1="-.139" y2="1.022" xlink:href="#linear-gradient"/>
        <linearGradient id="linear-gradient-8" x1="2.428" x2="-1.827" y1=".28" y2=".745" xlink:href="#linear-gradient"/>
        <linearGradient id="linear-gradient-9" x1="-1.054" x2="1.795" y1=".515" y2=".486" xlink:href="#linear-gradient"/>
        <linearGradient id="linear-gradient-10" x1=".319" x2="1.064" y1=".55" y2=".312" xlink:href="#linear-gradient"/>
        <style>
            .cls-2{fill:#b08ea2}.cls-4{fill:#f5bcba}.cls-5{fill:#38525d}.cls-9{fill:#525263}.cls-11{fill:#2e2e3f}
        </style>
    </defs>
    <g id="_1585672400-notifications" transform="translate(-.02 -.016)">
        <path id="Tracé_869" fill="#83b692" d="M510.687 189.946a91.734 91.734 0 0 1-14.534 76.109c-11.689 15.91-28.353 27.807-38.73 44.562-22.43 36.171-10.39 85.564-30.963 122.827-17.2 31.171-52.822 46.484-85.9 59.627-25.976 10.312-52.211 20.69-79.746 24.846s-57.147 1.52-81.006-12.806C160.13 493.33 145.674 474.654 132.322 456 99.5 410.117 69.838 360.152 59.759 304.642s2.494-117.774 43.821-156.18c20.118-18.7 46.471-31.6 60.667-55.121 14.9-24.677 15.1-59.108 38.262-76.3 8.546-6.351 19.17-9.3 29.716-10.7a119.71 119.71 0 0 1 73.525 14.138c22.69 12.715 41.315 32.924 66.031 41.055 31.989 10.533 73.044 2.442 94.305 33.613 17.079 25.066 37.014 65.602 44.601 94.799z" opacity="0.18" transform="translate(-56.44 -5.34)"/>
        <path id="Tracé_870" d="M311.115 148.764a7.4 7.4 0 0 1-1.494 2.1 35.912 35.912 0 0 1-18.391 10.39 33.586 33.586 0 0 1-7.572.857c-1.494-9.637-3.013-19.287-4.182-28.963-.922-7.559-1.611-15.1-1.935-22.69-.221-4.754-10.52-21.326-8.416-25.768 2.325-4.883 19.066 11.832 20.95 15.014 10.455 17.534 14.209 31.093 21.378 46.172a3.819 3.819 0 0 1-.338 2.888z" class="cls-2" transform="translate(7.018 18.101)"/>
        <path id="Tracé_871" fill="url(#linear-gradient)" d="M290.472 153.359a12.293 12.293 0 0 1-1.688 1.792 33.584 33.584 0 0 1-7.572.857c-1.494-9.637-3.013-19.287-4.182-28.963q.662-11.4 2.4-22.716c-.494 3.156 3.39 10.04 4.442 13.131l4.559 13.468c2.379 7.028 7.457 15.572 2.041 22.431z" transform="translate(9.465 24.233)"/>
        <path id="Tracé_872" d="M283.5 165.555c1.039 6.338 2.364 12.754 5.494 18.365 1.61 2.883 4.013 5.715 7.273 6.221a11.234 11.234 0 0 0 5.325-.792 37.041 37.041 0 0 0 9.767-5.091 73.624 73.624 0 0 0 8.041-7.158 99.087 99.087 0 0 0 10.3-11.351c1.442-1.948 2.753-4 4.325-5.858 6.494-7.728 16.884-11.2 24.248-18.092 1.987-1.844 6.013-10.286 5.715-12.988-2.7-1.559-8.247 4.715-11.234 5.624s-5.78 2.39-8.78 3.234a21.482 21.482 0 0 1-11 .143c-1.221-.312-2.675-19.573-3.9-19.131a4.521 4.521 0 0 0-1.61 1.143c-2.52 2.6-3.9 24.768-5.987 27.651-2.87 3.9-6.845 6.858-10.78 9.689-.351.247-.792.507-1.182.312a1.182 1.182 0 0 1-.468-.805c-1.026-3.805-2.182-7.585-3.442-11.312-.883-2.6-2.13-5.455-4.741-6.234-2.325-.688-4.741.623-6.819 1.883-2.676 1.637-5.377 3.247-8.04 4.9-1.481.909-3.273 1.792-3.974 3.468-.857 2.013-.13 4.793.117 6.858q.587 4.691 1.352 9.321z" class="cls-4" transform="translate(10.838 28.519)"/>
        <path id="Tracé_873" d="M361.2 320.707c0 3.974-.195 7.884-.545 11.767a130.152 130.152 0 0 1-259.755-10.39v-1.3a130.162 130.162 0 1 1 260.323 0z" class="cls-5" transform="translate(-43.162 50.016)"/>
        <path id="Tracé_874" fill="#498499" d="M361.2 320.722c0 3.974-.195 7.884-.545 11.767-29.95 20.378-74.031 33.236-123.19 33.236-57.147 0-107.358-17.365-136.568-43.691v-1.3a130.162 130.162 0 1 1 260.323 0z" transform="translate(-43.162 50.001)"/>
        <path id="Tracé_875" fill="url(#linear-gradient-2)" d="M257.51 264.851c5.2 1.87 10.845 3.208 15.1 6.754 3.78 3.13 6.078 7.663 7.936 12.2a97.137 97.137 0 0 1 6.494 48.055c-.52 4.338-1.3 8.806-.169 12.988s4.987 8.1 9.325 7.585c6.013-11.949 6.143-25.9 6.156-39.275 0-9.767 0-19.742-3.273-28.95-2.675-7.585-7.4-14.287-12.287-20.664-17.806-23.378-39.353-45.185-66.784-55.692a5.416 5.416 0 0 0-3.689-.455c-5.65 2.065-4.728 12.118-2.533 16.157a149.938 149.938 0 0 0 10.39 16.092 71.316 71.316 0 0 0 33.334 25.205z" transform="translate(-9.94 54.985)"/>
        <path id="Tracé_876" fill="url(#linear-gradient-3)" d="M212.429 240.88a30.8 30.8 0 0 1 .675-5.2 4.753 4.753 0 0 1 3.468-3.52 16.616 16.616 0 0 0 2.13-.195c1.442-.441 2.052-2.117 2.468-3.559l4.611-16.105c.883-3.117 1.779-6.39 1.1-9.546-1.065-4.935-5.6-8.273-10.014-10.689-3.208-1.766-6.819-3.338-10.39-2.676-5.533 1.026-8.741 6.741-10.806 11.975a56.444 56.444 0 0 0-4.377 17.651c-.364 7.026-.961 24.235 3.39 30.379 6.03 8.629 16.784-.723 17.745-8.515z" transform="translate(-16.227 49.603)"/>
        <path id="Tracé_877" d="M271.816 224.468c11.78 3.987 24.339 5.663 35.691 10.741a2.767 2.767 0 0 1 1.688 1.442 2.844 2.844 0 0 1-.208 1.662 311.539 311.539 0 0 0-16.053 88.318 66.242 66.242 0 0 0 20.573.455 4.688 4.688 0 0 0 2.169-.688 4.792 4.792 0 0 0 1.377-2.052q16.482-37 29.586-75.395c1.545-4.533 3.078-9.273 2.455-14.027-.9-6.923-6.1-12.377-11.053-17.3l-38.561-38.47a10.456 10.456 0 0 0-3.533-2.6 10.053 10.053 0 0 0-4.78-.234c-15.209 1.883-35.977 2.468-63.927 1.3-3.624-.156 14.287 20.482 15.78 24.443 1.195 3.143 4.974 7.2 7.286 9.637 5.794 6.08 13.613 10.093 21.51 12.768z" class="cls-9" transform="translate(-5.556 45.689)"/>
        <path id="Tracé_878" fill="url(#linear-gradient-4)" d="M271.816 224.468c11.78 3.987 24.339 5.663 35.691 10.741a2.767 2.767 0 0 1 1.688 1.442 2.844 2.844 0 0 1-.208 1.662 311.539 311.539 0 0 0-16.053 88.318 66.242 66.242 0 0 0 20.573.455 4.688 4.688 0 0 0 2.169-.688 4.792 4.792 0 0 0 1.377-2.052q16.482-37 29.586-75.395c1.545-4.533 3.078-9.273 2.455-14.027-.9-6.923-6.1-12.377-11.053-17.3l-38.561-38.47a10.456 10.456 0 0 0-3.533-2.6 10.053 10.053 0 0 0-4.78-.234c-15.209 1.883-35.977 2.468-63.927 1.3-3.624-.156 14.287 20.482 15.78 24.443 1.195 3.143 4.974 7.2 7.286 9.637 5.794 6.08 13.613 10.093 21.51 12.768z" transform="translate(-5.556 45.689)"/>
        <path id="Tracé_879" d="M277.012 305.63a13.055 13.055 0 0 0-1.883 4.845 77.857 77.857 0 0 0-1.533 9.156c-.26 2.39-.351 4.987 1.013 6.949s3.611 2.675 5.715 3.494a129.193 129.193 0 0 1 15.4 7.572c3.351 1.844 6.845 3.754 10.663 3.9s8.039-1.948 8.91-5.663a10.844 10.844 0 0 0-.442-5.338 42.327 42.327 0 0 0-11.819-19.482 17.056 17.056 0 0 0-3.286-2.507 21.443 21.443 0 0 0-3.572-1.455 77.653 77.653 0 0 0-10.637-3.052c-3.152-.51-6.347-1.449-8.529 1.581z" class="cls-11" transform="translate(8.392 83.743)"/>
        <path id="Tracé_880" fill="url(#linear-gradient-5)" d="M277.012 305.63a13.055 13.055 0 0 0-1.883 4.845 77.857 77.857 0 0 0-1.533 9.156c-.26 2.39-.351 4.987 1.013 6.949s3.611 2.675 5.715 3.494a129.193 129.193 0 0 1 15.4 7.572c3.351 1.844 6.845 3.754 10.663 3.9s8.039-1.948 8.91-5.663a10.844 10.844 0 0 0-.442-5.338 42.327 42.327 0 0 0-11.819-19.482 17.056 17.056 0 0 0-3.286-2.507 21.443 21.443 0 0 0-3.572-1.455 77.653 77.653 0 0 0-10.637-3.052c-3.152-.51-6.347-1.449-8.529 1.581z" transform="translate(8.392 83.743)"/>
        <path id="Tracé_881" d="M279.513 294.5a85.869 85.869 0 0 0-1.533 15.586c0 2.3.156 4.844 1.805 6.494a7.52 7.52 0 0 0 5.533 1.584 21.43 21.43 0 0 0 6.974-1.442 3.053 3.053 0 0 0 1.3-.805 3.183 3.183 0 0 0 .533-1.234 92.977 92.977 0 0 0 3.13-22.781 5.883 5.883 0 0 0-.714-3.481c-1.234-1.727-3.792-1.649-5.87-1.234a47.915 47.915 0 0 0-7.793 2.377c-2.391.836-2.885 2.468-3.365 4.936z" class="cls-4" transform="translate(9.748 78.795)"/>
        <path id="Tracé_882" d="M299.952 316.425a49.718 49.718 0 0 1 2.286 7.1c.4 1.883.636 3.9 1.844 5.4 1.533 1.883 4.2 2.364 6.624 2.4a13.4 13.4 0 0 0 5.858-.987 4.546 4.546 0 0 0 2.286-1.974 5.559 5.559 0 0 0 .364-2.805 44.808 44.808 0 0 0-4.819-18.962 72.928 72.928 0 0 0-5.767-8.728 5.417 5.417 0 0 0-3.156-2.6 5.2 5.2 0 0 0-3.779 1.442c-2.143 1.611-6.858 4.3-6.364 7.351.623 4.077 3.171 8.506 4.623 12.363z" class="cls-4" transform="translate(14.921 81.286)"/>
        <path id="Tracé_883" d="M314.165 315.388a49.012 49.012 0 0 0-4.273 2.689c-2.143 1.182-4.663 1.416-7.013 2.091a3.142 3.142 0 0 0-1.637.87 3.066 3.066 0 0 0-.584 1.494 32.572 32.572 0 0 0 .429 10.637q1.792 11.352 4.182 22.612c.662 3.091 1.455 6.351 3.7 8.572s5.663 2.987 8.858 3.078a18.482 18.482 0 0 0 8.7-1.623 16.339 16.339 0 0 0 8.364-11.481 25.313 25.313 0 0 0-1.714-14.4 70.71 70.71 0 0 0-4.65-8.975q-3.507-6.026-6.987-12.053c-1.764-3.069-3.375-5.212-7.375-3.511z" class="cls-11" transform="translate(16.45 87.116)"/>
        <path id="Tracé_884" fill="url(#linear-gradient-6)" d="M314.165 315.388a49.012 49.012 0 0 0-4.273 2.689c-2.143 1.182-4.663 1.416-7.013 2.091a3.142 3.142 0 0 0-1.637.87 3.066 3.066 0 0 0-.584 1.494 32.572 32.572 0 0 0 .429 10.637q1.792 11.352 4.182 22.612c.662 3.091 1.455 6.351 3.7 8.572s5.663 2.987 8.858 3.078a18.482 18.482 0 0 0 8.7-1.623 16.339 16.339 0 0 0 8.364-11.481 25.313 25.313 0 0 0-1.714-14.4 70.71 70.71 0 0 0-4.65-8.975q-3.507-6.026-6.987-12.053c-1.764-3.069-3.375-5.212-7.375-3.511z" transform="translate(16.45 87.116)"/>
        <path id="Tracé_885" d="M191.073 134.673a35.482 35.482 0 0 0-2.26 8.91 213.35 213.35 0 0 0-2.364 23.885c-.649 15.274.338 30.574-.091 45.847-.442 15.884-2.312 32.353 3.4 47.172a18.274 18.274 0 0 0 4.39 7.143 8.312 8.312 0 0 0 7.793 2.13 8.65 8.65 0 0 0 5.2-5.65 25.753 25.753 0 0 0 .935-7.871l.208-14.521c0-.3 0-.649.3-.779a.753.753 0 0 1 .74.143 39.408 39.408 0 0 1 3.182 3.078c1.156.935 3 1.39 4.026.312a3.364 3.364 0 0 0 .61-2.675c-.623-6.286-6.1-10.819-9.364-16.235-4.7-7.793-4.7-17.612-3.52-26.677 1.468-11.351 4.533-22.43 7.585-33.47l2.6-9.338c1.961-7.091 3.9-14.832 1.039-21.625a18.092 18.092 0 0 0-12.689-10.39c-5.434-1-9.759 6.195-11.72 10.611z" class="cls-4" transform="translate(-17.82 30.1)"/>
        <path id="Tracé_886" d="M303.807 208.1c-1.676 4.507-11.131-.753-16.534 1.948-10.312 5.2-22.08-.143-33.574 0-12.235.221-20.677 12.274-32.82 13.806a6.624 6.624 0 0 1-2.676 0c-1.675-.494-2.663-2.169-3.377-3.741a32.667 32.667 0 0 1-2.234-7.572c-1.507-8.624 0-17.871 1.61-26.638q2.026-11.144 4.039-22.3 2.338-12.988 4.715-26.132a134.106 134.106 0 0 1 3.9-17.105c.312-.974.636-1.922.987-2.857a148.9 148.9 0 0 1 10.9-21.989c2.6-4.507 5.2-9.092 9.208-12.507 4.481-3.779 10.26-5.663 16.066-6.572a32.47 32.47 0 0 1 15.676.909c2.9 1.013 3.987 4.078 6.286 5.961a39.237 39.237 0 0 1 7.728 7.585 34.482 34.482 0 0 1 4.741 11.351c8.143 31.665-3.637 65.823 4.1 97.578.883 3.727 2.597 4.714 1.259 8.275z" class="cls-2" transform="translate(-9.974 15.731)"/>
        <path id="Tracé_887" fill="url(#linear-gradient-7)" d="M219.405 87.561l1.013 6.637-3.9-2.169v17.586L212.08 90.08l4.3-6.26z" transform="translate(63.362 25.04)"/>
        <path id="Tracé_888" fill="url(#linear-gradient-8)" d="M249.689 97.247l2.455 1.3 3.9 3.39-10.39 27.872s15.092-23.222 15.585-35.067a65.758 65.758 0 0 0-2.688-21.56z" transform="translate(.088 14.925)"/>
        <path id="Tracé_889" fill="url(#linear-gradient-9)" d="M226.489 167.294a74.981 74.981 0 0 0 0 19.222c.533 4.013 1.39 8.013 1.117 12.04a3.52 3.52 0 0 1-.714 2.182 3.806 3.806 0 0 1-2.143.844q-6.091.961-12.2 1.961c-1.507-8.624 0-17.871 1.611-26.638q2.026-11.144 4.039-22.3 2.338-12.988 4.715-26.132a134.1 134.1 0 0 1 3.9-17.105c.312-.974.636-1.922.987-2.857 4.026-2.234 9.624-3.9 12.118-.286 2.6 3.9-.818 12.988-1.831 16.884-3.688 14.118-9.742 27.612-11.599 42.185z" transform="translate(-9.986 24.767)"/>
        <path id="Tracé_890" d="M306.743 72.84a21.515 21.515 0 0 1-.143 4.844 3.572 3.572 0 0 1-3.312 2.987c-4.052-.3-6.975 3.585-10.2 6.078a17.183 17.183 0 0 1-17.819 1.7 2.338 2.338 0 0 0-2.948 1.3 6.78 6.78 0 0 0-.26 3.572l1.494 14.209c.286 2.74.312 6.091-2.013 7.572s-5.078.195-7-1.481a23.378 23.378 0 0 1-6.325-10.611 49.354 49.354 0 0 1 10.533-47.731 30.381 30.381 0 0 1 7.494-6.078 32.327 32.327 0 0 1 9.351-3.156 25.417 25.417 0 0 1 8.91-.494 18.028 18.028 0 0 1 10.313 5.832c1.974 2.156 3.9 8.585 5.974 9.637-1.542 3.924-3.984 7.392-4.049 11.82z" class="cls-4" transform="translate(3.182 6.615)"/>
        <path id="Tracé_891" d="M277.944 23.648a11.261 11.261 0 0 0-5.767.169c-3.663 1.3-5.715 5.13-7.039 8.78s-2.416 7.637-5.3 10.221c-2.481 2.234-6 3.13-8.234 5.6-2.6 2.87-2.844 7.117-2.6 10.975a15.417 15.417 0 0 0 2.351 8.182c1.377 1.871 3.494 3.169 4.572 5.2 1.221 2.325 1.636 5.922 4.26 6.078a4.377 4.377 0 0 0 2.9-1.3 19.871 19.871 0 0 0 5.793-8.559c.636-1.844 1.052-3.9 2.455-5.2s4.26-1.377 4.9.468a5.871 5.871 0 0 1-.519 3.442c-.338 1.143-.195 2.688.922 3.078 2.1-3.247 3.286-7.065 5.78-10.014a14.287 14.287 0 0 1 22.56 1.065c1.3 1.857 2.182 4.065 4 5.39a11.4 11.4 0 0 0 5.676 1.662c4.468.442 9.2.61 13.222-1.377s7-6.806 5.455-11.027c-1.221-3.312-4.7-5.2-8.078-6.26s-6.987-1.6-9.962-3.494c-4.039-2.6-6.2-7.221-8.546-11.416s-5.539-8.511-10.245-9.494a18.833 18.833 0 0 0-5.793 0 21.768 21.768 0 0 1-5.7.442c-2.335-.481-4.595-2.065-7.063-2.611z" class="cls-11" transform="translate(1.069 .037)"/>
        <path id="Tracé_892" fill="#f2f2f2" d="M281.1 112.542a166.118 166.118 0 0 1 2.6 45.653c-1.026 12.7-3.468 25.313-3.377 38.055a64.448 64.448 0 0 1-.325 10.741c-.572 3.533-24.261 2.182-27.716 2.143-5.819-.078 1.559 7.793-2.818 4-6.871-5.987-9.936-15.326-10.78-24.391-1.208-12.923 1.442-25.859 4.325-38.522 2-8.767 4.13-17.56 7.715-25.807 4.442-10.2 11.468-23.17 13.728-34.067.325-1.6-5.2-7.4-2.818-7.325 1.546 0 .818 2.4 1.091 3.6a11.338 11.338 0 0 0 2.714 4.857 12.754 12.754 0 0 0 6.988 4.169c1.753.325 3.754.247 5.026 1.494 1.546 1.507 1.3 4.442 1.74 6.494.632 2.931 1.307 5.906 1.907 8.906z" transform="translate(-2.084 17.865)"/>
        <path id="Tracé_893" fill="#4a8de9" d="M242.365 76.922c-6.286 2.883-11.689 7.351-16.793 12.027a140.723 140.723 0 0 0-11.949 12.157c-3.3 3.9-6.312 7.936-9.793 11.611-4.806 5.052-10.806 9.936-11.754 16.884a21.469 21.469 0 0 0 1.844 10.572 30.5 30.5 0 0 0 5.39 9.26 21.248 21.248 0 0 0 11.157 6.494 9.871 9.871 0 0 0 4.13.182 12.883 12.883 0 0 0 5.2-2.909 93.278 93.278 0 0 0 9.6-8.351c3.065-3.182 5.663-6.806 8.65-10.066 2.6-2.805 5.364-5.338 7.962-8.091 3.1-3.3 5.871-6.9 8.637-10.494a142.234 142.234 0 0 0 10.741-15.365 70.483 70.483 0 0 0 6.4-14.962c1-3.4 2.6-7.715-.857-10.17-7.343-5.169-21.253-2.194-28.565 1.221z" transform="translate(-15.94 14.845)"/>
        <path id="Tracé_894" d="M242.365 76.922c-6.286 2.883-11.689 7.351-16.793 12.027a140.723 140.723 0 0 0-11.949 12.157c-3.3 3.9-6.312 7.936-9.793 11.611-4.806 5.052-10.806 9.936-11.754 16.884a21.469 21.469 0 0 0 1.844 10.572 30.5 30.5 0 0 0 5.39 9.26 21.248 21.248 0 0 0 11.157 6.494 9.871 9.871 0 0 0 4.13.182 12.883 12.883 0 0 0 5.2-2.909 93.278 93.278 0 0 0 9.6-8.351c3.065-3.182 5.663-6.806 8.65-10.066 2.6-2.805 5.364-5.338 7.962-8.091 3.1-3.3 5.871-6.9 8.637-10.494a142.234 142.234 0 0 0 10.741-15.365 70.483 70.483 0 0 0 6.4-14.962c1-3.4 2.6-7.715-.857-10.17-7.343-5.169-21.253-2.194-28.565 1.221z" class="cls-2" transform="translate(-15.94 14.845)"/>
        <path id="Tracé_895" fill="#3d3d54" d="M315.3 127.145a6.39 6.39 0 0 0-2.091 8.65 32.471 32.471 0 0 0 8.6 9.741c2.078 2.234 6.754 2.6 10.91.156s23.989-13.235 33.9-20.287a6.494 6.494 0 0 0 1.468-9.312l-8.3-10.39a6.39 6.39 0 0 0-8.416-1.4z" transform="translate(20.008 23.926)"/>
        <path id="Tracé_896" fill="none" d="M214.569 190.069l-.3-.3" transform="translate(-9.288 49.762)"/>
        <path id="Tracé_897" d="M213.754 216.331a39.082 39.082 0 0 0 7.624 14.676c3.9 4.546 9.2 7.793 14.287 10.884l21.443 13.053a74.434 74.434 0 0 1 9 6.091c7.026 5.793 11.689 13.871 16.222 21.768l31.275 54.51c1.584 2.792 3.805 5.948 7.013 5.845a8.974 8.974 0 0 0 4.676-2.078c4.013-2.818 8.325-6.026 9.52-10.793.831-3.325 0-6.819-1-10.118-4.806-16.248-12.339-31.548-19.9-46.756q-18.014-36.106-36.561-72.07c-3.286-6.364-7.273-16.274-12.7-20.95 0 0-50.445-3.065-51.718 1.935a63.291 63.291 0 0 0 .818 34z" class="cls-9" transform="translate(-10.265 46.682)"/>
        <path id="Tracé_898" fill="url(#linear-gradient-10)" d="M213.754 216.331a39.082 39.082 0 0 0 7.624 14.676c3.9 4.546 9.2 7.793 14.287 10.884l21.443 13.053a74.434 74.434 0 0 1 9 6.091c7.026 5.793 11.689 13.871 16.222 21.768l31.275 54.51c1.584 2.792 3.805 5.948 7.013 5.845a8.974 8.974 0 0 0 4.676-2.078c4.013-2.818 8.325-6.026 9.52-10.793.831-3.325 0-6.819-1-10.118-4.806-16.248-12.339-31.548-19.9-46.756q-18.014-36.106-36.561-72.07c-3.286-6.364-7.273-16.274-12.7-20.95 0 0-50.445-3.065-51.718 1.935a63.291 63.291 0 0 0 .818 34z" transform="translate(-10.265 46.682)"/>
        <path id="Tracé_899" d="M203 65.18L195.865 68l-4.325 24.2 14.378-.649z" class="cls-2" transform="translate(57.225 19.471)"/>
        <path id="Tracé_900" d="M268.508 93.563v3.273a12.8 12.8 0 0 0 .078 1.416 13.131 13.131 0 0 0 .312 1.416l1.792 7.065.74-11.481c2.117 1.026 4.286 1.961 6.494 2.779a16.355 16.355 0 0 0-1.3-4.987c-1.3-3.325-2.494-6.663-3.9-9.923a8.157 8.157 0 0 0-1.4-2.39 3 3 0 0 0-2.468-1.039c-1.3.545-.481 5.416-.468 6.494z" class="cls-2" transform="translate(6.804 16.869)"/>
        <path id="Tracé_901" d="M358.09 120.2l-26.39 16.687a2.312 2.312 0 0 1-2.844-.52l-8.39-9.455a1.559 1.559 0 0 1 .208-2.442l26.443-16.676a2.312 2.312 0 0 1 2.844.52l8.39 9.442a1.558 1.558 0 0 1-.26 2.442z" class="cls-5" transform="translate(22.294 25.185)"/>
    </g>
</svg>
