<svg xmlns="http://www.w3.org/2000/svg" width="11.007" height="15.267" viewBox="0 0 11.007 15.267">
    <defs>
        <style>
            .cls-1{fill:#adadad}
        </style>
    </defs>
    <g id="padlock" transform="translate(-65.8)">
        <g id="Groupe_272" transform="translate(65.8)">
            <g id="Groupe_271">
                <path id="Tracé_2087" d="M75.348 6.492V4.075a4.054 4.054 0 0 0-1.21-2.913A3.925 3.925 0 0 0 71.351 0H71.3a4.065 4.065 0 0 0-4.042 4.075v2.417A1.651 1.651 0 0 0 65.8 8.153v5.431a1.673 1.673 0 0 0 1.66 1.683h7.687a1.673 1.673 0 0 0 1.66-1.683V8.153a1.659 1.659 0 0 0-1.459-1.661zM67.9 4.075A3.425 3.425 0 0 1 71.3.638a3.352 3.352 0 0 1 2.376.977 3.427 3.427 0 0 1 1.024 2.46V6.5h-.712V4.075a2.727 2.727 0 0 0-.806-1.958 2.624 2.624 0 0 0-1.855-.77h-.019a2.71 2.71 0 0 0-2.693 2.725V6.5H67.9zm5.441 0V6.5h-4.078V4.075A2.061 2.061 0 0 1 71.309 2h.019a1.985 1.985 0 0 1 1.4.583 2.086 2.086 0 0 1 .613 1.492zm2.848 9.519a1.026 1.026 0 0 1-1.026 1.026h-7.69a1.026 1.026 0 0 1-1.026-1.026V8.169a1.026 1.026 0 0 1 1.026-1.026h7.69a1.026 1.026 0 0 1 1.026 1.026z" class="cls-1" transform="translate(-65.8)"/>
            </g>
        </g>
        <g id="Groupe_274" transform="translate(70.134 9.836)">
            <g id="Groupe_273">
                <path id="Tracé_2088" d="M201.988 304.745a1.167 1.167 0 1 0-1.443 1.443v.906a.324.324 0 0 0 .647 0v-.906a1.164 1.164 0 0 0 .796-1.443zm-1.12.841a.521.521 0 1 1 .521-.521.521.521 0 0 1-.521.521z" class="cls-1" transform="translate(-199.7 -303.9)"/>
            </g>
        </g>
    </g>
</svg>
