<svg xmlns="http://www.w3.org/2000/svg" width="18.979" height="21.593" viewBox="0 0 18.979 21.593">
    <g>
        <path fill="#19647e" d="M42.7 21.593H31.949a.95.95 0 0 1-.949-.949V4.816a.95.95 0 0 1 .949-.949h1.818a.316.316 0 0 1 0 .633h-1.818a.317.317 0 0 0-.316.316v15.828a.317.317 0 0 0 .316.316H42.7a.317.317 0 0 0 .316-.316v-7.359h-7.271a.95.95 0 0 1-.949-.949V.949A.95.95 0 0 1 35.745 0h9.489a.95.95 0 0 1 .949.949v3.163a.316.316 0 0 1-.633 0V.949a.317.317 0 0 0-.316-.316h-9.489a.317.317 0 0 0-.316.316v11.387a.317.317 0 0 0 .316.316h9.489a.317.317 0 0 0 .316-.316V5.377a.316.316 0 0 1 .316-.316h1.9a.316.316 0 0 1 0 .633h-1.583v1.265h1.582a.316.316 0 0 1 0 .633h-1.582v1.265h1.582a.316.316 0 0 1 0 .633h-1.582v1.265h1.582a.316.316 0 0 1 0 .633h-1.582v.949a.945.945 0 0 1-.054.316h1.636a.316.316 0 0 1 0 .633h-4.113v1.264h4.112a.316.316 0 0 1 0 .633h-4.112v1.982h5.378a.317.317 0 0 0 .316-.316V2.918a.317.317 0 0 0-.316-.318h-1.9a.316.316 0 0 1 0-.633h1.9a.95.95 0 0 1 .949.949v13.93a.95.95 0 0 1-.949.949h-5.378v1.9h3.479a.317.317 0 0 0 .316-.316v-.633a.316.316 0 1 1 .633 0v.633a.95.95 0 0 1-.949.949h-3.479v.316a.95.95 0 0 1-.952.949zm1.9-9.574h-8.223a.316.316 0 0 1-.316-.316V10.6a2.2 2.2 0 0 1 1.859-2.264c.648-.224 1.015-.375 1.08-.862a2.645 2.645 0 0 1-1.157-2.186v-1.3a2.646 2.646 0 0 1 5.292 0v1.3a2.645 2.645 0 0 1-1.157 2.186c.065.487.433.638 1.08.862a2.2 2.2 0 0 1 1.86 2.264v1.1a.316.316 0 0 1-.318.32zm-7.908-.633h7.591V10.6c0-1.175-.664-1.4-1.434-1.671-.568-.2-1.253-.434-1.456-1.16a2.648 2.648 0 0 1-1.811 0c-.2.726-.888.963-1.456 1.16-.769.266-1.434.5-1.434 1.671zm3.8-9.418a2.016 2.016 0 0 0-2.013 2.013v1.3a2.013 2.013 0 0 0 4.027 0v-1.3a2.016 2.016 0 0 0-2.017-2.011z" transform="translate(-31)"/>
    </g>
</svg>
