<svg xmlns="http://www.w3.org/2000/svg" width="27.5" height="38.22" viewBox="0 0 27.5 38.22">
    <g>
        <g>
            <path fill="#eb968c" d="M652.319 1028.776a13.747 13.747 0 0 0-13.75 13.75c0 7.592 13.75 24.469 13.75 24.469a121.619 121.619 0 0 0 10.307-14.988c1.977-3.541 3.443-7.006 3.443-9.482a13.753 13.753 0 0 0-13.75-13.749zm0 20.027a6.472 6.472 0 1 1 1.4-.163 5.939 5.939 0 0 1-1.4.16z" transform="translate(-103 -184) translate(103 184) translate(-638.569 -1028.776)"/>
            <path fill="#e94f37" d="M662.626 1082.848a121.6 121.6 0 0 1-10.307 14.988s-13.75-16.877-13.75-24.469a13.736 13.736 0 0 1 5.083-10.676 34.238 34.238 0 0 0 2.726 8.08 6.417 6.417 0 0 0 5.941 8.873 5.951 5.951 0 0 0 1.4-.163 20.889 20.889 0 0 0 8.907 3.367z" transform="translate(-103 -184) translate(103 184) translate(-638.569 -1059.616)"/>
        </g>
    </g>
</svg>
