<svg xmlns="http://www.w3.org/2000/svg" width="375" height="275" viewBox="0 0 375 275">
    <defs>
        <clipPath id="clip-path">
            <path id="Rectangle_298" d="M0 0H375V275H0z" class="cls-1" transform="translate(0 131)"/>
        </clipPath>
        <clipPath id="clip-path-2">
            <path id="path706" d="M0 0h137.995v44.458H0z"/>
        </clipPath>
        <clipPath id="clip-path-3">
            <path id="path722" d="M0 0h77.638v11.5H0z"/>
        </clipPath>
        <clipPath id="clip-path-4">
            <path id="path736" d="M0 0h21.341v11.37H0z"/>
        </clipPath>
        <clipPath id="clip-path-5">
            <path id="path776" d="M0 314.808h314.808V0H0z"/>
        </clipPath>
        <style>
            .cls-1{fill:#fff}.cls-20,.cls-26,.cls-3{fill:none}.cls-11{fill:#ffc9af}.cls-16{fill:#4b869a}.cls-20{stroke:#fff;stroke-miterlimit:10;stroke-width:2.667px}.cls-21{fill:#ffb095}.cls-22{fill:#ffd6c8}.cls-24{fill:#19647e}.cls-26{stroke:#a0c0cb;stroke-width:.5px;opacity:.5}
        </style>
    </defs>
    <g id="Groupe_de_masques_6" clip-path="url(#clip-path)" transform="translate(0 -131)">
        <g id="Groupe_367" transform="matrix(.966 -.259 .258 .964 -60.813 133.637)">
            <g id="g10" transform="rotate(-3 1474.016 -1336.059)">
                <path id="path12" d="M0 314.808h314.808V0H0z" class="cls-3"/>
                <path id="path14" d="M0 314.808h209.067V0H0z" class="cls-3"/>
                <path id="path16" d="M0 197.077h159.246V0H0z" class="cls-3"/>
                <g id="g18" transform="translate(38.645 85.782)">
                    <g id="Groupe_370">
                        <path id="path34" fill="#eef5f7" d="M70.634 0H0v69.428h70.634z" transform="translate(.022 11.855)"/>
                        <g id="g702" transform="translate(.23 25.638)">
                            <g id="g716">
                                <g id="g714" clip-path="url(#clip-path-2)" opacity="0.47">
                                    <g id="g712">
                                        <path id="path710" fill="#7dacbc" d="M77.639 44.458L138 11.37V0h-21.346L0 33.088v11.37z"/>
                                    </g>
                                </g>
                            </g>
                        </g>
                        <g id="g718" transform="translate(.23 70.005)">
                            <g id="g730">
                                <g id="g728" clip-path="url(#clip-path-3)" opacity="0.7">
                                    <path id="path726" fill="#c1d7df" d="M77.639 11.5H0V0h77.639z"/>
                                </g>
                            </g>
                        </g>
                        <g id="g732" transform="translate(129.72 18.506)">
                            <g id="g744">
                                <g id="g742" clip-path="url(#clip-path-4)" opacity="0.7">
                                    <path id="path740" fill="#ff837e" d="M21.342 11.37H0V0h21.342z" transform="translate(.001)"/>
                                </g>
                            </g>
                        </g>
                        <g id="g746" transform="translate(105.371 68.363)">
                            <path id="path748" d="M8.82.475l19.835 7.937a6.4 6.4 0 1 1-4.831 11.861L3.989 12.335A6.4 6.4 0 0 1 8.82.475" class="cls-11"/>
                        </g>
                        <g id="g750" transform="translate(121.195)">
                            <path id="path752" fill="#7a7a7d" d="M0 144.214V7.55A7.55 7.55 0 0 1 7.55 0h67.568a7.55 7.55 0 0 1 7.55 7.55v136.664a7.551 7.551 0 0 1-7.551 7.551H7.551A7.551 7.551 0 0 1 0 144.214"/>
                        </g>
                        <g id="g754" transform="translate(122.196 1.001)">
                            <path id="path756" fill="#59595b" d="M80.664 143.143V6.618A6.618 6.618 0 0 0 74.046 0H6.619A6.618 6.618 0 0 0 0 6.618v136.525a6.618 6.618 0 0 0 6.619 6.618h67.427a6.618 6.618 0 0 0 6.618-6.618"/>
                        </g>
                        <g id="g758" transform="translate(123.721 2.526)">
                            <path id="path760" fill="#031424" d="M72.415 146.712H5.2a5.2 5.2 0 0 1-5.2-5.2V5.2A5.2 5.2 0 0 1 5.2 0h67.216a5.2 5.2 0 0 1 5.2 5.2v136.312a5.2 5.2 0 0 1-5.2 5.2"/>
                        </g>
                        <path id="path762" fill="#dbf4fd" d="M0 130.907h73.672V0H0z" transform="translate(125.693 10.429)"/>
                        <path id="path764" d="M0 14.861h73.672V0H0z" class="cls-16" transform="translate(125.693 10.429)"/>
                    </g>
                </g>
                <g id="g772" opacity="0.65">
                    <g id="g774" clip-path="url(#clip-path-5)">
                        <path id="path780" fill="#90c7d8" d="M42.159 4.764H0V0h42.159z" transform="translate(187.225 198.808)"/>
                        <path id="path782" d="M31.258 4.764H0V0h31.258z" class="cls-16" transform="translate(187.226 198.808)"/>
                        <path id="path784" d="M50.305 0H0v50.306h50.305z" class="cls-1" transform="translate(183.153 134.4)"/>
                        <path id="path786" d="M1.525 0H0v1.524h1.525z" transform="translate(225.835 140.498)"/>
                        <path id="path788" d="M1.525 0H0v1.524h1.525z" transform="translate(225.835 142.023)"/>
                        <path id="path790" d="M1.525 0H0v1.524h1.525z" transform="translate(225.835 143.548)"/>
                        <path id="path792" d="M1.525 0H0v1.524h1.525z" transform="translate(225.835 145.072)"/>
                        <path id="path794" d="M1.525 0H0v1.524h1.525z" transform="translate(225.835 146.596)"/>
                        <path id="path796" d="M1.525 0H0v1.524h1.525z" transform="translate(225.835 148.12)"/>
                        <path id="path798" d="M1.525 0H0v1.524h1.525z" transform="translate(225.835 149.645)"/>
                        <path id="path800" d="M1.525 0H0v1.524h1.525z" transform="translate(225.835 152.694)"/>
                        <path id="path802" d="M1.525 0H0v1.524h1.525z" transform="translate(225.835 155.743)"/>
                        <path id="path804" d="M1.525 0H0v1.524h1.525z" transform="translate(225.835 167.938)"/>
                        <path id="path806" d="M1.525 0H0v1.524h1.525z" transform="translate(225.835 169.462)"/>
                        <path id="path808" d="M1.525 0H0v1.525h1.525z" transform="translate(225.835 170.986)"/>
                        <path id="path810" d="M1.525 0H0v1.524h1.525z" transform="translate(225.835 172.511)"/>
                        <path id="path812" d="M1.525 0H0v1.524h1.525z" transform="translate(225.835 174.035)"/>
                        <path id="path814" d="M1.525 0H0v1.525h1.525z" transform="translate(225.835 175.56)"/>
                        <path id="path816" d="M1.525 0H0v1.524h1.525z" transform="translate(225.835 177.085)"/>
                        <path id="path818" d="M1.524 0H0v1.524h1.524z" transform="translate(224.311 140.498)"/>
                        <path id="path820" d="M1.524 0H0v1.524h1.524z" transform="translate(224.311 149.645)"/>
                        <path id="path822" d="M1.524 0H0v1.524h1.524z" transform="translate(224.311 152.694)"/>
                        <path id="path824" d="M1.524 0H0v1.524h1.524z" transform="translate(224.311 154.218)"/>
                        <path id="path826" d="M1.524 0H0v1.524h1.524z" transform="translate(224.311 155.743)"/>
                        <path id="path828" d="M1.524 0H0v1.524h1.524z" transform="translate(224.311 157.267)"/>
                        <path id="path830" d="M1.524 0H0v1.524h1.524z" transform="translate(224.311 163.365)"/>
                        <path id="path832" d="M1.524 0H0v1.525h1.524z" transform="translate(224.311 164.889)"/>
                        <path id="path834" d="M1.524 0H0v1.524h1.524z" transform="translate(224.311 167.938)"/>
                        <path id="path836" d="M1.524 0H0v1.524h1.524z" transform="translate(224.311 177.085)"/>
                        <path id="path838" d="M1.524 0H0v1.524h1.524z" transform="translate(222.787 140.498)"/>
                        <path id="path840" d="M1.524 0H0v1.524h1.524z" transform="translate(222.787 143.548)"/>
                        <path id="path842" d="M1.524 0H0v1.524h1.524z" transform="translate(222.787 145.072)"/>
                        <path id="path844" d="M1.524 0H0v1.524h1.524z" transform="translate(222.787 146.596)"/>
                        <path id="path846" d="M1.524 0H0v1.524h1.524z" transform="translate(222.787 149.645)"/>
                        <path id="path848" d="M1.524 0H0v1.524h1.524z" transform="translate(222.787 154.218)"/>
                        <path id="path850" d="M1.524 0H0v1.524h1.524z" transform="translate(222.787 158.791)"/>
                        <path id="path852" d="M1.524 0H0v1.524h1.524z" transform="translate(222.787 163.365)"/>
                        <path id="path854" d="M1.524 0H0v1.525h1.524z" transform="translate(222.787 164.889)"/>
                        <path id="path856" d="M1.524 0H0v1.524h1.524z" transform="translate(222.787 167.938)"/>
                        <path id="path858" d="M1.524 0H0v1.525h1.524z" transform="translate(222.787 170.986)"/>
                        <path id="path860" d="M1.524 0H0v1.524h1.524z" transform="translate(222.787 172.511)"/>
                        <path id="path862" d="M1.524 0H0v1.524h1.524z" transform="translate(222.787 174.035)"/>
                        <path id="path864" d="M1.524 0H0v1.524h1.524z" transform="translate(222.787 177.085)"/>
                        <path id="path866" d="M1.524 0H0v1.524h1.524z" transform="translate(221.263 140.498)"/>
                        <path id="path868" d="M1.524 0H0v1.524h1.524z" transform="translate(221.263 143.548)"/>
                        <path id="path870" d="M1.524 0H0v1.524h1.524z" transform="translate(221.263 145.072)"/>
                        <path id="path872" d="M1.524 0H0v1.524h1.524z" transform="translate(221.263 146.596)"/>
                        <path id="path874" d="M1.524 0H0v1.524h1.524z" transform="translate(221.263 149.645)"/>
                        <path id="path876" d="M1.524 0H0v1.524h1.524z" transform="translate(221.263 152.694)"/>
                        <path id="path878" d="M1.524 0H0v1.524h1.524z" transform="translate(221.263 155.743)"/>
                        <path id="path880" d="M1.524 0H0v1.524h1.524z" transform="translate(221.263 157.267)"/>
                        <path id="path882" d="M1.524 0H0v1.524h1.524z" transform="translate(221.263 158.791)"/>
                        <path id="path884" d="M1.524 0H0v1.525h1.524z" transform="translate(221.263 160.315)"/>
                        <path id="path886" d="M1.524 0H0v1.524h1.524z" transform="translate(221.263 161.84)"/>
                        <path id="path888" d="M1.524 0H0v1.524h1.524z" transform="translate(221.263 163.365)"/>
                        <path id="path890" d="M1.524 0H0v1.524h1.524z" transform="translate(221.263 167.938)"/>
                        <path id="path892" d="M1.524 0H0v1.525h1.524z" transform="translate(221.263 170.986)"/>
                        <path id="path894" d="M1.524 0H0v1.524h1.524z" transform="translate(221.263 172.511)"/>
                        <path id="path896" d="M1.524 0H0v1.524h1.524z" transform="translate(221.263 174.035)"/>
                        <path id="path898" d="M1.524 0H0v1.524h1.524z" transform="translate(221.263 177.085)"/>
                        <path id="path900" d="M1.525 0H0v1.524h1.525z" transform="translate(219.738 140.498)"/>
                        <path id="path902" d="M1.525 0H0v1.524h1.525z" transform="translate(219.738 143.548)"/>
                        <path id="path904" d="M1.525 0H0v1.524h1.525z" transform="translate(219.738 145.072)"/>
                        <path id="path906" d="M1.525 0H0v1.524h1.525z" transform="translate(219.738 146.596)"/>
                        <path id="path908" d="M1.525 0H0v1.524h1.525z" transform="translate(219.738 149.645)"/>
                        <path id="path910" d="M1.525 0H0v1.524h1.525z" transform="translate(219.738 152.694)"/>
                        <path id="path912" d="M1.525 0H0v1.524h1.525z" transform="translate(219.738 157.267)"/>
                        <path id="path914" d="M1.525 0H0v1.524h1.525z" transform="translate(219.738 161.84)"/>
                        <path id="path916" d="M1.525 0H0v1.524h1.525z" transform="translate(219.738 163.365)"/>
                        <path id="path918" d="M1.525 0H0v1.524h1.525z" transform="translate(219.738 167.938)"/>
                        <path id="path920" d="M1.525 0H0v1.525h1.525z" transform="translate(219.738 170.986)"/>
                        <path id="path922" d="M1.525 0H0v1.524h1.525z" transform="translate(219.738 172.511)"/>
                        <path id="path924" d="M1.525 0H0v1.524h1.525z" transform="translate(219.738 174.035)"/>
                        <path id="path926" d="M1.525 0H0v1.524h1.525z" transform="translate(219.738 177.085)"/>
                        <path id="path928" d="M1.524 0H0v1.524h1.524z" transform="translate(218.214 140.498)"/>
                        <path id="path930" d="M1.524 0H0v1.524h1.524z" transform="translate(218.214 149.645)"/>
                        <path id="path932" d="M1.524 0H0v1.524h1.524z" transform="translate(218.214 154.218)"/>
                        <path id="path934" d="M1.524 0H0v1.524h1.524z" transform="translate(218.214 155.743)"/>
                        <path id="path936" d="M1.524 0H0v1.524h1.524z" transform="translate(218.214 158.791)"/>
                        <path id="path938" d="M1.524 0H0v1.524h1.524z" transform="translate(218.214 161.84)"/>
                        <path id="path940" d="M1.524 0H0v1.524h1.524z" transform="translate(218.214 163.365)"/>
                        <path id="path942" d="M1.524 0H0v1.525h1.524z" transform="translate(218.214 164.889)"/>
                        <path id="path944" d="M1.524 0H0v1.524h1.524z" transform="translate(218.214 167.938)"/>
                        <path id="path946" d="M1.524 0H0v1.524h1.524z" transform="translate(218.214 177.085)"/>
                        <path id="path948" d="M1.524 0H0v1.524h1.524z" transform="translate(216.689 140.498)"/>
                        <path id="path950" d="M1.524 0H0v1.524h1.524z" transform="translate(216.689 142.023)"/>
                        <path id="path952" d="M1.524 0H0v1.524h1.524z" transform="translate(216.689 143.548)"/>
                        <path id="path954" d="M1.524 0H0v1.524h1.524z" transform="translate(216.689 145.072)"/>
                        <path id="path956" d="M1.524 0H0v1.524h1.524z" transform="translate(216.689 146.596)"/>
                        <path id="path958" d="M1.524 0H0v1.524h1.524z" transform="translate(216.689 148.12)"/>
                        <path id="path960" d="M1.524 0H0v1.524h1.524z" transform="translate(216.689 149.645)"/>
                        <path id="path962" d="M1.524 0H0v1.524h1.524z" transform="translate(216.689 152.694)"/>
                        <path id="path964" d="M1.524 0H0v1.524h1.524z" transform="translate(216.689 155.743)"/>
                        <path id="path966" d="M1.524 0H0v1.524h1.524z" transform="translate(216.689 158.791)"/>
                        <path id="path968" d="M1.524 0H0v1.524h1.524z" transform="translate(216.689 161.84)"/>
                        <path id="path970" d="M1.524 0H0v1.525h1.524z" transform="translate(216.689 164.889)"/>
                        <path id="path972" d="M1.524 0H0v1.524h1.524z" transform="translate(216.689 167.938)"/>
                        <path id="path974" d="M1.524 0H0v1.524h1.524z" transform="translate(216.689 169.462)"/>
                        <path id="path976" d="M1.524 0H0v1.525h1.524z" transform="translate(216.689 170.986)"/>
                        <path id="path978" d="M1.524 0H0v1.524h1.524z" transform="translate(216.689 172.511)"/>
                        <path id="path980" d="M1.524 0H0v1.524h1.524z" transform="translate(216.689 174.035)"/>
                        <path id="path982" d="M1.524 0H0v1.525h1.524z" transform="translate(216.689 175.56)"/>
                        <path id="path984" d="M1.524 0H0v1.524h1.524z" transform="translate(216.689 177.085)"/>
                        <path id="path986" d="M1.524 0H0v1.524h1.524z" transform="translate(215.165 154.218)"/>
                        <path id="path988" d="M1.524 0H0v1.524h1.524z" transform="translate(215.165 158.791)"/>
                        <path id="path990" d="M1.524 0H0v1.525h1.524z" transform="translate(215.165 160.315)"/>
                        <path id="path992" d="M1.524 0H0v1.525h1.524z" transform="translate(215.165 164.889)"/>
                        <path id="path994" d="M1.525 0H0v1.524h1.525z" transform="translate(213.64 140.498)"/>
                        <path id="path996" d="M1.525 0H0v1.524h1.525z" transform="translate(213.64 149.645)"/>
                        <path id="path998" d="M1.525 0H0v1.524h1.525z" transform="translate(213.64 151.17)"/>
                        <path id="path1000" d="M1.525 0H0v1.524h1.525z" transform="translate(213.64 154.218)"/>
                        <path id="path1002" d="M1.525 0H0v1.524h1.525z" transform="translate(213.64 155.743)"/>
                        <path id="path1004" d="M1.525 0H0v1.524h1.525z" transform="translate(213.64 157.267)"/>
                        <path id="path1006" d="M1.525 0H0v1.525h1.525z" transform="translate(213.64 160.315)"/>
                        <path id="path1008" d="M1.525 0H0v1.524h1.525z" transform="translate(213.64 163.365)"/>
                        <path id="path1010" d="M1.525 0H0v1.524h1.525z" transform="translate(213.64 166.414)"/>
                        <path id="path1012" d="M1.525 0H0v1.525h1.525z" transform="translate(213.64 170.986)"/>
                        <path id="path1014" d="M1.525 0H0v1.524h1.525z" transform="translate(213.64 172.511)"/>
                        <path id="path1016" d="M1.525 0H0v1.525h1.525z" transform="translate(213.64 175.56)"/>
                        <path id="path1018" d="M1.525 0H0v1.524h1.525z" transform="translate(213.64 177.085)"/>
                        <path id="path1020" d="M1.524 0H0v1.524h1.524z" transform="translate(212.116 140.498)"/>
                        <path id="path1022" d="M1.524 0H0v1.524h1.524z" transform="translate(212.116 143.548)"/>
                        <path id="path1024" d="M1.524 0H0v1.524h1.524z" transform="translate(212.116 148.12)"/>
                        <path id="path1026" d="M1.524 0H0v1.524h1.524z" transform="translate(212.116 151.17)"/>
                        <path id="path1028" d="M1.524 0H0v1.524h1.524z" transform="translate(212.116 152.694)"/>
                        <path id="path1030" d="M1.524 0H0v1.524h1.524z" transform="translate(212.116 155.743)"/>
                        <path id="path1032" d="M1.524 0H0v1.524h1.524z" transform="translate(212.116 158.791)"/>
                        <path id="path1034" d="M1.524 0H0v1.524h1.524z" transform="translate(212.116 163.365)"/>
                        <path id="path1036" d="M1.524 0H0v1.524h1.524z" transform="translate(212.116 167.938)"/>
                        <path id="path1038" d="M1.524 0H0v1.525h1.524z" transform="translate(212.116 170.986)"/>
                        <path id="path1040" d="M1.524 0H0v1.524h1.524z" transform="translate(212.116 174.035)"/>
                        <path id="path1042" d="M1.524 0H0v1.525h1.524z" transform="translate(212.116 175.56)"/>
                        <path id="path1044" d="M1.524 0H0v1.524h1.524z" transform="translate(210.592 140.498)"/>
                        <path id="path1046" d="M1.524 0H0v1.524h1.524z" transform="translate(210.592 145.072)"/>
                        <path id="path1048" d="M1.524 0H0v1.524h1.524z" transform="translate(210.592 146.596)"/>
                        <path id="path1050" d="M1.524 0H0v1.524h1.524z" transform="translate(210.592 149.645)"/>
                        <path id="path1052" d="M1.524 0H0v1.524h1.524z" transform="translate(210.592 154.218)"/>
                        <path id="path1054" d="M1.524 0H0v1.524h1.524z" transform="translate(210.592 158.791)"/>
                        <path id="path1056" d="M1.524 0H0v1.525h1.524z" transform="translate(210.592 160.315)"/>
                        <path id="path1058" d="M1.524 0H0v1.524h1.524z" transform="translate(210.592 161.84)"/>
                        <path id="path1060" d="M1.524 0H0v1.524h1.524z" transform="translate(210.592 163.365)"/>
                        <path id="path1062" d="M1.524 0H0v1.524h1.524z" transform="translate(210.592 166.414)"/>
                        <path id="path1064" d="M1.524 0H0v1.524h1.524z" transform="translate(210.592 167.938)"/>
                        <path id="path1066" d="M1.524 0H0v1.525h1.524z" transform="translate(210.592 170.986)"/>
                        <path id="path1068" d="M1.524 0H0v1.525h1.524z" transform="translate(210.592 175.56)"/>
                        <path id="path1070" d="M1.524 0H0v1.524h1.524z" transform="translate(210.592 177.085)"/>
                        <path id="path1072" d="M1.525 0H0v1.524h1.525z" transform="translate(209.067 140.498)"/>
                        <path id="path1074" d="M1.525 0H0v1.524h1.525z" transform="translate(209.067 142.023)"/>
                        <path id="path1076" d="M1.525 0H0v1.524h1.525z" transform="translate(209.067 143.548)"/>
                        <path id="path1078" d="M1.525 0H0v1.524h1.525z" transform="translate(209.067 145.072)"/>
                        <path id="path1080" d="M1.525 0H0v1.524h1.525z" transform="translate(209.067 146.596)"/>
                        <path id="path1082" d="M1.525 0H0v1.524h1.525z" transform="translate(209.067 148.12)"/>
                        <path id="path1084" d="M1.525 0H0v1.525h1.525z" transform="translate(209.067 164.889)"/>
                        <path id="path1086" d="M1.525 0H0v1.524h1.525z" transform="translate(209.067 166.414)"/>
                        <path id="path1088" d="M1.525 0H0v1.524h1.525z" transform="translate(209.067 169.462)"/>
                        <path id="path1090" d="M1.525 0H0v1.525h1.525z" transform="translate(209.067 170.986)"/>
                        <path id="path1092" d="M1.525 0H0v1.524h1.525z" transform="translate(209.067 174.035)"/>
                        <path id="path1094" d="M1.525 0H0v1.525h1.525z" transform="translate(209.067 175.56)"/>
                        <path id="path1096" d="M1.525 0H0v1.524h1.525z" transform="translate(209.067 177.085)"/>
                        <path id="path1098" d="M1.524 0H0v1.524h1.524z" transform="translate(207.543 142.023)"/>
                        <path id="path1100" d="M1.524 0H0v1.524h1.524z" transform="translate(207.543 146.596)"/>
                        <path id="path1102" d="M1.524 0H0v1.524h1.524z" transform="translate(207.543 149.645)"/>
                        <path id="path1104" d="M1.524 0H0v1.524h1.524z" transform="translate(207.543 151.17)"/>
                        <path id="path1106" d="M1.524 0H0v1.524h1.524z" transform="translate(207.543 152.694)"/>
                        <path id="path1108" d="M1.524 0H0v1.524h1.524z" transform="translate(207.543 155.743)"/>
                        <path id="path1110" d="M1.524 0H0v1.525h1.524z" transform="translate(207.543 160.315)"/>
                        <path id="path1112" d="M1.524 0H0v1.524h1.524z" transform="translate(207.543 163.365)"/>
                        <path id="path1114" d="M1.524 0H0v1.525h1.524z" transform="translate(207.543 164.889)"/>
                        <path id="path1116" d="M1.524 0H0v1.524h1.524z" transform="translate(207.543 167.938)"/>
                        <path id="path1118" d="M1.524 0H0v1.524h1.524z" transform="translate(207.543 172.511)"/>
                        <path id="path1120" d="M1.524 0H0v1.525h1.524z" transform="translate(207.543 175.56)"/>
                        <path id="path1122" d="M1.524 0H0v1.524h1.524z" transform="translate(207.543 177.085)"/>
                        <path id="path1124" d="M1.524 0H0v1.524h1.524z" transform="translate(206.019 143.548)"/>
                        <path id="path1126" d="M1.524 0H0v1.524h1.524z" transform="translate(206.019 145.072)"/>
                        <path id="path1128" d="M1.524 0H0v1.524h1.524z" transform="translate(206.019 146.596)"/>
                        <path id="path1130" d="M1.524 0H0v1.524h1.524z" transform="translate(206.019 148.12)"/>
                        <path id="path1132" d="M1.524 0H0v1.524h1.524z" transform="translate(206.019 151.17)"/>
                        <path id="path1134" d="M1.524 0H0v1.524h1.524z" transform="translate(206.019 155.743)"/>
                        <path id="path1136" d="M1.524 0H0v1.525h1.524z" transform="translate(206.019 164.889)"/>
                        <path id="path1138" d="M1.524 0H0v1.524h1.524z" transform="translate(206.019 166.414)"/>
                        <path id="path1140" d="M1.524 0H0v1.524h1.524z" transform="translate(206.019 167.938)"/>
                        <path id="path1142" d="M1.524 0H0v1.524h1.524z" transform="translate(206.019 169.462)"/>
                        <path id="path1144" d="M1.524 0H0v1.525h1.524z" transform="translate(206.019 170.986)"/>
                        <path id="path1146" d="M1.524 0H0v1.524h1.524z" transform="translate(206.019 172.511)"/>
                        <path id="path1148" d="M1.524 0H0v1.524h1.524z" transform="translate(206.019 174.035)"/>
                        <path id="path1150" d="M1.524 0H0v1.525h1.524z" transform="translate(206.019 175.56)"/>
                        <path id="path1152" d="M1.524 0H0v1.524h1.524z" transform="translate(206.019 177.085)"/>
                        <path id="path1154" d="M1.524 0H0v1.524h1.524z" transform="translate(204.494 140.498)"/>
                        <path id="path1156" d="M1.524 0H0v1.524h1.524z" transform="translate(204.494 142.023)"/>
                        <path id="path1158" d="M1.524 0H0v1.524h1.524z" transform="translate(204.494 143.548)"/>
                        <path id="path1160" d="M1.524 0H0v1.524h1.524z" transform="translate(204.494 145.072)"/>
                        <path id="path1162" d="M1.524 0H0v1.524h1.524z" transform="translate(204.494 146.596)"/>
                        <path id="path1164" d="M1.524 0H0v1.524h1.524z" transform="translate(204.494 148.12)"/>
                        <path id="path1166" d="M1.524 0H0v1.524h1.524z" transform="translate(204.494 149.645)"/>
                        <path id="path1168" d="M1.524 0H0v1.524h1.524z" transform="translate(204.494 151.17)"/>
                        <path id="path1170" d="M1.524 0H0v1.524h1.524z" transform="translate(204.494 152.694)"/>
                        <path id="path1172" d="M1.524 0H0v1.524h1.524z" transform="translate(204.494 154.218)"/>
                        <path id="path1174" d="M1.524 0H0v1.524h1.524z" transform="translate(204.494 155.743)"/>
                        <path id="path1176" d="M1.524 0H0v1.524h1.524z" transform="translate(204.494 157.267)"/>
                        <path id="path1178" d="M1.524 0H0v1.525h1.524z" transform="translate(204.494 160.315)"/>
                        <path id="path1180" d="M1.524 0H0v1.524h1.524z" transform="translate(204.494 161.84)"/>
                        <path id="path1182" d="M1.524 0H0v1.524h1.524z" transform="translate(204.494 172.511)"/>
                        <path id="path1184" d="M1.525 0H0v1.524h1.525z" transform="translate(202.969 143.548)"/>
                        <path id="path1186" d="M1.525 0H0v1.524h1.525z" transform="translate(202.969 145.072)"/>
                        <path id="path1188" d="M1.525 0H0v1.524h1.525z" transform="translate(202.969 152.694)"/>
                        <path id="path1190" d="M1.525 0H0v1.524h1.525z" transform="translate(202.969 154.218)"/>
                        <path id="path1192" d="M1.525 0H0v1.524h1.525z" transform="translate(202.969 155.743)"/>
                        <path id="path1194" d="M1.525 0H0v1.524h1.525z" transform="translate(202.969 158.791)"/>
                        <path id="path1196" d="M1.525 0H0v1.525h1.525z" transform="translate(202.969 160.315)"/>
                        <path id="path1198" d="M1.525 0H0v1.524h1.525z" transform="translate(202.969 161.84)"/>
                        <path id="path1200" d="M1.525 0H0v1.525h1.525z" transform="translate(202.969 164.889)"/>
                        <path id="path1202" d="M1.525 0H0v1.524h1.525z" transform="translate(202.969 169.462)"/>
                        <path id="path1204" d="M1.525 0H0v1.525h1.525z" transform="translate(202.969 170.986)"/>
                        <path id="path1206" d="M1.525 0H0v1.524h1.525z" transform="translate(202.969 174.035)"/>
                        <path id="path1208" d="M1.525 0H0v1.525h1.525z" transform="translate(202.969 175.56)"/>
                        <path id="path1210" d="M1.524 0H0v1.524h1.524z" transform="translate(201.445 142.023)"/>
                        <path id="path1212" d="M1.524 0H0v1.524h1.524z" transform="translate(201.445 143.548)"/>
                        <path id="path1214" d="M1.524 0H0v1.524h1.524z" transform="translate(201.445 145.072)"/>
                        <path id="path1216" d="M1.524 0H0v1.524h1.524z" transform="translate(201.445 146.596)"/>
                        <path id="path1218" d="M1.524 0H0v1.524h1.524z" transform="translate(201.445 148.12)"/>
                        <path id="path1220" d="M1.524 0H0v1.524h1.524z" transform="translate(201.445 149.645)"/>
                        <path id="path1222" d="M1.524 0H0v1.524h1.524z" transform="translate(201.445 155.743)"/>
                        <path id="path1224" d="M1.524 0H0v1.524h1.524z" transform="translate(201.445 158.791)"/>
                        <path id="path1226" d="M1.524 0H0v1.525h1.524z" transform="translate(201.445 160.315)"/>
                        <path id="path1228" d="M1.524 0H0v1.525h1.524z" transform="translate(201.445 164.889)"/>
                        <path id="path1230" d="M1.524 0H0v1.524h1.524z" transform="translate(201.445 166.414)"/>
                        <path id="path1232" d="M1.524 0H0v1.524h1.524z" transform="translate(201.445 167.938)"/>
                        <path id="path1234" d="M1.524 0H0v1.524h1.524z" transform="translate(201.445 169.462)"/>
                        <path id="path1236" d="M1.524 0H0v1.525h1.524z" transform="translate(201.445 170.986)"/>
                        <path id="path1238" d="M1.524 0H0v1.524h1.524z" transform="translate(201.445 177.085)"/>
                        <path id="path1240" d="M1.524 0H0v1.524h1.524z" transform="translate(199.921 154.218)"/>
                        <path id="path1242" d="M1.524 0H0v1.524h1.524z" transform="translate(199.921 158.791)"/>
                        <path id="path1244" d="M1.524 0H0v1.524h1.524z" transform="translate(199.921 161.84)"/>
                        <path id="path1246" d="M1.524 0H0v1.525h1.524z" transform="translate(199.921 164.889)"/>
                        <path id="path1248" d="M1.524 0H0v1.525h1.524z" transform="translate(199.921 170.986)"/>
                        <path id="path1250" d="M1.524 0H0v1.524h1.524z" transform="translate(199.921 172.511)"/>
                        <path id="path1252" d="M1.524 0H0v1.524h1.524z" transform="translate(199.921 174.035)"/>
                        <path id="path1254" d="M1.524 0H0v1.524h1.524z" transform="translate(199.921 177.085)"/>
                        <path id="path1256" d="M1.525 0H0v1.524h1.525z" transform="translate(198.396 140.498)"/>
                        <path id="path1258" d="M1.525 0H0v1.524h1.525z" transform="translate(198.396 142.023)"/>
                        <path id="path1260" d="M1.525 0H0v1.524h1.525z" transform="translate(198.396 143.548)"/>
                        <path id="path1262" d="M1.525 0H0v1.524h1.525z" transform="translate(198.396 145.072)"/>
                        <path id="path1264" d="M1.525 0H0v1.524h1.525z" transform="translate(198.396 146.596)"/>
                        <path id="path1266" d="M1.525 0H0v1.524h1.525z" transform="translate(198.396 148.12)"/>
                        <path id="path1268" d="M1.525 0H0v1.524h1.525z" transform="translate(198.396 149.645)"/>
                        <path id="path1270" d="M1.525 0H0v1.524h1.525z" transform="translate(198.396 152.694)"/>
                        <path id="path1272" d="M1.525 0H0v1.524h1.525z" transform="translate(198.396 155.743)"/>
                        <path id="path1274" d="M1.525 0H0v1.524h1.525z" transform="translate(198.396 158.791)"/>
                        <path id="path1276" d="M1.525 0H0v1.525h1.525z" transform="translate(198.396 164.889)"/>
                        <path id="path1278" d="M1.525 0H0v1.524h1.525z" transform="translate(198.396 167.938)"/>
                        <path id="path1280" d="M1.525 0H0v1.525h1.525z" transform="translate(198.396 170.986)"/>
                        <path id="path1282" d="M1.525 0H0v1.524h1.525z" transform="translate(198.396 172.511)"/>
                        <path id="path1284" d="M1.525 0H0v1.525h1.525z" transform="translate(198.396 175.56)"/>
                        <path id="path1286" d="M1.524 0H0v1.524h1.524z" transform="translate(196.872 140.498)"/>
                        <path id="path1288" d="M1.524 0H0v1.524h1.524z" transform="translate(196.872 149.645)"/>
                        <path id="path1290" d="M1.524 0H0v1.524h1.524z" transform="translate(196.872 154.218)"/>
                        <path id="path1292" d="M1.524 0H0v1.524h1.524z" transform="translate(196.872 155.743)"/>
                        <path id="path1294" d="M1.524 0H0v1.524h1.524z" transform="translate(196.872 157.267)"/>
                        <path id="path1296" d="M1.524 0H0v1.524h1.524z" transform="translate(196.872 163.365)"/>
                        <path id="path1298" d="M1.524 0H0v1.525h1.524z" transform="translate(196.872 164.889)"/>
                        <path id="path1300" d="M1.524 0H0v1.525h1.524z" transform="translate(196.872 170.986)"/>
                        <path id="path1302" d="M1.524 0H0v1.524h1.524z" transform="translate(196.872 172.511)"/>
                        <path id="path1304" d="M1.524 0H0v1.524h1.524z" transform="translate(196.872 174.035)"/>
                        <path id="path1306" d="M1.524 0H0v1.525h1.524z" transform="translate(196.872 175.56)"/>
                        <path id="path1308" d="M1.524 0H0v1.524h1.524z" transform="translate(195.348 140.498)"/>
                        <path id="path1310" d="M1.524 0H0v1.524h1.524z" transform="translate(195.348 143.548)"/>
                        <path id="path1312" d="M1.524 0H0v1.524h1.524z" transform="translate(195.348 145.072)"/>
                        <path id="path1314" d="M1.524 0H0v1.524h1.524z" transform="translate(195.348 146.596)"/>
                        <path id="path1316" d="M1.524 0H0v1.524h1.524z" transform="translate(195.348 149.645)"/>
                        <path id="path1318" d="M1.524 0H0v1.524h1.524z" transform="translate(195.348 154.218)"/>
                        <path id="path1320" d="M1.524 0H0v1.525h1.524z" transform="translate(195.348 160.315)"/>
                        <path id="path1322" d="M1.524 0H0v1.524h1.524z" transform="translate(195.348 161.84)"/>
                        <path id="path1324" d="M1.524 0H0v1.524h1.524z" transform="translate(195.348 163.365)"/>
                        <path id="path1326" d="M1.524 0H0v1.525h1.524z" transform="translate(195.348 164.889)"/>
                        <path id="path1328" d="M1.524 0H0v1.524h1.524z" transform="translate(195.348 166.414)"/>
                        <path id="path1330" d="M1.524 0H0v1.524h1.524z" transform="translate(195.348 167.938)"/>
                        <path id="path1332" d="M1.524 0H0v1.524h1.524z" transform="translate(195.348 169.462)"/>
                        <path id="path1334" d="M1.524 0H0v1.525h1.524z" transform="translate(195.348 170.986)"/>
                        <path id="path1336" d="M1.524 0H0v1.524h1.524z" transform="translate(195.348 174.035)"/>
                        <path id="path1338" d="M1.524 0H0v1.525h1.524z" transform="translate(195.348 175.56)"/>
                        <path id="path1340" d="M1.524 0H0v1.524h1.524z" transform="translate(193.824 140.498)"/>
                        <path id="path1342" d="M1.524 0H0v1.524h1.524z" transform="translate(193.824 143.548)"/>
                        <path id="path1344" d="M1.524 0H0v1.524h1.524z" transform="translate(193.824 145.072)"/>
                        <path id="path1346" d="M1.524 0H0v1.524h1.524z" transform="translate(193.824 146.596)"/>
                        <path id="path1348" d="M1.524 0H0v1.524h1.524z" transform="translate(193.824 149.645)"/>
                        <path id="path1350" d="M1.524 0H0v1.524h1.524z" transform="translate(193.824 154.218)"/>
                        <path id="path1352" d="M1.524 0H0v1.524h1.524z" transform="translate(193.824 155.743)"/>
                        <path id="path1354" d="M1.524 0H0v1.524h1.524z" transform="translate(193.824 157.267)"/>
                        <path id="path1356" d="M1.524 0H0v1.524h1.524z" transform="translate(193.824 161.84)"/>
                        <path id="path1358" d="M1.524 0H0v1.524h1.524z" transform="translate(193.824 167.938)"/>
                        <path id="path1360" d="M1.524 0H0v1.525h1.524z" transform="translate(193.824 170.986)"/>
                        <path id="path1362" d="M1.524 0H0v1.524h1.524z" transform="translate(193.824 172.511)"/>
                        <path id="path1364" d="M1.524 0H0v1.524h1.524z" transform="translate(193.824 177.085)"/>
                        <path id="path1366" d="M1.525 0H0v1.524h1.525z" transform="translate(192.299 140.498)"/>
                        <path id="path1368" d="M1.525 0H0v1.524h1.525z" transform="translate(192.299 143.548)"/>
                        <path id="path1370" d="M1.525 0H0v1.524h1.525z" transform="translate(192.299 145.072)"/>
                        <path id="path1372" d="M1.525 0H0v1.524h1.525z" transform="translate(192.299 146.596)"/>
                        <path id="path1374" d="M1.525 0H0v1.524h1.525z" transform="translate(192.299 149.645)"/>
                        <path id="path1376" d="M1.525 0H0v1.524h1.525z" transform="translate(192.299 154.218)"/>
                        <path id="path1378" d="M1.525 0H0v1.524h1.525z" transform="translate(192.299 157.267)"/>
                        <path id="path1380" d="M1.525 0H0v1.524h1.525z" transform="translate(192.299 161.84)"/>
                        <path id="path1382" d="M1.525 0H0v1.524h1.525z" transform="translate(192.299 163.365)"/>
                        <path id="path1384" d="M1.525 0H0v1.525h1.525z" transform="translate(192.299 164.889)"/>
                        <path id="path1386" d="M1.525 0H0v1.524h1.525z" transform="translate(192.299 174.035)"/>
                        <path id="path1388" d="M1.525 0H0v1.525h1.525z" transform="translate(192.299 175.56)"/>
                        <path id="path1390" d="M1.524 0H0v1.524h1.524z" transform="translate(190.774 140.498)"/>
                        <path id="path1392" d="M1.524 0H0v1.524h1.524z" transform="translate(190.774 149.645)"/>
                        <path id="path1394" d="M1.524 0H0v1.524h1.524z" transform="translate(190.774 154.218)"/>
                        <path id="path1396" d="M1.524 0H0v1.524h1.524z" transform="translate(190.774 157.267)"/>
                        <path id="path1398" d="M1.524 0H0v1.525h1.524z" transform="translate(190.774 160.315)"/>
                        <path id="path1400" d="M1.524 0H0v1.524h1.524z" transform="translate(190.774 161.84)"/>
                        <path id="path1402" d="M1.524 0H0v1.525h1.524z" transform="translate(190.774 164.889)"/>
                        <path id="path1404" d="M1.524 0H0v1.524h1.524z" transform="translate(190.774 166.414)"/>
                        <path id="path1406" d="M1.524 0H0v1.525h1.524z" transform="translate(190.774 170.986)"/>
                        <path id="path1408" d="M1.524 0H0v1.524h1.524z" transform="translate(190.774 172.511)"/>
                        <path id="path1410" d="M1.524 0H0v1.524h1.524z" transform="translate(190.774 174.035)"/>
                        <path id="path1412" d="M1.524 0H0v1.525h1.524z" transform="translate(190.774 175.56)"/>
                        <path id="path1414" d="M1.524 0H0v1.524h1.524z" transform="translate(189.25 140.498)"/>
                        <path id="path1416" d="M1.524 0H0v1.524h1.524z" transform="translate(189.25 142.023)"/>
                        <path id="path1418" d="M1.524 0H0v1.524h1.524z" transform="translate(189.25 143.548)"/>
                        <path id="path1420" d="M1.524 0H0v1.524h1.524z" transform="translate(189.25 145.072)"/>
                        <path id="path1422" d="M1.524 0H0v1.524h1.524z" transform="translate(189.25 146.596)"/>
                        <path id="path1424" d="M1.524 0H0v1.524h1.524z" transform="translate(189.25 148.12)"/>
                        <path id="path1426" d="M1.524 0H0v1.524h1.524z" transform="translate(189.25 149.645)"/>
                        <path id="path1428" d="M1.524 0H0v1.524h1.524z" transform="translate(189.25 152.694)"/>
                        <path id="path1430" d="M1.524 0H0v1.524h1.524z" transform="translate(189.25 155.743)"/>
                        <path id="path1432" d="M1.524 0H0v1.524h1.524z" transform="translate(189.25 157.267)"/>
                        <path id="path1434" d="M1.524 0H0v1.524h1.524z" transform="translate(189.25 158.791)"/>
                        <path id="path1436" d="M1.524 0H0v1.524h1.524z" transform="translate(189.25 161.84)"/>
                        <path id="path1438" d="M1.524 0H0v1.524h1.524z" transform="translate(189.25 163.365)"/>
                        <path id="path1440" d="M1.524 0H0v1.524h1.524z" transform="translate(189.25 167.938)"/>
                        <path id="path1442" d="M1.524 0H0v1.525h1.524z" transform="translate(189.25 170.986)"/>
                        <path id="path1444" d="M1.524 0H0v1.524h1.524z" transform="translate(189.25 172.511)"/>
                        <path id="path1446" d="M1.524 0H0v1.524h1.524z" transform="translate(189.25 174.035)"/>
                        <path id="path1448" d="M1.524 0H0v1.525h1.524z" transform="translate(189.25 175.56)"/>
                        <path id="path1450" d="M1.524 0H0v1.524h1.524z" transform="translate(189.25 177.085)"/>
                        <g id="g1452" transform="translate(223.385 130.319)">
                            <path id="path1454" d="M14.115 14.114V0H0" class="cls-20"/>
                        </g>
                        <g id="g1456" transform="translate(179.11 130.319)">
                            <path id="path1458" d="M0 14.114V0h14.114" class="cls-20"/>
                        </g>
                        <g id="g1460" transform="translate(223.385 174.674)">
                            <path id="path1462" d="M14.115 0v14.115H0" class="cls-20"/>
                        </g>
                        <g id="g1464" transform="translate(179.11 174.674)">
                            <path id="path1466" d="M0 0v14.115h14.114" class="cls-20"/>
                        </g>
                        <g id="g1468" transform="translate(181.694 237.301)">
                            <path id="path1470" d="M59.2.233A7.448 7.448 0 0 0 61.013 0l18.1 6.469 55.525 75.492-40.518 35.2-51-84.447C18.7 28.9 9.964 22.749 0 .233z" class="cls-11"/>
                        </g>
                        <g id="g1472" transform="translate(190.702 253.462)">
                            <path id="path1474" d="M0 0c4.39 11.534 30.764 16.1 34.108 16.553l50.583 85.309 15.222-8.212L41.8 8.095A59.461 59.461 0 0 1 0 0" class="cls-21"/>
                        </g>
                        <g id="g1476" transform="translate(181.694 237.534)">
                            <path id="path1478" d="M0 0s1.222 2.649 3.156 6.236C17.2 1.209 36.537-1.031 50.614 3.818 51.733 1.3 56.24 1.667 58.261 0z" class="cls-21"/>
                        </g>
                        <g id="g1480" transform="translate(159.255 204.85)">
                            <path id="path1482" d="M8.537.407c5.005 1.974 17.741 4.572 14.371 12.728a6.284 6.284 0 0 1-8.19 3.449C9.888 14.233-2.811 12.37.563 4.218 1.872 1 5.287-.875 8.537.407" class="cls-11"/>
                        </g>
                        <g id="g1484" transform="translate(159.372 205.093)">
                            <path id="path1486" d="M3.464 7.239c-.78-3.9 1.993-6.776 6.542-6.18C2.134-3.59-4.5 8.34 3.9 12.165c2.692.689 11.721 5.567 14.518 4.467-6.251-1.411-14.348-6.383-14.95-9.393" class="cls-21"/>
                        </g>
                        <g id="g1488" transform="translate(173.337 211.205)">
                            <path id="path1490" d="M3.772 0c7 2.027 2.558 11.724-3.641 7.964C-.237 6.017-.062 2.808 3.772 0" class="cls-22"/>
                        </g>
                        <g id="g1492" transform="translate(151.129 184.216)">
                            <path id="path1494" d="M9.035.486l19.654 8.029c7.925 3.094 2.887 15.476-4.949 12.148L4.087 12.635A6.559 6.559 0 1 1 9.035.486" class="cls-11"/>
                        </g>
                        <g id="g1496" transform="translate(151.23 184.201)">
                            <path id="path1498" d="M4.488 8.888C2.719 7.478 1.66.89 6.9.034-.238-.681-2.855 10.1 3.986 12.651c2.623.655 20.884 9.646 23.395 8.386-8.337-3.772-16.41-6.979-22.893-12.148" class="cls-21"/>
                        </g>
                        <g id="g1500" transform="translate(174.205 194.203)">
                            <path id="path1502" d="M3.937 0c7.307 2.115 2.669 12.237-3.8 8.313C-.247 6.28-.064 2.931 3.937 0" class="cls-22"/>
                        </g>
                        <g id="g1504" transform="translate(155.872 172.177)">
                            <path id="path1506" d="M9.134.444c5.5 1.927 21.68 5.412 18.121 14.388a6.559 6.559 0 0 1-8.548 3.6C13.686 15.505-3.353 13.234.585 4.044a6.552 6.552 0 0 1 8.549-3.6" class="cls-11"/>
                        </g>
                        <g id="g1508" transform="translate(156.058 172.051)">
                            <path id="path1510" d="M3.188 8.285C1.151 4.461 4.666.364 9.247.69 1.379-3.055-4.113 9.516 4 12.719c2.978.735 15.608 7.514 18.658 6.1C15.4 16.707 5.417 12.468 3.188 8.285" class="cls-21"/>
                        </g>
                        <g id="g1512" transform="translate(173.915 179.933)">
                            <path id="path1514" d="M3.937 0c7.307 2.115 2.669 12.237-3.8 8.313C-.247 6.28-.064 2.931 3.937 0" class="cls-22"/>
                        </g>
                        <g id="g1516" transform="translate(231.168 159.783)">
                            <path id="path1518" d="M.064 14.5c.2 6.551 10.6 19.482 10.17 18.96A142.416 142.416 0 0 0 1.59 60.99c-6.928 28.844 10.392 35.855 26.94 32.364 0 0 4.2-33.946 3.429-37.467S29.831 30.929 29.643 29C29.321 27.731 16.3 13.612 12.452 8.343 8.574 3.7 6.137.076 4.655 0 2.429.231-.468 7.993.064 14.5" class="cls-11"/>
                        </g>
                        <g id="g1520" transform="translate(231.231 174.285)">
                            <path id="path1522" d="M1.078 4.41a78.608 78.608 0 0 0 9.092 14.544 142.4 142.4 0 0 0-8.644 27.534C3.43 40.917 11.7 17.071 11.7 17.071S5.928 12.382 0 0a13.414 13.414 0 0 0 1.078 4.41" class="cls-21"/>
                        </g>
                        <g id="g1524" transform="translate(235.445 159.783)">
                            <path id="path1526" d="M.07 2.163c.385.966 5.8 6.95 6.279 7.048.336.071 1.288-.511 1.827-.868C4.295 3.7 1.861.078.378 0A3.887 3.887 0 0 0 .07 2.163" class="cls-22"/>
                        </g>
                    </g>
                </g>
            </g>
            <g id="Groupe_348" opacity="0.36" transform="rotate(-3 3504.176 -2368.843)">
                <g id="Groupe_335" transform="translate(2.789)">
                    <g id="Groupe_277">
                        <path id="Tracé_2090" d="M2.521 0a2.521 2.521 0 1 0 2.52 2.521A2.523 2.523 0 0 0 2.521 0zm0 4.456a1.935 1.935 0 1 1 1.935-1.935 1.937 1.937 0 0 1-1.935 1.935z" class="cls-24"/>
                    </g>
                </g>
                <g id="Groupe_336" transform="translate(0 5.608)">
                    <g id="Groupe_279">
                        <path id="Tracé_2091" d="M7.463 0H2.954a2.962 2.962 0 0 0-1.84.643.293.293 0 1 0 .365.458A2.343 2.343 0 0 1 2.954.586h4.509a2.371 2.371 0 0 1 2.368 2.368v1.437a.006.006 0 0 1-.006.006H8.512V3.008a.293.293 0 0 0-.586 0V4.4h-5.37V3.008a.293.293 0 0 0-.586 0V4.4H.591a.006.006 0 0 1-.006-.006v-1.44A2.37 2.37 0 0 1 .88 1.808a.293.293 0 1 0-.512-.284A2.957 2.957 0 0 0 0 2.954v1.437a.592.592 0 0 0 .591.591h9.235a.592.592 0 0 0 .591-.591V2.954A2.957 2.957 0 0 0 7.463 0z" class="cls-24"/>
                    </g>
                </g>
            </g>
            <g id="Rectangle_288" fill="none" stroke="#4b869a" stroke-width="0.4px" opacity="0.4">
                <path stroke="none" d="M0 0H22.764V23.64H0z" transform="rotate(-3 3405.689 -2245.199)"/>
                <path d="M0.2 0.2H22.564V23.439999999999998H0.2z" class="cls-3" transform="rotate(-3 3405.689 -2245.199)"/>
            </g>
            <path id="Tracé_2223" d="M0 0h27.443" class="cls-26" transform="rotate(-5.13 2148.783 -1650.033)"/>
            <path id="Tracé_2224" d="M0 0h22.95" class="cls-26" transform="rotate(-5.13 2188.951 -1648.186)"/>
            <path id="Tracé_2225" d="M0 0h15.952" class="cls-26" transform="rotate(-5.13 2229.13 -1646.339)"/>
        </g>
    </g>
</svg>
