<svg xmlns="http://www.w3.org/2000/svg" width="48.703" height="48.703" viewBox="0 0 48.703 48.703">
    <defs>
        <style>
            .cls-1{fill:#fff}
        </style>
    </defs>
    <g id="shuttle_1_">
        <path id="Tracé_2181" d="M48.645 3.636A3.786 3.786 0 0 0 45.067.057 37.6 37.6 0 0 0 26.22 3.829a37 37 0 0 0-10.8 8.959l-.115.14-7.132.551A3.765 3.765 0 0 0 5.3 15.167l-4.866 7.36a2.608 2.608 0 0 0 1.776 4.016l6.009.931c-.021.117-.043.234-.062.35a3.784 3.784 0 0 0 1.061 3.291l8.37 8.37a3.793 3.793 0 0 0 2.677 1.115 3.73 3.73 0 0 0 .614-.051l.35-.062.931 6.009a2.606 2.606 0 0 0 4.016 1.776l7.36-4.866a3.764 3.764 0 0 0 1.688-2.869l.551-7.132.14-.115a37 37 0 0 0 8.959-10.8 37.6 37.6 0 0 0 3.771-18.854zM31.962 41.023l-7.04 4.655-.907-5.856a31.964 31.964 0 0 0 8.723-4.153l-.359 4.646a.93.93 0 0 1-.417.708zm-12.356-3.556l-8.37-8.37a.925.925 0 0 1-.264-.8 24.546 24.546 0 0 1 1.114-4.239l12.559 12.556a24.65 24.65 0 0 1-4.236 1.117.925.925 0 0 1-.8-.264zM8.388 16.324l4.646-.359a31.962 31.962 0 0 0-4.153 8.723l-5.856-.907 4.655-7.04a.93.93 0 0 1 .708-.417zM34.086 31.1a32.714 32.714 0 0 1-6.605 4.32L13.287 21.221a33.28 33.28 0 0 1 4.32-6.6 34.052 34.052 0 0 1 9.924-8.252 34.708 34.708 0 0 1 17.38-3.458.936.936 0 0 1 .885.885 34.7 34.7 0 0 1-3.458 17.38 34.052 34.052 0 0 1-8.252 9.924z" class="cls-1"/>
        <path id="Tracé_2182" d="M282.857 100.58a7.128 7.128 0 1 0-5.044-2.086 7.113 7.113 0 0 0 5.044 2.086zm-3.027-10.158a4.28 4.28 0 1 1-1.254 3.027 4.267 4.267 0 0 1 1.254-3.027z" class="cls-1" transform="translate(-249.496 -78.108)"/>
        <path id="Tracé_2183" d="M1.728 350.477a1.422 1.422 0 0 0 1.009-.418L7.4 345.4a1.427 1.427 0 1 0-2.018-2.018l-4.663 4.659a1.427 1.427 0 0 0 1.009 2.436z" class="cls-1" transform="translate(-.273 -310.341)"/>
        <path id="Tracé_2184" d="M11.392 388.263a1.427 1.427 0 0 0-2.018 0L.418 397.22a1.427 1.427 0 0 0 2.018 2.018l8.956-8.956a1.427 1.427 0 0 0 0-2.019z" class="cls-1" transform="translate(-.001 -350.952)"/>
        <path id="Tracé_2185" d="M95.139 433.144L90.48 437.8a1.427 1.427 0 1 0 2.018 2.018l4.658-4.658a1.427 1.427 0 0 0-2.018-2.018z" class="cls-1" transform="translate(-81.496 -391.564)"/>
    </g>
</svg>
