<svg xmlns="http://www.w3.org/2000/svg" xmlns:xlink="http://www.w3.org/1999/xlink" width="488.226" height="488.226" viewBox="0 0 488.226 488.226">
    <defs>
        <clipPath id="clip-path">
            <path id="path20" d="M767.86-3908.678a173.773 173.773 0 0 1-26.468-2 163 163 0 0 1-52.781-16.945H851.5a199.9 199.9 0 0 1-83.641 18.942m-142.342-85.169c-20.4-40.991-25.46-91.848-12.85-138.673a115.5 115.5 0 0 0 10.386 34.462l2.464 104.211m334.133-65.911l.828-57.121c0-3.126-3.55-9.122-10.079-9.122-.244 0-.491.007-.742.025L678.408-4133c-1.677-13.541-1.867-30.292-.029-51.292a122.782 122.782 0 0 0-3.618-43.708c33.871-27.25 76.467-42.274 117.934-42.274q2.2 0 4.381.057a185.807 185.807 0 0 1 47.432 7.329c-.3.229-.6.461-.895.693a1.337 1.337 0 0 0-.216 1.878 1.331 1.331 0 0 0 1.047.505h.084a1.331 1.331 0 0 0 .745-.287c.54-.427 1.1-.852 1.657-1.26a1.327 1.327 0 0 0 .479-.657 167.94 167.94 0 0 1 57.495 30.738 166.036 166.036 0 0 1 33.781 38.329c24.2 37.849 30.773 87.562 20.966 133.188m-19.613-99.428a.828.828 0 0 0-.829.766.824.824 0 0 0 .765.881c.836.059 1.679.09 2.521.09.6 0 1.2-.017 1.8-.047h.01a.826.826 0 0 0 .772-.865.826.826 0 0 0-.824-.784h-.042c-.571.029-1.146.044-1.72.044-.8 0-1.606-.029-2.4-.086h-.053m12.517-1.387a.809.809 0 0 0-.234.034 34.232 34.232 0 0 1-4.014.94.826.826 0 0 0-.673.954.825.825 0 0 0 .812.686h.051c.03 0 .059-.006.089-.011a36.294 36.294 0 0 0 4.206-.986.825.825 0 0 0 .554-1.027.824.824 0 0 0-.792-.588m-20.792-.229a.822.822 0 0 0-.784.569.823.823 0 0 0 .529 1.04 35.938 35.938 0 0 0 4.181 1.085.9.9 0 0 0 .161.015h.051a.827.827 0 0 0 .757-.666.824.824 0 0 0-.65-.968 34.344 34.344 0 0 1-3.989-1.037.865.865 0 0 0-.255-.04m-7.631-3.562a.826.826 0 0 0-.7.389.825.825 0 0 0 .265 1.137 35.8 35.8 0 0 0 3.8 2.06.8.8 0 0 0 .347.078.476.476 0 0 0 .053 0 .82.82 0 0 0 .7-.473.825.825 0 0 0-.4-1.1 34.09 34.09 0 0 1-3.622-1.963.808.808 0 0 0-.436-.127m-6.563-5.284a.817.817 0 0 0-.575.234.822.822 0 0 0-.016 1.166 35.984 35.984 0 0 0 3.2 2.908.812.812 0 0 0 .517.184h.052a.827.827 0 0 0 .591-.307.825.825 0 0 0-.124-1.159 34.8 34.8 0 0 1-3.049-2.775.818.818 0 0 0-.591-.25m-35.766-.283c-.045 0-.089 0-.134.006-1.422.139-2.848.219-4.252.239a1.338 1.338 0 0 0-1.317 1.354 1.337 1.337 0 0 0 1.336 1.318h.02c.869-.014 1.753-.048 2.628-.1q.92-.059 1.845-.149a1.336 1.336 0 0 0 1.2-1.458 1.338 1.338 0 0 0-1.325-1.208m-15.764-.856a1.337 1.337 0 0 0-1.307 1.061 1.337 1.337 0 0 0 1.033 1.583c1.458.307 2.947.555 4.42.735a1.241 1.241 0 0 0 .163.011h.087a1.34 1.34 0 0 0 1.24-1.17 1.336 1.336 0 0 0-1.162-1.49c-1.4-.173-2.813-.407-4.2-.7a1.316 1.316 0 0 0-.276-.029m26.97-1.494a1.286 1.286 0 0 0-.416.067c-1.342.439-2.722.827-4.1 1.155a1.334 1.334 0 0 0-.992 1.606 1.337 1.337 0 0 0 1.3 1.029.617.617 0 0 0 .084 0 1.4 1.4 0 0 0 .225-.032c1.45-.344 2.9-.754 4.315-1.216a1.338 1.338 0 0 0 .854-1.685 1.34 1.34 0 0 0-1.27-.921m-37.836-2.087a1.339 1.339 0 0 0-1.216.782 1.336 1.336 0 0 0 .659 1.77c1.357.62 2.752 1.189 4.151 1.69a1.351 1.351 0 0 0 .451.078h.084a1.334 1.334 0 0 0 1.172-.88 1.336 1.336 0 0 0-.807-1.709c-1.328-.477-2.653-1.017-3.941-1.605a1.323 1.323 0 0 0-.554-.122m57.289-1.986a.823.823 0 0 0-.416.112.825.825 0 0 0-.295 1.129 35.557 35.557 0 0 0 2.4 3.592.824.824 0 0 0 .657.324h.053a.814.814 0 0 0 .446-.168.824.824 0 0 0 .158-1.155 33.665 33.665 0 0 1-2.294-3.424.826.826 0 0 0-.713-.409m-9.034-.675a1.318 1.318 0 0 0-.684.19c-1.213.724-2.473 1.407-3.744 2.026a1.336 1.336 0 0 0-.615 1.787 1.337 1.337 0 0 0 1.2.75h.084a1.365 1.365 0 0 0 .5-.132c1.337-.655 2.663-1.373 3.941-2.137a1.336 1.336 0 0 0 .462-1.831 1.337 1.337 0 0 0-1.147-.651m-58.082-3.211a1.334 1.334 0 0 0-1.066.531 1.335 1.335 0 0 0 .258 1.871c1.186.9 2.424 1.757 3.682 2.554a1.333 1.333 0 0 0 .713.207h.084a1.334 1.334 0 0 0 1.045-.619 1.336 1.336 0 0 0-.413-1.844c-1.195-.756-2.371-1.572-3.5-2.426a1.32 1.32 0 0 0-.805-.273m65.575-2.231a1.337 1.337 0 0 0-.878.328c-.522.458-1.059.907-1.595 1.337a1.334 1.334 0 0 0-.207 1.876 1.333 1.333 0 0 0 1.042.5h.086a1.345 1.345 0 0 0 .75-.291c.564-.453 1.129-.927 1.68-1.407a1.335 1.335 0 0 0 .128-1.884 1.33 1.33 0 0 0-1.007-.458m-73.893-5.642a1.325 1.325 0 0 0-.862.317 1.338 1.338 0 0 0-.157 1.884c.962 1.131 1.983 2.242 3.039 3.294a1.332 1.332 0 0 0 .943.39h.084a1.331 1.331 0 0 0 .861-.39 1.335 1.335 0 0 0 0-1.889c-1-1-1.974-2.054-2.887-3.132a1.334 1.334 0 0 0-1.02-.473m-6.394-9.5a1.337 1.337 0 0 0-.617.151 1.336 1.336 0 0 0-.565 1.8c.688 1.318 1.442 2.625 2.242 3.882a1.331 1.331 0 0 0 1.128.619h.086a1.326 1.326 0 0 0 .63-.207 1.334 1.334 0 0 0 .41-1.842c-.759-1.2-1.475-2.436-2.129-3.687a1.334 1.334 0 0 0-1.186-.717m-4.144-10.679a1.316 1.316 0 0 0-.342.046 1.335 1.335 0 0 0-.949 1.634c.381 1.439.83 2.88 1.33 4.278a1.337 1.337 0 0 0 1.258.886h.084a1.469 1.469 0 0 0 .366-.075 1.337 1.337 0 0 0 .808-1.708c-.476-1.33-.9-2.7-1.265-4.064a1.337 1.337 0 0 0-1.291-.994m-1.712-11.321h-.057a1.321 1.321 0 0 0-1.279 1.39c.016.4.037.789.062 1.183.068 1.092.172 2.2.309 3.283a1.337 1.337 0 0 0 1.324 1.171h.084l.083-.009a1.335 1.335 0 0 0 1.159-1.491c-.129-1.034-.228-2.083-.293-3.121q-.036-.564-.059-1.125a1.335 1.335 0 0 0-1.333-1.281m.434-9.219a1.335 1.335 0 0 0-1.32 1.155c-.1.722-.186 1.455-.254 2.175a1.334 1.334 0 0 0 1.2 1.458 1.026 1.026 0 0 0 .128.005h.087a1.336 1.336 0 0 0 1.244-1.2c.066-.687.146-1.382.241-2.068a1.335 1.335 0 0 0-1.141-1.5 1.143 1.143 0 0 0-.186-.014M642.385-4185.1q-1.632-2.419-3.3-4.706 1.381-1.989 2.809-3.93.173 4.282.487 8.635" transform="translate(-605.81 4270.27)"/>
        </clipPath>
        <clipPath id="clip-path-2">
            <path id="path36" d="M1005.693-4195.834l-12.661-.327a84.932 84.932 0 0 1-1.505-9.467c-.771-7.393-.791-14.908-.846-22.443s-.182-15.111-.61-22.67q-.306-5.666-.815-11.32c-.159-1.885-.354-3.766-.546-5.648q-.315-2.818-.666-5.633-1.434-11.254-3.56-22.395c-1.455-7.415-3.105-14.791-5.037-22.086a.39.39 0 0 0-.377-.292.326.326 0 0 0-.1.015.389.389 0 0 0-.282.459c1.6 7.362 3.057 14.749 4.24 22.183q1.833 11.134 2.981 22.359c.734 7.479 1.327 14.973 1.6 22.479.308 7.507.293 15.017.252 22.557 0 5.659-.023 11.35.277 17.059a153.116 153.116 0 0 0-18.367-36.963q-.318-4.346-.487-8.635c-1.443-35.619 3.96-67.382.584-81.542a1.5 1.5 0 0 1 1.479-1.845 1.477 1.477 0 0 1 .982.379c7.6 6.661 22.552 22.49 29.815 48.776a122.773 122.773 0 0 1 3.618 43.707c-1.838 21-1.648 37.752.029 51.293" transform="translate(-968.934 4339.989)"/>
        </clipPath>
        <clipPath id="clip-path-3">
            <path id="path52" d="M1082.011-3996.409l-.885-.022a144.886 144.886 0 0 0-4.108-14.821c-.3-5.71-.276-11.4-.277-17.059.041-7.541.056-15.051-.252-22.557-.275-7.506-.868-15-1.6-22.479q-1.144-11.218-2.981-22.359c-1.184-7.433-2.639-14.821-4.24-22.183a.389.389 0 0 1 .282-.459.325.325 0 0 1 .1-.014.391.391 0 0 1 .377.291c1.932 7.3 3.583 14.672 5.038 22.087q2.128 11.131 3.559 22.394.354 2.815.666 5.633c.192 1.882.387 3.764.546 5.648q.509 5.651.815 11.321c.429 7.557.546 15.131.611 22.669s.076 15.051.846 22.444a84.857 84.857 0 0 0 1.505 9.466" transform="translate(-1067.657 4118.362)"/>
        </clipPath>
        <clipPath id="clip-path-4">
            <path id="path68" d="M585.828-3683.773a115.5 115.5 0 0 1-10.386-34.463c-.558-4-.937-8.156-1.106-12.477-1.693-43.2-6.717-66.46-9.729-76.863a2.379 2.379 0 0 1 2.291-3.041 2.337 2.337 0 0 1 1.432.5 170.58 170.58 0 0 1 33.535 34.571q1.662 2.286 3.3 4.7a153.111 153.111 0 0 1 18.366 36.963 144.949 144.949 0 0 1 4.108 14.821l-27.042-.7c-.129 0-.257-.005-.386-.005a14.885 14.885 0 0 0-5.777 1.167 267.308 267.308 0 0 1-7.992-44.784 1.049 1.049 0 0 0-1.045-.962.788.788 0 0 0-.089 0 1.05 1.05 0 0 0-.957 1.134 269.924 269.924 0 0 0 8.172 45.58 14.875 14.875 0 0 0-2.818 2.2 14.854 14.854 0 0 0-4.365 10.871l.491 20.78" transform="translate(-564.507 3810.617)"/>
        </clipPath>
        <clipPath id="clip-path-5">
            <path id="path84" d="M773.67-3295.06a269.949 269.949 0 0 1-8.172-45.58 1.051 1.051 0 0 1 .957-1.135h.089a1.049 1.049 0 0 1 1.045.962 267.317 267.317 0 0 0 7.992 44.784 14.6 14.6 0 0 0-1.912.973" transform="translate(-765.495 3341.779)"/>
        </clipPath>
        <clipPath id="clip-path-6">
            <path id="path100" d="M1104.873-2683.683H785.8a5.915 5.915 0 0 1-5.9-5.894l-1.427-60.333L776-2854.121l-.491-20.779a14.853 14.853 0 0 1 4.365-10.871 14.853 14.853 0 0 1 2.818-2.2 14.776 14.776 0 0 1 1.912-.973 14.884 14.884 0 0 1 5.777-1.167h.386l27.042.7.885.022 12.661.328 271.249 7.018c.251-.018.5-.025.742-.025 6.528 0 10.079 6 10.079 9.122l-.828 57.122-1.828 126.243a5.915 5.915 0 0 1-5.9 5.895M791.717-2883.12a10.445 10.445 0 0 0-7.373 3.049 10.443 10.443 0 0 0-3.069 7.648l4.445 177.189a5.6 5.6 0 0 0 5.582 5.583h305.875a5.6 5.6 0 0 0 5.583-5.583l2.505-166.46c-.287-9.741-8.6-13.414-13.952-13.414-.153 0-.3 0-.448.009L792-2883.116h-.28" transform="translate(-775.509 2890.113)"/>
        </clipPath>
        <clipPath id="clip-path-7">
            <path id="path116" d="M1149.809-2625.791H843.934a5.6 5.6 0 0 1-5.582-5.582l-4.445-177.189a10.442 10.442 0 0 1 3.068-7.648 10.446 10.446 0 0 1 7.373-3.049h.28l298.869 8.019c.147-.007.3-.01.449-.01 5.354 0 13.665 3.673 13.952 13.414l-2.506 166.46a5.6 5.6 0 0 1-5.583 5.582m2.475-99.8a.819.819 0 0 0-.819.806l-.2 13.5a.818.818 0 0 0 .805.831h.013a.818.818 0 0 0 .817-.806l.2-13.5a.818.818 0 0 0-.805-.831h-.012m-11.319-80.841c1.159 0 5.756.2 8.776 3.09a9.707 9.707 0 0 1 2.771 7.271l-.759 51.7a.82.82 0 0 0 .807.831h.012a.818.818 0 0 0 .817-.806l.759-51.72a11.293 11.293 0 0 0-3.276-8.462c-3.4-3.255-8.3-3.548-9.791-3.548-.192 0-.326.005-.395.009l-95.467-2.562h-.07a.788.788 0 0 0-.771.8.817.817 0 0 0 .8.838l95.525 2.562h.265" transform="translate(-833.904 2819.26)"/>
        </clipPath>
        <clipPath id="clip-path-8">
            <path id="path132" d="M4050.234-1855.06h-.012a.818.818 0 0 1-.806-.83l.2-13.5a.819.819 0 0 1 .819-.806h.012a.816.816 0 0 1 .8.83l-.2 13.5a.819.819 0 0 1-.817.805" transform="translate(-4049.416 1870.196)"/>
        </clipPath>
        <clipPath id="clip-path-9">
            <path id="path148" d="M3074.622-2664.688h-.012a.819.819 0 0 1-.806-.831l.759-51.7a9.709 9.709 0 0 0-2.772-7.271c-3.02-2.895-7.616-3.09-8.775-3.09h-.265l-95.525-2.562a.815.815 0 0 1-.8-.838.788.788 0 0 1 .771-.8h.069l95.468 2.561c.068 0 .2-.009.395-.009 1.487 0 6.395.293 9.791 3.548a11.294 11.294 0 0 1 3.275 8.462l-.759 51.72a.818.818 0 0 1-.817.806" transform="translate(-2966.43 2731.779)"/>
        </clipPath>
        <clipPath id="clip-path-10">
            <path id="path164" d="M558.428-791.487H933.12a.747.747 0 0 0 .745-.744v-14.623a.748.748 0 0 0-.745-.745H558.428a.747.747 0 0 0-.744.745v14.623a.746.746 0 0 0 .744.744z" transform="translate(-557.684 807.598)"/>
        </clipPath>
        <clipPath id="clip-path-11">
            <path id="path184" d="M3011.42-4192.366a1.326 1.326 0 0 1-1.047-.506 1.334 1.334 0 0 1 .216-1.876c.293-.232.594-.465.895-.694q1.439.419 2.9.87a1.327 1.327 0 0 1-.479.656c-.561.408-1.118.832-1.657 1.26a1.333 1.333 0 0 1-.746.288h-.083" transform="translate(-3010.083 4195.442)"/>
        </clipPath>
        <clipPath id="clip-path-12">
            <path id="path200" d="M2814.1-3845.649a.931.931 0 0 1-.127-.007 1.335 1.335 0 0 1-1.2-1.457c.069-.721.154-1.455.254-2.177a1.333 1.333 0 0 1 1.32-1.154 1.315 1.315 0 0 1 .185.013 1.337 1.337 0 0 1 1.142 1.506c-.1.685-.175 1.381-.241 2.066a1.337 1.337 0 0 1-1.244 1.206h-.087" transform="translate(-2812.769 3850.444)"/>
        </clipPath>
        <clipPath id="clip-path-13">
            <path id="path216" d="M2864.828-3704.444a1.336 1.336 0 0 1-1.335-1.317 1.337 1.337 0 0 1 1.317-1.354c1.4-.021 2.829-.1 4.251-.239.045 0 .09-.007.134-.007a1.337 1.337 0 0 1 1.325 1.207 1.337 1.337 0 0 1-1.2 1.459q-.925.091-1.845.148c-.875.056-1.76.09-2.628.1h-.02m-7.086-.384a1.333 1.333 0 0 1-.164-.011c-1.473-.181-2.961-.429-4.42-.735a1.338 1.338 0 0 1-1.033-1.583 1.338 1.338 0 0 1 1.307-1.061 1.279 1.279 0 0 1 .276.029c1.384.292 2.8.526 4.2.7a1.336 1.336 0 0 1 1.162 1.49 1.337 1.337 0 0 1-1.239 1.169h-.087m18.451-1.026a1.337 1.337 0 0 1-1.3-1.028 1.336 1.336 0 0 1 .993-1.607c1.378-.328 2.757-.716 4.1-1.155a1.314 1.314 0 0 1 .416-.067 1.337 1.337 0 0 1 1.27.921 1.336 1.336 0 0 1-.854 1.684c-1.413.463-2.865.873-4.314 1.216a1.4 1.4 0 0 1-.225.033h-.084m-29.582-1.625a1.33 1.33 0 0 1-.452-.079c-1.4-.5-2.793-1.07-4.15-1.69a1.336 1.336 0 0 1-.66-1.77 1.338 1.338 0 0 1 1.216-.782 1.327 1.327 0 0 1 .554.122c1.288.589 2.613 1.128 3.941 1.6a1.336 1.336 0 0 1 .806 1.709 1.338 1.338 0 0 1-1.172.882h-.084m40.369-2.228a1.337 1.337 0 0 1-1.2-.75 1.336 1.336 0 0 1 .615-1.787c1.271-.62 2.53-1.3 3.744-2.026a1.315 1.315 0 0 1 .685-.189 1.338 1.338 0 0 1 1.147.649 1.337 1.337 0 0 1-.462 1.833c-1.278.763-2.6 1.481-3.941 2.136a1.377 1.377 0 0 1-.5.133h-.084m-50.653-2.8a1.33 1.33 0 0 1-.713-.207c-1.258-.8-2.5-1.657-3.683-2.554a1.335 1.335 0 0 1-.258-1.872 1.335 1.335 0 0 1 1.066-.53 1.324 1.324 0 0 1 .806.272c1.126.853 2.3 1.668 3.5 2.427a1.337 1.337 0 0 1 .414 1.844 1.331 1.331 0 0 1-1.046.617.791.791 0 0 1-.084 0m-8.942-7.151a1.333 1.333 0 0 1-.943-.389c-1.055-1.054-2.077-2.163-3.039-3.3a1.336 1.336 0 0 1 .157-1.883 1.327 1.327 0 0 1 .862-.317 1.331 1.331 0 0 1 1.02.473c.914 1.078 1.885 2.132 2.888 3.132a1.335 1.335 0 0 1 0 1.888 1.326 1.326 0 0 1-.861.39.819.819 0 0 1-.085 0m-7.169-8.93a1.333 1.333 0 0 1-1.128-.62c-.8-1.257-1.554-2.564-2.242-3.882a1.336 1.336 0 0 1 .564-1.8 1.337 1.337 0 0 1 .617-.151 1.335 1.335 0 0 1 1.186.717c.654 1.253 1.37 2.493 2.13 3.687a1.337 1.337 0 0 1-.411 1.844 1.348 1.348 0 0 1-.631.206h-.085m-5.035-10.291a1.338 1.338 0 0 1-1.258-.885c-.5-1.4-.949-2.839-1.33-4.278a1.336 1.336 0 0 1 .949-1.635 1.331 1.331 0 0 1 .342-.045 1.336 1.336 0 0 1 1.291.994c.363 1.368.788 2.735 1.265 4.064a1.336 1.336 0 0 1-.809 1.708 1.374 1.374 0 0 1-.365.075.8.8 0 0 1-.084 0m-2.651-11.137a1.336 1.336 0 0 1-1.323-1.171c-.137-1.085-.241-2.191-.31-3.283q-.037-.591-.062-1.182a1.321 1.321 0 0 1 1.279-1.39h.057a1.336 1.336 0 0 1 1.333 1.28q.023.56.06 1.125c.065 1.037.164 2.086.293 3.121a1.335 1.335 0 0 1-1.159 1.49l-.083.008h-.084" transform="translate(-2810.834 3757.044)"/>
        </clipPath>
        <clipPath id="clip-path-14">
            <path id="path232" d="M3668.391-3376.684a1.332 1.332 0 0 1-1.042-.5 1.335 1.335 0 0 1 .206-1.876c.536-.43 1.072-.878 1.6-1.335a1.329 1.329 0 0 1 .877-.329 1.332 1.332 0 0 1 1.007.458 1.336 1.336 0 0 1-.127 1.885c-.552.48-1.117.953-1.681 1.405a1.331 1.331 0 0 1-.75.291h-.086" transform="translate(-3667.056 3380.725)"/>
        </clipPath>
        <clipPath id="clip-path-15">
            <path id="path250" d="M3262.187-3857.84a6.973 6.973 0 0 0-2.461 4.781 7.03 7.03 0 0 0 6.417 7.582 7.031 7.031 0 0 0 7.583-6.418 7.034 7.034 0 0 0-6.418-7.583 7.352 7.352 0 0 0-1.042-.01 6.975 6.975 0 0 0-4.079 1.648zm3.78 14.493a9.173 9.173 0 0 1-8.372-9.89 9.1 9.1 0 0 1 3.211-6.233 9.088 9.088 0 0 1 6.678-2.137 9.172 9.172 0 0 1 8.371 9.889 9.174 9.174 0 0 1-8.543 8.384 9.382 9.382 0 0 1-1.345-.013z" transform="translate(-3257.563 3861.64)"/>
        </clipPath>
        <clipPath id="clip-path-16">
            <path id="path266" d="M3144.519-3953.333a22.784 22.784 0 0 0 2.3-.263c.241-.04.481-.083.723-.131a22.645 22.645 0 0 0 3.47-.983.376.376 0 0 0 .046-.017l.13-.048.252-.1a.535.535 0 0 0 .337-.531.536.536 0 0 0-.037-.163.535.535 0 0 0-.692-.3 21.489 21.489 0 0 1-4.4 1.219 21.46 21.46 0 0 1-19.493-6.859 21.334 21.334 0 0 1-5.187-10.8 21.81 21.81 0 0 1-.251-2.193 21.3 21.3 0 0 1 3.971-13.8 21.31 21.31 0 0 1 13.94-8.683 21.482 21.482 0 0 1 24.681 17.66 21.312 21.312 0 0 1 .247 2.166 21.367 21.367 0 0 1-1.445 9.2.545.545 0 0 0-.037.231.537.537 0 0 0 .338.463.534.534 0 0 0 .692-.3 22.434 22.434 0 0 0 1.518-9.661 22.5 22.5 0 0 0-.259-2.274 22.556 22.556 0 0 0-25.911-18.54 22.379 22.379 0 0 0-14.635 9.116 22.367 22.367 0 0 0-4.166 14.492 22.731 22.731 0 0 0 .264 2.3 22.376 22.376 0 0 0 9.115 14.636 22.36 22.36 0 0 0 14.489 4.163z" transform="translate(-3120.601 3998.35)"/>
        </clipPath>
        <clipPath id="clip-path-17">
            <path id="path286" d="M3911.53-3157.813c-.842 0-1.686-.031-2.521-.09a.823.823 0 0 1-.764-.88.827.827 0 0 1 .829-.767h.053c.793.057 1.6.086 2.4.086.574 0 1.149-.015 1.72-.043a.309.309 0 0 1 .042 0 .827.827 0 0 1 .824.784.828.828 0 0 1-.772.866h-.011q-.9.045-1.8.046m5.952-.511a.824.824 0 0 1-.812-.686.824.824 0 0 1 .672-.953 34.69 34.69 0 0 0 4.013-.941.8.8 0 0 1 .235-.034.825.825 0 0 1 .792.588.824.824 0 0 1-.554 1.026 35.989 35.989 0 0 1-4.206.987c-.03.005-.059.007-.089.011h-.051m-12.6-.131a.874.874 0 0 1-.161-.016 35.742 35.742 0 0 1-4.181-1.085.824.824 0 0 1-.529-1.04.821.821 0 0 1 .784-.569.9.9 0 0 1 .255.039 34.067 34.067 0 0 0 3.988 1.038.825.825 0 0 1 .65.968.824.824 0 0 1-.757.665.446.446 0 0 1-.051 0" transform="translate(-3899.973 3161.166)"/>
        </clipPath>
        <clipPath id="clip-path-18">
            <path id="path304" d="M3720.644-3303.1a.824.824 0 0 1-.348-.078 35.65 35.65 0 0 1-3.8-2.06.827.827 0 0 1-.265-1.137.827.827 0 0 1 .7-.389.811.811 0 0 1 .436.126 34.019 34.019 0 0 0 3.622 1.963.825.825 0 0 1 .4 1.1.823.823 0 0 1-.7.473.486.486 0 0 1-.053 0m-7.148-4.456a.809.809 0 0 1-.517-.184 36.089 36.089 0 0 1-3.2-2.908.823.823 0 0 1 .016-1.166.817.817 0 0 1 .576-.234.817.817 0 0 1 .59.25 34.8 34.8 0 0 0 3.049 2.773.826.826 0 0 1 .124 1.161.823.823 0 0 1-.591.305.446.446 0 0 1-.051 0m-5.878-6.041a.82.82 0 0 1-.656-.325 35.439 35.439 0 0 1-2.4-3.592.826.826 0 0 1 .295-1.128.827.827 0 0 1 .417-.113.827.827 0 0 1 .713.409 33.674 33.674 0 0 0 2.294 3.424.826.826 0 0 1-.158 1.156.818.818 0 0 1-.446.167h-.053" transform="translate(-3704.445 3318.752)"/>
        </clipPath>
        <clipPath id="clip-path-19">
            <path id="path324" d="M3955.448-3548.4a4.559 4.559 0 0 0 1.071 3.346 4.568 4.568 0 0 0 3.123 1.61 4.575 4.575 0 0 0 3.347-1.071 4.568 4.568 0 0 0 1.609-3.125 4.6 4.6 0 0 0-4.194-4.955 4.454 4.454 0 0 0-.675-.006 4.6 4.6 0 0 0-4.281 4.201zm4.059 6.6a6.188 6.188 0 0 1-4.247-2.187 6.193 6.193 0 0 1-1.458-4.55 6.251 6.251 0 0 1 6.737-5.7 6.248 6.248 0 0 1 5.7 6.736 6.2 6.2 0 0 1-2.187 4.247 6.193 6.193 0 0 1-3.623 1.465 6.161 6.161 0 0 1-.922-.011z" transform="translate(-3953.781 3554.256)"/>
        </clipPath>
        <clipPath id="clip-path-20">
            <path id="path360" d="M1481.854-3337.368c27.946.785 135.225 3.683 162.314 4.414 3.418.092 6.134 2.285 6 4.84-.125 2.433-2.8 4.3-6.051 4.22l-162.241-3.822c-3.125-.074-5.732-1.92-6.014-4.257l-.073-.592c-.319-2.673 2.492-4.903 6.065-4.803z" transform="translate(-1475.767 3337.371)"/>
        </clipPath>
        <clipPath id="clip-path-21">
            <path id="path376" d="M1497.728-3113.463a2.856 2.856 0 0 0 2.215 1.055l111.338 3.905c1.4.05 2.559-.747 2.612-1.793l.283-5.488c.055-1.09-1.109-2.025-2.567-2.059l-108.3-2.531c-4.822-.112-7.891 3.686-5.581 6.911z" transform="translate(-1496.944 3120.377)"/>
        </clipPath>
        <clipPath id="clip-path-22">
            <path id="path392" d="M1454.121-2834.409c27.946.784 135.225 3.682 162.314 4.414 3.417.092 6.132 2.285 6 4.84-.125 2.433-2.8 4.3-6.052 4.22l-162.24-3.822c-3.126-.074-5.733-1.92-6.016-4.257l-.071-.592c-.323-2.674 2.489-4.9 6.061-4.8z" transform="translate(-1448.034 2834.412)"/>
        </clipPath>
        <clipPath id="clip-path-23">
            <path id="path408" d="M1469.993-2610.5a2.858 2.858 0 0 0 2.215 1.054l111.336 3.906c1.4.05 2.559-.747 2.613-1.793l.282-5.488c.057-1.091-1.109-2.025-2.568-2.06l-108.3-2.53c-4.82-.117-7.887 3.681-5.578 6.911z" transform="translate(-1469.209 2617.418)"/>
        </clipPath>
        <clipPath id="clip-path-24">
            <path id="path424" d="M1612.311-2196.355a77.458 77.458 0 0 1 11.527-34.469 80.139 80.139 0 0 1 11.432-14.447c1.121-1.059 2.215-2.148 3.362-3.18 1.18-.992 2.333-2.023 3.541-2.985 1.236-.926 2.457-1.875 3.727-2.757l1.937-1.277.969-.637.486-.319c.175-.11.41-.25.621-.362a9.739 9.739 0 0 1 11.589 1.348 8.711 8.711 0 0 1 1.779 2.693 10.2 10.2 0 0 1 .485 1.417 11.481 11.481 0 0 1 .3 1.394 19.631 19.631 0 0 1 .038 5.2c-.087.824-.221 1.633-.366 2.421l-.442 2.225c-.284 1.486-.616 2.962-.939 4.44-.653 2.953-1.392 5.888-2.169 8.812a204.24 204.24 0 0 1-12.513 34.017l-1.981 4.08c-.694 1.343-1.369 2.7-2.077 4.032l-1.074 2-.537 1-.591 1.042a30.513 30.513 0 0 1-2.8 4.014 18.815 18.815 0 0 1-3.785 3.532 10.745 10.745 0 0 1-5.465 1.948 7.456 7.456 0 0 1-1.55-.057 8.374 8.374 0 0 1-1.5-.314 8.818 8.818 0 0 1-2.745-1.326 10.566 10.566 0 0 1-3.581-4.55 14.185 14.185 0 0 1-1.036-5.29 21.2 21.2 0 0 1 .6-5 43.62 43.62 0 0 1 1.329-4.507l.744-2.185.837-2.149a80.719 80.719 0 0 1 8.684-16.2 81.416 81.416 0 0 1 12.034-13.841l.84-.783.875-.744 1.754-1.482c.6-.479 1.209-.937 1.813-1.407s1.2-.945 1.84-1.372c1.254-.877 2.5-1.771 3.8-2.563l.97-.613.485-.305c.086-.053.149-.1.254-.158l.32-.178a7.715 7.715 0 0 1 2.782-.86 7.08 7.08 0 0 1 5.545 1.725 5.752 5.752 0 0 1 1.683 2.678 7.382 7.382 0 0 1 .2 2.869 16.01 16.01 0 0 1-.483 2.452l-.608 2.177-1.21 4.311c-1.6 5.75-3.266 11.484-4.9 17.229v.013l-2.52-.452a13.2 13.2 0 0 1 1.774-5.636 9.268 9.268 0 0 1 2.041-2.346 8.035 8.035 0 0 1 2.822-1.46 7.424 7.424 0 0 1 3.218-.209 6.094 6.094 0 0 1 1.608.484 6.242 6.242 0 0 1 .751.4l.508.32a4.6 4.6 0 0 0 4.04.267 4.154 4.154 0 0 0 .891-.512 3.916 3.916 0 0 0 .392-.337l.192-.186.229-.246 1.837-1.959 3.675-3.919 3.674-3.919 1.837-1.959a3.546 3.546 0 0 1 1.82-1.037 3.4 3.4 0 0 1 2.1.237 3.531 3.531 0 0 1 1.565 1.377 3.32 3.32 0 0 1 .456 2.09 2.34 2.34 0 0 1-.095.514c-.042.157-.1.362-.132.437l-.22.619-.417 1.245c-.539 1.665-.995 3.357-1.376 5.065s-.678 3.437-.894 5.173c-.024.213-.057.442-.074.644l-.016.53a1.919 1.919 0 0 0 .034.521 2.643 2.643 0 0 0 .083.51 4.288 4.288 0 0 0 .946 1.809 4.4 4.4 0 0 0 1.7 1.2 5.1 5.1 0 0 0 1 .3 5.005 5.005 0 0 0 1.038.04 4.065 4.065 0 0 0 1.949-.623l.228-.127.2-.169.416-.338.949-.93q3.79-3.724 7.24-7.776a119.142 119.142 0 0 0 12.233-17.346l1.3-2.316.629-1.171.315-.584.078-.146v-.008s-.007.012 0 .027c0 .1.04.118.028.109a.1.1 0 0 0 .059.009c.04-.009.092-.019.091-.026h-.005l-.113.116-.226.229c-.151.151-.3.308-.446.466-.3.311-.58.635-.863.957a32.15 32.15 0 0 0-3.044 4.165q-.673 1.1-1.263 2.253c-.193.384-.383.771-.562 1.163l-.263.589-.13.3-.086.264a5.43 5.43 0 0 0 .116 4.233 5.7 5.7 0 0 0 3.12 2.917 5.531 5.531 0 0 0 2.119.378 5.717 5.717 0 0 0 2.1-.524l.505-.231.57-.33c.378-.224.762-.437 1.134-.671.751-.454 1.493-.926 2.227-1.408a66.819 66.819 0 0 0 15.485-14.173 1.284 1.284 0 0 1 1.806-.208 1.285 1.285 0 0 1 .207 1.805 69.377 69.377 0 0 1-16.083 14.722c-.763.5-1.531.991-2.313 1.462-.386.244-.784.464-1.178.7l-.592.345-.712.336a8.282 8.282 0 0 1-3.074.751 8.11 8.11 0 0 1-3.132-.55 8.264 8.264 0 0 1-4.527-4.235 8.023 8.023 0 0 1-.191-6.209l.128-.373.141-.318.284-.637c.194-.422.4-.839.607-1.254q.635-1.241 1.364-2.432a34.638 34.638 0 0 1 3.289-4.5c.306-.35.614-.7.935-1.037q.237-.256.483-.5l.245-.248.123-.124c.079-.072.167-.146.254-.216a2.373 2.373 0 0 1 1.324-.5 2.5 2.5 0 0 1 1.345.317 2.474 2.474 0 0 1 1.275 2.324 2.41 2.41 0 0 1-.155.681c-.04.1-.088.213-.129.3l-.081.149-.321.6-.642 1.2-1.331 2.366a121.76 121.76 0 0 1-12.5 17.727q-3.518 4.137-7.4 7.944l-.97.95-.621.516-.317.253-.354.209a6.607 6.607 0 0 1-3.111.989 7.507 7.507 0 0 1-1.639-.069 7.714 7.714 0 0 1-1.562-.464 6.964 6.964 0 0 1-2.639-1.878 6.839 6.839 0 0 1-1.515-2.9 5.01 5.01 0 0 1-.137-.811 3.78 3.78 0 0 1-.052-.815l.03-.812.08-.691q.338-2.725.934-5.41c.4-1.787.875-3.557 1.439-5.3l.436-1.3.23-.648a1.329 1.329 0 0 0 .059-.2.353.353 0 0 0 .029-.144.745.745 0 0 0-.1-.487.981.981 0 0 0-.426-.367.819.819 0 0 0-.987.217l-1.837 1.96-3.674 3.918-3.674 3.919-1.837 1.959-.23.245-.287.285a6.676 6.676 0 0 1-.627.535 6.686 6.686 0 0 1-1.43.822 7.17 7.17 0 0 1-6.31-.395l-.629-.393a3.578 3.578 0 0 0-.43-.23 3.529 3.529 0 0 0-.956-.287 4.889 4.889 0 0 0-2.1.144 5.857 5.857 0 0 0-3.381 2.683 10.7 10.7 0 0 0-1.4 4.53l-2.521-.452v-.013c1.445-5.793 2.855-11.6 4.331-17.38l1.1-4.342.541-2.151a12.784 12.784 0 0 0 .337-1.945 4 4 0 0 0-.13-1.567 2.248 2.248 0 0 0-.7-1.037 3.511 3.511 0 0 0-2.781-.751 4.046 4.046 0 0 0-1.457.5l-.166.1-.217.142-.454.3-.908.608c-1.225.784-2.383 1.668-3.554 2.532-.595.42-1.148.9-1.715 1.35s-1.133.912-1.689 1.382l-1.627 1.453-.816.724-.785.756a77.184 77.184 0 0 0-11.2 13.312 76.278 76.278 0 0 0-7.959 15.431l-.756 2.035-.665 2.066a39.215 39.215 0 0 0-1.142 4.1 11.988 11.988 0 0 0 .3 7.309 5.592 5.592 0 0 0 1.909 2.378 3.762 3.762 0 0 0 1.278.583 3.9 3.9 0 0 0 1.369.145 5.667 5.667 0 0 0 2.833-1.093 13.772 13.772 0 0 0 2.706-2.595 25.243 25.243 0 0 0 2.287-3.348l.505-.909.515-.978 1.03-1.956c.679-1.306 1.327-2.63 1.991-3.945l1.9-3.992a208.216 208.216 0 0 0 12.027-33.188c.748-2.85 1.459-5.706 2.087-8.584.312-1.438.63-2.875.9-4.323l.424-2.166c.123-.68.231-1.345.3-2.005a14.271 14.271 0 0 0-.016-3.731 4.613 4.613 0 0 0-1.066-2.52 2.9 2.9 0 0 0-.933-.654 4.319 4.319 0 0 0-1.29-.326 5.075 5.075 0 0 0-2.8.61c-.119.063-.205.112-.346.2l-.453.295-.9.588-1.81 1.174c-1.191.807-2.32 1.7-3.5 2.533-1.144.874-2.237 1.815-3.361 2.717-1.091.942-2.132 1.943-3.2 2.91a82.033 82.033 0 0 0-11.135 13.273 82.674 82.674 0 0 0-12.928 32.234 1.287 1.287 0 0 1-1.483 1.054 1.294 1.294 0 0 1-1.068-1.399z" class="cls-1" transform="translate(-1612.308 2258.092)"/>
        </clipPath>
        <clipPath id="clip-path-25">
            <path id="path440" d="M2955.159-2125.259a1.286 1.286 0 0 1-1.09-.6 1.286 1.286 0 0 1 .407-1.771l12.835-8.041a1.283 1.283 0 0 1 1.771.407 1.283 1.283 0 0 1-.407 1.77l-12.835 8.042a1.28 1.28 0 0 1-.681.193z" class="cls-2" transform="translate(-2953.873 2135.87)"/>
        </clipPath>
        <clipPath id="clip-path-26">
            <path id="path456" d="M3575.909-632.638c3.963.342 10.842.9 16.266 1.137a15.655 15.655 0 0 0 6.216-.608c0 .121 0 .237-.008.343a1.123 1.123 0 0 1-1.066 1.059 190.551 190.551 0 0 1-21.3.022.8.8 0 0 1-.65-1.2 6.549 6.549 0 0 1 .542-.753z" transform="translate(-3575.257 632.638)"/>
        </clipPath>
        <clipPath id="clip-path-27">
            <path id="path472" d="M3598.136-704.591c-5.423-.238-12.3-.8-16.265-1.137 3.9-4.781 16.265-8 16.265-8h3.493a14.654 14.654 0 0 1 2.724 8.533 15.658 15.658 0 0 1-6.217.604z" transform="translate(-3581.871 713.732)"/>
        </clipPath>
        <clipPath id="clip-path-28">
            <path id="path488" d="M3728.508-771.5l-.327 6.468a1.476 1.476 0 0 1-1.262 1.39 5.74 5.74 0 0 1-2.624-.217 1.747 1.747 0 0 1-1.174-1.344l-1.13-6.3z" transform="translate(-3721.991 771.505)"/>
        </clipPath>
        <clipPath id="clip-path-29">
            <path id="path504" d="M4193.127-640.671a3.137 3.137 0 0 0 2.824-2.087l.006.026a2.233 2.233 0 0 1-1.506 2.547 9.825 9.825 0 0 1-4.167.653 4.146 4.146 0 0 1-3.126-1.441l-.008-.013c1.295.64 3.112.715 5.977.315z" transform="translate(-4187.15 642.758)"/>
        </clipPath>
        <clipPath id="clip-path-30">
            <path id="path520" d="M4146.56-771.937h2.88c4.389-.089 7.144 9.166 8.045 12.749a3.134 3.134 0 0 1-2.821 2.087c-2.866.4-4.684.325-5.979-.316-2.372-3.119-3.547-7.688-4.111-10.355a3.635 3.635 0 0 1 1.986-4.165z" transform="translate(-4144.472 771.938)"/>
        </clipPath>
        <clipPath id="clip-path-31">
            <path id="path536" d="M4135.007-832.758l1.6 6.361a1.725 1.725 0 0 1-.9 1.958 6.133 6.133 0 0 1-3.313.8 1.441 1.441 0 0 1-1.176-.962l-2.35-6.693z" transform="translate(-4128.869 832.758)"/>
        </clipPath>
        <clipPath id="clip-path-32">
            <path id="path552" d="M3648.819-1640.2c-1.991 1.766-8.464 2-8.464 2-23.318-55.967-32.857-63.917-32.857-63.917 3.367 21.124.544 67.89.544 67.89-3.849 1.7-8.809 0-8.809 0a360.449 360.449 0 0 0-11.909-88.52c15.762-.354 24.141-5.747 26.878-7.911 13.138 21.176 34.617 90.458 34.617 90.458z" transform="translate(-3587.324 1730.662)"/>
        </clipPath>
        <clipPath id="clip-path-33">
            <path id="path568" d="M3417.094-2386.269c2.984 14.879 1.915 41.512 1.212 53.66-.2 3.414 2.187 8.147 4.112 11.377a1.012 1.012 0 0 1-.408 1.424c-3.226 1.658-14.153 6.795-26.817 7.435a1.807 1.807 0 0 1-1.817-1.35c-9.394-35.075-20.3-57.489-20.3-57.489 12.043-19.237 44.018-15.057 44.018-15.057z" transform="translate(-3373.072 2386.653)"/>
        </clipPath>
        <clipPath id="clip-path-34">
            <path id="path584" d="M3687.211-1539.241a.747.747 0 0 0 .388-.109.748.748 0 0 0 .25-1.025 23.432 23.432 0 0 0-9.246-8.027.749.749 0 0 0-1 .347.747.747 0 0 0 .349 1 22.33 22.33 0 0 1 8.618 7.458.749.749 0 0 0 .641.356z" transform="translate(-3677.531 1548.477)"/>
        </clipPath>
        <clipPath id="clip-path-35">
            <path id="path600" d="M3902.7-1959.538c-.958 6.932-3.788 14.493-9.453 22.524l-2.153-1.756a66.45 66.45 0 0 0 1.073-21.527c3.497-.68 7.622.022 10.533.759z" transform="translate(-3891.097 1960.573)"/>
        </clipPath>
        <clipPath id="clip-path-36">
            <path id="path616" d="M3785.35-2364.406l3.331-18.361s22.262 17.017 18.711 42.7c-2.914-.737-7.039-1.439-10.533-.758-1.016-8.239-4.059-17.187-11.509-23.581z" transform="translate(-3785.35 2382.767)"/>
        </clipPath>
        <clipPath id="clip-path-37">
            <path id="path632" d="M3351.7-2228.714l12.863 15.837c1.39 11.174-3.246 17.328-9.067 20.709a39.274 39.274 0 0 0-5.75-10.979c5.931-10.302 1.954-25.567 1.954-25.567z" transform="translate(-3349.751 2228.714)"/>
        </clipPath>
        <clipPath id="clip-path-38">
            <path id="path648" d="M3195.388-1969.662a39.263 39.263 0 0 1 5.75 10.979c-15.1 10.724-22.653 4.1-22.653 4.1v-2.118a4.148 4.148 0 0 1 3.063-4.025c6.074-1.598 11.68-5.174 13.84-8.936z" transform="translate(-3178.485 1969.662)"/>
        </clipPath>
        <clipPath id="clip-path-39">
            <path id="path664" d="M3453.284-2499.254l4.147 15.25a2.969 2.969 0 0 0 3.968 1.974 59.962 59.962 0 0 0 5.979-2.732 4 4 0 0 0 1.411-5.745l-8.625-12.86z" transform="translate(-3453.284 2503.367)"/>
        </clipPath>
        <clipPath id="clip-path-40">
            <path id="path680" d="M3361.322-2601.448c-.039.261 3.46 17.4 3.46 17.4l9.746-2.206-.9-16.739s-11.674-2.838-12.306 1.545z" transform="translate(-3361.322 2603.895)"/>
        </clipPath>
        <clipPath id="clip-path-41">
            <path id="path696" d="M3332.075-2651.714l1.165 8.773a1.217 1.217 0 0 1 0 .337c-.1.687-.609 3.029-2.975 2.36-2.144-.608-4.111-1.131-5.469-.715a1.236 1.236 0 0 0-.851 1.429 53.37 53.37 0 0 0 2.244 7.987 1.23 1.23 0 0 0 1.5.729 39.8 39.8 0 0 0 8.591-3.515 1.232 1.232 0 0 0 .6-1.112c-.092-2.215-.351-8.949-.134-10.836.205-1.772 2.379-2.833 3.324-3.213a1.219 1.219 0 0 0 .676-.68c.438-1.1 1.042-3.633-2.157-4.672a1.237 1.237 0 0 1-.783-1.6 3.212 3.212 0 0 0-1.8-4.438 4.529 4.529 0 0 0-5.4 1.3 1.238 1.238 0 0 1-1.576.186.98.98 0 0 0-1.114.038 1.218 1.218 0 0 1-1.724-.522 3.694 3.694 0 0 0-4.29-2.139c-4.366.75-4.861 5.588-3.709 8.424s5.84 1.755 8.193.325c1.787-1.087 4.107.053 5.117.662a1.225 1.225 0 0 1 .572.892z" transform="translate(-3317.653 2662.095)"/>
        </clipPath>
        <clipPath id="clip-path-42">
            <path id="path712" d="M3507.893-2531.793s-1.795-5.028.05-6.258 4.576-.592 3.974 3.049c-.747 4.531-4.024 3.209-4.024 3.209z" transform="translate(-3507.11 2538.624)"/>
        </clipPath>
        <clipPath id="clip-path-43">
            <path id="path728" d="M2750.156-2159.7l-163.883 53.783 7.82 24.148 164.828-52.471a7.577 7.577 0 0 0 5.208-8.221c-.5-3.741-2.179-8.881-6.765-14.983a6.489 6.489 0 0 0-7.208-2.256z" transform="translate(-2586.273 2160.027)"/>
        </clipPath>
        <clipPath id="clip-path-44">
            <path id="path744" d="M2140.132-1455.021l19.437-11.562c1.873 2.457 3.52 6.238 3.619 11.959l-22.394 1.7a1.128 1.128 0 0 1-.662-2.097z" transform="translate(-2139.578 1466.583)"/>
        </clipPath>
        <clipPath id="clip-path-45">
            <path id="path760" d="M2366.224-1611.809a31.274 31.274 0 0 1 7.821 24.148l-28.3 2.145c-.1-5.722-1.747-9.5-3.619-11.96z" transform="translate(-2342.128 1611.809)"/>
        </clipPath>
        <clipPath id="clip-path-46">
            <path id="path780" d="M3768.58-1750.231l-10.05-.818-4.352 4.011s1.031 1.424 4.249.605a46.063 46.063 0 0 1 7.629-1.019s4.442 2 4.5-1.745z" transform="translate(-3754.178 1751.049)"/>
        </clipPath>
        <clipPath id="clip-path-47">
            <path id="path796" d="M3184.275-1843.876c-.868.679-3.846-.738-5.668-1.718a2.1 2.1 0 0 1-1.013-2.478c.438-1.382 1.168-3.167 2.069-3.393 1.493-.373 8.194 4.791 4.612 7.589z" transform="translate(-3177.496 1851.484)"/>
        </clipPath>
        <linearGradient id="linear-gradient" x1="-.167" x2="-.167" y1="1.166" y2="1.166" gradientUnits="objectBoundingBox">
            <stop offset="0" stop-color="#dae3fe"/>
            <stop offset="1" stop-color="#e9effd"/>
        </linearGradient>
        <linearGradient id="linear-gradient-2" x1="-2.566" x2="-2.566" y1="2.971" y2="2.971" gradientUnits="objectBoundingBox">
            <stop offset="0" stop-color="#febbba"/>
            <stop offset="1" stop-color="#ff928e"/>
        </linearGradient>
        <linearGradient id="linear-gradient-3" x1="-7.341" x2="-7.34" y1="3.333" y2="3.333" gradientUnits="objectBoundingBox">
            <stop offset="0" stop-color="#fedada"/>
            <stop offset="1" stop-color="#ffc1be"/>
        </linearGradient>
        <linearGradient id="linear-gradient-4" x1="-.883" x2="-.882" y1="2.965" y2="2.965" gradientUnits="objectBoundingBox">
            <stop offset="0" stop-color="#ff928e"/>
            <stop offset="1" stop-color="#fe7062"/>
        </linearGradient>
        <linearGradient id="linear-gradient-5" x1="-7.49" x2="-7.489" y1="7.06" y2="7.06" gradientUnits="objectBoundingBox">
            <stop offset="0" stop-color="#ffc1be"/>
            <stop offset="1" stop-color="#fea99e"/>
        </linearGradient>
        <linearGradient id="linear-gradient-6" x1="-218.001" x2="-217.994" y1="12.196" y2="12.196" gradientUnits="objectBoundingBox">
            <stop offset="0" stop-color="#7b93fc"/>
            <stop offset="1" stop-color="#768ef2"/>
        </linearGradient>
        <linearGradient id="linear-gradient-7" x1="-2.667" x2="-2.667" y1="4.019" y2="4.019" xlink:href="#linear-gradient-6"/>
        <linearGradient id="linear-gradient-8" x1="-69.055" x2="-69.052" y1="134.584" y2="134.584" gradientUnits="objectBoundingBox">
            <stop offset="0" stop-color="#d1ddfd"/>
            <stop offset="1" stop-color="#dce6fc"/>
        </linearGradient>
        <linearGradient id="linear-gradient-9" x1="-95.099" x2="-95.095" y1="79.271" y2="79.271" xlink:href="#linear-gradient-8"/>
        <linearGradient id="linear-gradient-10" x1="-3.411" x2="-3.411" y1="7.05" y2="7.05" xlink:href="#linear-gradient-8"/>
        <linearGradient id="linear-gradient-11" x1="-83.988" x2="-83.985" y1="82.564" y2="82.564" xlink:href="#linear-gradient-8"/>
        <linearGradient id="linear-gradient-12" x1="-17.546" x2="-17.545" y1="20.8" y2="20.8" xlink:href="#linear-gradient"/>
        <linearGradient id="linear-gradient-13" x1="-6.835" x2="-6.835" y1="8.757" y2="8.757" xlink:href="#linear-gradient"/>
        <linearGradient id="linear-gradient-14" x1="-17.15" x2="-17.149" y1="93.048" y2="93.048" xlink:href="#linear-gradient-8"/>
        <linearGradient id="linear-gradient-15" x1="-21.474" x2="-21.473" y1="20.924" y2="20.924" xlink:href="#linear-gradient-8"/>
        <linearGradient id="linear-gradient-16" x1="-31.263" x2="-31.262" y1="28.105" y2="28.105" xlink:href="#linear-gradient"/>
        <linearGradient id="linear-gradient-17" x1="-.835" x2="-.835" y1="24.436" y2="24.436" xlink:href="#linear-gradient"/>
        <linearGradient id="linear-gradient-18" x1="-1.26" x2="-1.26" y1="25.932" y2="25.932" xlink:href="#linear-gradient"/>
        <linearGradient id="linear-gradient-19" x1="-.819" x2="-.819" y1="20.753" y2="20.753" xlink:href="#linear-gradient"/>
        <linearGradient id="linear-gradient-20" x1="-1.237" x2="-1.237" y1="21.753" y2="21.753" xlink:href="#linear-gradient"/>
        <linearGradient id="linear-gradient-21" x1="-15.253" x2="-15.252" y1="27.902" y2="27.902" gradientUnits="objectBoundingBox">
            <stop offset="0" stop-color="#09005d"/>
            <stop offset="1" stop-color="#1a0f91"/>
        </linearGradient>
        <linearGradient id="linear-gradient-22" x1="-15.724" x2="-15.723" y1="7.677" y2="7.677" gradientUnits="objectBoundingBox">
            <stop offset="0" stop-color="#4f52ff"/>
            <stop offset="1" stop-color="#4042e2"/>
        </linearGradient>
        <linearGradient id="linear-gradient-23" x1="-56.371" x2="-56.369" y1="9.614" y2="9.614" xlink:href="#linear-gradient-2"/>
        <linearGradient id="linear-gradient-24" x1="-46.614" x2="-46.612" y1="19.601" y2="19.601" xlink:href="#linear-gradient-21"/>
        <linearGradient id="linear-gradient-25" x1="-31.433" x2="-31.432" y1="5.051" y2="5.051" xlink:href="#linear-gradient-22"/>
        <linearGradient id="linear-gradient-26" x1="-52.322" x2="-52.32" y1="8.987" y2="8.987" xlink:href="#linear-gradient-2"/>
        <linearGradient id="linear-gradient-27" x1="-6.727" x2="-6.726" y1="3.171" y2="3.171" gradientUnits="objectBoundingBox">
            <stop offset="0" stop-color="#e1473d"/>
            <stop offset="1" stop-color="#e9605a"/>
        </linearGradient>
        <linearGradient id="linear-gradient-28" x1="-34.814" x2="-34.813" y1="16.548" y2="16.548" xlink:href="#linear-gradient-22"/>
        <linearGradient id="linear-gradient-29" x1="-33.091" x2="-33.09" y1="8.214" y2="8.214" xlink:href="#linear-gradient-2"/>
        <linearGradient id="linear-gradient-30" x1="-16.659" x2="-16.659" y1="5.507" y2="5.507" xlink:href="#linear-gradient-27"/>
        <linearGradient id="linear-gradient-31" x1="-21.946" x2="-21.945" y1="6.019" y2="6.019" xlink:href="#linear-gradient-27"/>
        <linearGradient id="linear-gradient-32" x1="-13.848" x2="-13.848" y1="11.368" y2="11.368" xlink:href="#linear-gradient-2"/>
        <linearGradient id="linear-gradient-33" x1="-21.057" x2="-21.056" y1="11.465" y2="11.465" xlink:href="#linear-gradient-2"/>
        <linearGradient id="linear-gradient-34" x1="-25.121" x2="-25.12" y1="12.946" y2="12.946" xlink:href="#linear-gradient-2"/>
        <linearGradient id="linear-gradient-35" x1="-13.968" x2="-13.967" y1="8.386" y2="8.386" xlink:href="#linear-gradient-21"/>
        <linearGradient id="linear-gradient-36" x1="-70.755" x2="-70.752" y1="35.738" y2="35.738" xlink:href="#linear-gradient-2"/>
        <linearGradient id="linear-gradient-37" x1="-8.944" x2="-8.944" y1="10.596" y2="10.596" xlink:href="#linear-gradient-21"/>
        <linearGradient id="linear-gradient-38" x1="-7.198" x2="-7.198" y1="6.05" y2="6.05" xlink:href="#linear-gradient-2"/>
        <linearGradient id="linear-gradient-39" x1="-22.626" x2="-22.626" y1="35.487" y2="35.487" xlink:href="#linear-gradient-2"/>
        <linearGradient id="linear-gradient-40" x1="-40.11" x2="-40.108" y1="23.474" y2="23.474" xlink:href="#linear-gradient-2"/>
        <style>
            .cls-1{fill:rgba(16,146,168,.47)}.cls-2{fill:rgba(16,146,168,.34)}.cls-15{fill:#4a8599}.cls-23{fill:#ebf1fe}.cls-94{fill:#91b3fa}
        </style>
    </defs>
    <g id="g10" transform="translate(0 4946.654)">
        <g id="g12" transform="translate(0 -4946.654)">
            <path id="path14" fill="none" d="M0-4458.429h488.226v-488.226H0z" transform="translate(0 4946.654)"/>
            <g id="g16" transform="translate(59.792 66.758)">
                <g id="g18" clip-path="url(#clip-path)">
                    <path id="path30" fill="url(#linear-gradient)" d="M767.86-3908.678a173.773 173.773 0 0 1-26.468-2 163 163 0 0 1-52.781-16.945H851.5a199.9 199.9 0 0 1-83.641 18.942m-142.342-85.169c-20.4-40.991-25.46-91.848-12.85-138.673a115.5 115.5 0 0 0 10.386 34.462l2.464 104.211m334.133-65.911l.828-57.121c0-3.126-3.55-9.122-10.079-9.122-.244 0-.491.007-.742.025L678.408-4133c-1.677-13.541-1.867-30.292-.029-51.292a122.782 122.782 0 0 0-3.618-43.708c33.871-27.25 76.467-42.274 117.934-42.274q2.2 0 4.381.057a185.807 185.807 0 0 1 47.432 7.329c-.3.229-.6.461-.895.693a1.337 1.337 0 0 0-.216 1.878 1.331 1.331 0 0 0 1.047.505h.084a1.331 1.331 0 0 0 .745-.287c.54-.427 1.1-.852 1.657-1.26a1.327 1.327 0 0 0 .479-.657 167.94 167.94 0 0 1 57.495 30.738 166.036 166.036 0 0 1 33.781 38.329c24.2 37.849 30.773 87.562 20.966 133.188m-19.613-99.428a.828.828 0 0 0-.829.766.824.824 0 0 0 .765.881c.836.059 1.679.09 2.521.09.6 0 1.2-.017 1.8-.047h.01a.826.826 0 0 0 .772-.865.826.826 0 0 0-.824-.784h-.042c-.571.029-1.146.044-1.72.044-.8 0-1.606-.029-2.4-.086h-.053m12.517-1.387a.809.809 0 0 0-.234.034 34.232 34.232 0 0 1-4.014.94.826.826 0 0 0-.673.954.825.825 0 0 0 .812.686h.051c.03 0 .059-.006.089-.011a36.294 36.294 0 0 0 4.206-.986.825.825 0 0 0 .554-1.027.824.824 0 0 0-.792-.588m-20.792-.229a.822.822 0 0 0-.784.569.823.823 0 0 0 .529 1.04 35.938 35.938 0 0 0 4.181 1.085.9.9 0 0 0 .161.015h.051a.827.827 0 0 0 .757-.666.824.824 0 0 0-.65-.968 34.344 34.344 0 0 1-3.989-1.037.865.865 0 0 0-.255-.04m-7.631-3.562a.826.826 0 0 0-.7.389.825.825 0 0 0 .265 1.137 35.8 35.8 0 0 0 3.8 2.06.8.8 0 0 0 .347.078.476.476 0 0 0 .053 0 .82.82 0 0 0 .7-.473.825.825 0 0 0-.4-1.1 34.09 34.09 0 0 1-3.622-1.963.808.808 0 0 0-.436-.127m-6.563-5.284a.817.817 0 0 0-.575.234.822.822 0 0 0-.016 1.166 35.984 35.984 0 0 0 3.2 2.908.812.812 0 0 0 .517.184h.052a.827.827 0 0 0 .591-.307.825.825 0 0 0-.124-1.159 34.8 34.8 0 0 1-3.049-2.775.818.818 0 0 0-.591-.25m-35.766-.283c-.045 0-.089 0-.134.006-1.422.139-2.848.219-4.252.239a1.338 1.338 0 0 0-1.317 1.354 1.337 1.337 0 0 0 1.336 1.318h.02c.869-.014 1.753-.048 2.628-.1q.92-.059 1.845-.149a1.336 1.336 0 0 0 1.2-1.458 1.338 1.338 0 0 0-1.325-1.208m-15.764-.856a1.337 1.337 0 0 0-1.307 1.061 1.337 1.337 0 0 0 1.033 1.583c1.458.307 2.947.555 4.42.735a1.241 1.241 0 0 0 .163.011h.087a1.34 1.34 0 0 0 1.24-1.17 1.336 1.336 0 0 0-1.162-1.49c-1.4-.173-2.813-.407-4.2-.7a1.316 1.316 0 0 0-.276-.029m26.97-1.494a1.286 1.286 0 0 0-.416.067c-1.342.439-2.722.827-4.1 1.155a1.334 1.334 0 0 0-.992 1.606 1.337 1.337 0 0 0 1.3 1.029.617.617 0 0 0 .084 0 1.4 1.4 0 0 0 .225-.032c1.45-.344 2.9-.754 4.315-1.216a1.338 1.338 0 0 0 .854-1.685 1.34 1.34 0 0 0-1.27-.921m-37.836-2.087a1.339 1.339 0 0 0-1.216.782 1.336 1.336 0 0 0 .659 1.77c1.357.62 2.752 1.189 4.151 1.69a1.351 1.351 0 0 0 .451.078h.084a1.334 1.334 0 0 0 1.172-.88 1.336 1.336 0 0 0-.807-1.709c-1.328-.477-2.653-1.017-3.941-1.605a1.323 1.323 0 0 0-.554-.122m57.289-1.986a.823.823 0 0 0-.416.112.825.825 0 0 0-.295 1.129 35.557 35.557 0 0 0 2.4 3.592.824.824 0 0 0 .657.324h.053a.814.814 0 0 0 .446-.168.824.824 0 0 0 .158-1.155 33.665 33.665 0 0 1-2.294-3.424.826.826 0 0 0-.713-.409m-9.034-.675a1.318 1.318 0 0 0-.684.19c-1.213.724-2.473 1.407-3.744 2.026a1.336 1.336 0 0 0-.615 1.787 1.337 1.337 0 0 0 1.2.75h.084a1.365 1.365 0 0 0 .5-.132c1.337-.655 2.663-1.373 3.941-2.137a1.336 1.336 0 0 0 .462-1.831 1.337 1.337 0 0 0-1.147-.651m-58.082-3.211a1.334 1.334 0 0 0-1.066.531 1.335 1.335 0 0 0 .258 1.871c1.186.9 2.424 1.757 3.682 2.554a1.333 1.333 0 0 0 .713.207h.084a1.334 1.334 0 0 0 1.045-.619 1.336 1.336 0 0 0-.413-1.844c-1.195-.756-2.371-1.572-3.5-2.426a1.32 1.32 0 0 0-.805-.273m65.575-2.231a1.337 1.337 0 0 0-.878.328c-.522.458-1.059.907-1.595 1.337a1.334 1.334 0 0 0-.207 1.876 1.333 1.333 0 0 0 1.042.5h.086a1.345 1.345 0 0 0 .75-.291c.564-.453 1.129-.927 1.68-1.407a1.335 1.335 0 0 0 .128-1.884 1.33 1.33 0 0 0-1.007-.458m-73.893-5.642a1.325 1.325 0 0 0-.862.317 1.338 1.338 0 0 0-.157 1.884c.962 1.131 1.983 2.242 3.039 3.294a1.332 1.332 0 0 0 .943.39h.084a1.331 1.331 0 0 0 .861-.39 1.335 1.335 0 0 0 0-1.889c-1-1-1.974-2.054-2.887-3.132a1.334 1.334 0 0 0-1.02-.473m-6.394-9.5a1.337 1.337 0 0 0-.617.151 1.336 1.336 0 0 0-.565 1.8c.688 1.318 1.442 2.625 2.242 3.882a1.331 1.331 0 0 0 1.128.619h.086a1.326 1.326 0 0 0 .63-.207 1.334 1.334 0 0 0 .41-1.842c-.759-1.2-1.475-2.436-2.129-3.687a1.334 1.334 0 0 0-1.186-.717m-4.144-10.679a1.316 1.316 0 0 0-.342.046 1.335 1.335 0 0 0-.949 1.634c.381 1.439.83 2.88 1.33 4.278a1.337 1.337 0 0 0 1.258.886h.084a1.469 1.469 0 0 0 .366-.075 1.337 1.337 0 0 0 .808-1.708c-.476-1.33-.9-2.7-1.265-4.064a1.337 1.337 0 0 0-1.291-.994m-1.712-11.321h-.057a1.321 1.321 0 0 0-1.279 1.39c.016.4.037.789.062 1.183.068 1.092.172 2.2.309 3.283a1.337 1.337 0 0 0 1.324 1.171h.084l.083-.009a1.335 1.335 0 0 0 1.159-1.491c-.129-1.034-.228-2.083-.293-3.121q-.036-.564-.059-1.125a1.335 1.335 0 0 0-1.333-1.281m.434-9.219a1.335 1.335 0 0 0-1.32 1.155c-.1.722-.186 1.455-.254 2.175a1.334 1.334 0 0 0 1.2 1.458 1.026 1.026 0 0 0 .128.005h.087a1.336 1.336 0 0 0 1.244-1.2c.066-.687.146-1.382.241-2.068a1.335 1.335 0 0 0-1.141-1.5 1.143 1.143 0 0 0-.186-.014M642.385-4185.1q-1.632-2.419-3.3-4.706 1.381-1.989 2.809-3.93.173 4.282.487 8.635" transform="translate(-605.81 4270.27)"/>
                </g>
            </g>
            <g id="g32" transform="translate(95.632 59.877)">
                <g id="g34" clip-path="url(#clip-path-2)">
                    <path id="path46" fill="url(#linear-gradient-2)" d="M1005.693-4195.834l-12.661-.327a84.932 84.932 0 0 1-1.505-9.467c-.771-7.393-.791-14.908-.846-22.443s-.182-15.111-.61-22.67q-.306-5.666-.815-11.32c-.159-1.885-.354-3.766-.546-5.648q-.315-2.818-.666-5.633-1.434-11.254-3.56-22.395c-1.455-7.415-3.105-14.791-5.037-22.086a.39.39 0 0 0-.377-.292.326.326 0 0 0-.1.015.389.389 0 0 0-.282.459c1.6 7.362 3.057 14.749 4.24 22.183q1.833 11.134 2.981 22.359c.734 7.479 1.327 14.973 1.6 22.479.308 7.507.293 15.017.252 22.557 0 5.659-.023 11.35.277 17.059a153.116 153.116 0 0 0-18.367-36.963q-.318-4.346-.487-8.635c-1.443-35.619 3.96-67.382.584-81.542a1.5 1.5 0 0 1 1.479-1.845 1.477 1.477 0 0 1 .982.379c7.6 6.661 22.552 22.49 29.815 48.776a122.773 122.773 0 0 1 3.618 43.707c-1.838 21-1.648 37.752.029 51.293" transform="translate(-968.934 4339.989)"/>
                </g>
            </g>
            <g id="g48" transform="translate(105.376 81.751)">
                <g id="g50" clip-path="url(#clip-path-3)">
                    <path id="path62" fill="url(#linear-gradient-3)" d="M1082.011-3996.409l-.885-.022a144.886 144.886 0 0 0-4.108-14.821c-.3-5.71-.276-11.4-.277-17.059.041-7.541.056-15.051-.252-22.557-.275-7.506-.868-15-1.6-22.479q-1.144-11.218-2.981-22.359c-1.184-7.433-2.639-14.821-4.24-22.183a.389.389 0 0 1 .282-.459.325.325 0 0 1 .1-.014.391.391 0 0 1 .377.291c1.932 7.3 3.583 14.672 5.038 22.087q2.128 11.131 3.559 22.394.354 2.815.666 5.633c.192 1.882.387 3.764.546 5.648q.509 5.651.815 11.321c.429 7.557.546 15.131.611 22.669s.076 15.051.846 22.444a84.857 84.857 0 0 0 1.505 9.466" transform="translate(-1067.657 4118.362)"/>
                </g>
            </g>
            <g id="g64" transform="translate(55.716 112.125)">
                <g id="g66" clip-path="url(#clip-path-4)">
                    <path id="path78" fill="url(#linear-gradient-4)" d="M585.828-3683.773a115.5 115.5 0 0 1-10.386-34.463c-.558-4-.937-8.156-1.106-12.477-1.693-43.2-6.717-66.46-9.729-76.863a2.379 2.379 0 0 1 2.291-3.041 2.337 2.337 0 0 1 1.432.5 170.58 170.58 0 0 1 33.535 34.571q1.662 2.286 3.3 4.7a153.111 153.111 0 0 1 18.366 36.963 144.949 144.949 0 0 1 4.108 14.821l-27.042-.7c-.129 0-.257-.005-.386-.005a14.885 14.885 0 0 0-5.777 1.167 267.308 267.308 0 0 1-7.992-44.784 1.049 1.049 0 0 0-1.045-.962.788.788 0 0 0-.089 0 1.05 1.05 0 0 0-.957 1.134 269.924 269.924 0 0 0 8.172 45.58 14.875 14.875 0 0 0-2.818 2.2 14.854 14.854 0 0 0-4.365 10.871l.491 20.78" transform="translate(-564.507 3810.617)"/>
                </g>
            </g>
            <g id="g80" transform="translate(75.553 158.398)">
                <g id="g82" clip-path="url(#clip-path-5)">
                    <path id="path94" fill="url(#linear-gradient-5)" d="M773.67-3295.06a269.949 269.949 0 0 1-8.172-45.58 1.051 1.051 0 0 1 .957-1.135h.089a1.049 1.049 0 0 1 1.045.962 267.317 267.317 0 0 0 7.992 44.784 14.6 14.6 0 0 0-1.912.973" transform="translate(-765.495 3341.779)"/>
                </g>
            </g>
            <g id="g96" transform="translate(76.541 202.977)">
                <g id="g98" clip-path="url(#clip-path-6)">
                    <path id="path110" d="M1104.873-2683.683H785.8a5.915 5.915 0 0 1-5.9-5.894l-1.427-60.333L776-2854.121l-.491-20.779a14.853 14.853 0 0 1 4.365-10.871 14.853 14.853 0 0 1 2.818-2.2 14.776 14.776 0 0 1 1.912-.973 14.884 14.884 0 0 1 5.777-1.167h.386l27.042.7.885.022 12.661.328 271.249 7.018c.251-.018.5-.025.742-.025 6.528 0 10.079 6 10.079 9.122l-.828 57.122-1.828 126.243a5.915 5.915 0 0 1-5.9 5.895M791.717-2883.12a10.445 10.445 0 0 0-7.373 3.049 10.443 10.443 0 0 0-3.069 7.648l4.445 177.189a5.6 5.6 0 0 0 5.582 5.583h305.875a5.6 5.6 0 0 0 5.583-5.583l2.505-166.46c-.287-9.741-8.6-13.414-13.952-13.414-.153 0-.3 0-.448.009L792-2883.116h-.28" class="cls-15" transform="translate(-775.509 2890.113)"/>
                </g>
            </g>
            <g id="g112" transform="translate(82.305 209.97)">
                <g id="g114" clip-path="url(#clip-path-7)">
                    <path id="path126" fill="#dcecf0" d="M1149.809-2625.791H843.934a5.6 5.6 0 0 1-5.582-5.582l-4.445-177.189a10.442 10.442 0 0 1 3.068-7.648 10.446 10.446 0 0 1 7.373-3.049h.28l298.869 8.019c.147-.007.3-.01.449-.01 5.354 0 13.665 3.673 13.952 13.414l-2.506 166.46a5.6 5.6 0 0 1-5.583 5.582m2.475-99.8a.819.819 0 0 0-.819.806l-.2 13.5a.818.818 0 0 0 .805.831h.013a.818.818 0 0 0 .817-.806l.2-13.5a.818.818 0 0 0-.805-.831h-.012m-11.319-80.841c1.159 0 5.756.2 8.776 3.09a9.707 9.707 0 0 1 2.771 7.271l-.759 51.7a.82.82 0 0 0 .807.831h.012a.818.818 0 0 0 .817-.806l.759-51.72a11.293 11.293 0 0 0-3.276-8.462c-3.4-3.255-8.3-3.548-9.791-3.548-.192 0-.326.005-.395.009l-95.467-2.562h-.07a.788.788 0 0 0-.771.8.817.817 0 0 0 .8.838l95.525 2.562h.265" transform="translate(-833.904 2819.26)"/>
                </g>
            </g>
            <g id="g128" transform="translate(399.67 303.641)">
                <g id="g130" clip-path="url(#clip-path-8)">
                    <path id="path142" fill="url(#linear-gradient-6)" d="M4050.234-1855.06h-.012a.818.818 0 0 1-.806-.83l.2-13.5a.819.819 0 0 1 .819-.806h.012a.816.816 0 0 1 .8.83l-.2 13.5a.819.819 0 0 1-.817.805" transform="translate(-4049.416 1870.196)"/>
                </g>
            </g>
            <g id="g144" transform="translate(292.781 218.604)">
                <g id="g146" clip-path="url(#clip-path-9)">
                    <path id="path158" fill="url(#linear-gradient-7)" d="M3074.622-2664.688h-.012a.819.819 0 0 1-.806-.831l.759-51.7a9.709 9.709 0 0 0-2.772-7.271c-3.02-2.895-7.616-3.09-8.775-3.09h-.265l-95.525-2.562a.815.815 0 0 1-.8-.838.788.788 0 0 1 .771-.8h.069l95.468 2.561c.068 0 .2-.009.395-.009 1.487 0 6.395.293 9.791 3.548a11.294 11.294 0 0 1 3.275 8.462l-.759 51.72a.818.818 0 0 1-.817.806" transform="translate(-2966.43 2731.779)"/>
                </g>
            </g>
            <g id="g160" transform="translate(55.042 408.517)">
                <g id="g162" clip-path="url(#clip-path-10)">
                    <path id="path174" d="M558.428-791.487H933.12a.747.747 0 0 0 .745-.744v-14.623a.748.748 0 0 0-.745-.745H558.428a.747.747 0 0 0-.744.745v14.623a.746.746 0 0 0 .744.744" class="cls-15" transform="translate(-557.684 807.598)"/>
                </g>
            </g>
            <path id="path178" d="M3027.174-4202.685q-1.46-.452-2.9-.87c.28-.213.563-.425.847-.632a1.327 1.327 0 0 1 .785-.256 1.33 1.33 0 0 1 1.081.548 1.333 1.333 0 0 1 .188 1.21" class="cls-23" transform="translate(-2725.782 4277.697)"/>
            <g id="g180" transform="translate(297.09 74.143)">
                <g id="g182" clip-path="url(#clip-path-11)">
                    <path id="path194" fill="url(#linear-gradient-8)" d="M3011.42-4192.366a1.326 1.326 0 0 1-1.047-.506 1.334 1.334 0 0 1 .216-1.876c.293-.232.594-.465.895-.694q1.439.419 2.9.87a1.327 1.327 0 0 1-.479.656c-.561.408-1.118.832-1.657 1.26a1.333 1.333 0 0 1-.746.288h-.083" transform="translate(-3010.083 4195.442)"/>
                </g>
            </g>
            <g id="g196" transform="translate(277.615 108.194)">
                <g id="g198" clip-path="url(#clip-path-12)">
                    <path id="path210" fill="url(#linear-gradient-9)" d="M2814.1-3845.649a.931.931 0 0 1-.127-.007 1.335 1.335 0 0 1-1.2-1.457c.069-.721.154-1.455.254-2.177a1.333 1.333 0 0 1 1.32-1.154 1.315 1.315 0 0 1 .185.013 1.337 1.337 0 0 1 1.142 1.506c-.1.685-.175 1.381-.241 2.066a1.337 1.337 0 0 1-1.244 1.206h-.087" transform="translate(-2812.769 3850.444)"/>
                </g>
            </g>
            <g id="g212" transform="translate(277.424 117.412)">
                <g id="g214" clip-path="url(#clip-path-13)">
                    <path id="path226" fill="url(#linear-gradient-10)" d="M2864.828-3704.444a1.336 1.336 0 0 1-1.335-1.317 1.337 1.337 0 0 1 1.317-1.354c1.4-.021 2.829-.1 4.251-.239.045 0 .09-.007.134-.007a1.337 1.337 0 0 1 1.325 1.207 1.337 1.337 0 0 1-1.2 1.459q-.925.091-1.845.148c-.875.056-1.76.09-2.628.1h-.02m-7.086-.384a1.333 1.333 0 0 1-.164-.011c-1.473-.181-2.961-.429-4.42-.735a1.338 1.338 0 0 1-1.033-1.583 1.338 1.338 0 0 1 1.307-1.061 1.279 1.279 0 0 1 .276.029c1.384.292 2.8.526 4.2.7a1.336 1.336 0 0 1 1.162 1.49 1.337 1.337 0 0 1-1.239 1.169h-.087m18.451-1.026a1.337 1.337 0 0 1-1.3-1.028 1.336 1.336 0 0 1 .993-1.607c1.378-.328 2.757-.716 4.1-1.155a1.314 1.314 0 0 1 .416-.067 1.337 1.337 0 0 1 1.27.921 1.336 1.336 0 0 1-.854 1.684c-1.413.463-2.865.873-4.314 1.216a1.4 1.4 0 0 1-.225.033h-.084m-29.582-1.625a1.33 1.33 0 0 1-.452-.079c-1.4-.5-2.793-1.07-4.15-1.69a1.336 1.336 0 0 1-.66-1.77 1.338 1.338 0 0 1 1.216-.782 1.327 1.327 0 0 1 .554.122c1.288.589 2.613 1.128 3.941 1.6a1.336 1.336 0 0 1 .806 1.709 1.338 1.338 0 0 1-1.172.882h-.084m40.369-2.228a1.337 1.337 0 0 1-1.2-.75 1.336 1.336 0 0 1 .615-1.787c1.271-.62 2.53-1.3 3.744-2.026a1.315 1.315 0 0 1 .685-.189 1.338 1.338 0 0 1 1.147.649 1.337 1.337 0 0 1-.462 1.833c-1.278.763-2.6 1.481-3.941 2.136a1.377 1.377 0 0 1-.5.133h-.084m-50.653-2.8a1.33 1.33 0 0 1-.713-.207c-1.258-.8-2.5-1.657-3.683-2.554a1.335 1.335 0 0 1-.258-1.872 1.335 1.335 0 0 1 1.066-.53 1.324 1.324 0 0 1 .806.272c1.126.853 2.3 1.668 3.5 2.427a1.337 1.337 0 0 1 .414 1.844 1.331 1.331 0 0 1-1.046.617.791.791 0 0 1-.084 0m-8.942-7.151a1.333 1.333 0 0 1-.943-.389c-1.055-1.054-2.077-2.163-3.039-3.3a1.336 1.336 0 0 1 .157-1.883 1.327 1.327 0 0 1 .862-.317 1.331 1.331 0 0 1 1.02.473c.914 1.078 1.885 2.132 2.888 3.132a1.335 1.335 0 0 1 0 1.888 1.326 1.326 0 0 1-.861.39.819.819 0 0 1-.085 0m-7.169-8.93a1.333 1.333 0 0 1-1.128-.62c-.8-1.257-1.554-2.564-2.242-3.882a1.336 1.336 0 0 1 .564-1.8 1.337 1.337 0 0 1 .617-.151 1.335 1.335 0 0 1 1.186.717c.654 1.253 1.37 2.493 2.13 3.687a1.337 1.337 0 0 1-.411 1.844 1.348 1.348 0 0 1-.631.206h-.085m-5.035-10.291a1.338 1.338 0 0 1-1.258-.885c-.5-1.4-.949-2.839-1.33-4.278a1.336 1.336 0 0 1 .949-1.635 1.331 1.331 0 0 1 .342-.045 1.336 1.336 0 0 1 1.291.994c.363 1.368.788 2.735 1.265 4.064a1.336 1.336 0 0 1-.809 1.708 1.374 1.374 0 0 1-.365.075.8.8 0 0 1-.084 0m-2.651-11.137a1.336 1.336 0 0 1-1.323-1.171c-.137-1.085-.241-2.191-.31-3.283q-.037-.591-.062-1.182a1.321 1.321 0 0 1 1.279-1.39h.057a1.336 1.336 0 0 1 1.333 1.28q.023.56.06 1.125c.065 1.037.164 2.086.293 3.121a1.335 1.335 0 0 1-1.159 1.49l-.083.008h-.084" transform="translate(-2810.834 3757.044)"/>
                </g>
            </g>
            <g id="g228" transform="translate(361.932 154.554)">
                <g id="g230" clip-path="url(#clip-path-14)">
                    <path id="path242" fill="url(#linear-gradient-11)" d="M3668.391-3376.684a1.332 1.332 0 0 1-1.042-.5 1.335 1.335 0 0 1 .206-1.876c.536-.43 1.072-.878 1.6-1.335a1.329 1.329 0 0 1 .877-.329 1.332 1.332 0 0 1 1.007.458 1.336 1.336 0 0 1-.127 1.885c-.552.48-1.117.953-1.681 1.405a1.331 1.331 0 0 1-.75.291h-.086" transform="translate(-3667.056 3380.725)"/>
                </g>
            </g>
            <g id="g246" transform="translate(321.515 107.089)">
                <g id="g248" clip-path="url(#clip-path-15)">
                    <path id="path260" fill="url(#linear-gradient-12)" d="M3262.187-3857.84a6.973 6.973 0 0 0-2.461 4.781 7.03 7.03 0 0 0 6.417 7.582 7.031 7.031 0 0 0 7.583-6.418 7.034 7.034 0 0 0-6.418-7.583 7.352 7.352 0 0 0-1.042-.01 6.975 6.975 0 0 0-4.079 1.648zm3.78 14.493a9.173 9.173 0 0 1-8.372-9.89 9.1 9.1 0 0 1 3.211-6.233 9.088 9.088 0 0 1 6.678-2.137 9.172 9.172 0 0 1 8.371 9.889 9.174 9.174 0 0 1-8.543 8.384 9.382 9.382 0 0 1-1.345-.013" transform="translate(-3257.563 3861.64)"/>
                </g>
            </g>
            <g id="g262" transform="translate(307.997 93.596)">
                <g id="g264" clip-path="url(#clip-path-16)">
                    <path id="path276" fill="url(#linear-gradient-13)" d="M3144.519-3953.333a22.784 22.784 0 0 0 2.3-.263c.241-.04.481-.083.723-.131a22.645 22.645 0 0 0 3.47-.983.376.376 0 0 0 .046-.017l.13-.048.252-.1a.535.535 0 0 0 .337-.531.536.536 0 0 0-.037-.163.535.535 0 0 0-.692-.3 21.489 21.489 0 0 1-4.4 1.219 21.46 21.46 0 0 1-19.493-6.859 21.334 21.334 0 0 1-5.187-10.8 21.81 21.81 0 0 1-.251-2.193 21.3 21.3 0 0 1 3.971-13.8 21.31 21.31 0 0 1 13.94-8.683 21.482 21.482 0 0 1 24.681 17.66 21.312 21.312 0 0 1 .247 2.166 21.367 21.367 0 0 1-1.445 9.2.545.545 0 0 0-.037.231.537.537 0 0 0 .338.463.534.534 0 0 0 .692-.3 22.434 22.434 0 0 0 1.518-9.661 22.5 22.5 0 0 0-.259-2.274 22.556 22.556 0 0 0-25.911-18.54 22.379 22.379 0 0 0-14.635 9.116 22.367 22.367 0 0 0-4.166 14.492 22.731 22.731 0 0 0 .264 2.3 22.376 22.376 0 0 0 9.115 14.636 22.36 22.36 0 0 0 14.494 4.166" transform="translate(-3120.601 3998.35)"/>
                </g>
            </g>
            <path id="path278" d="M4354-3435.784a.8.8 0 0 1-.182-.02.823.823 0 0 1-.622-.985c.146-.653.275-1.318.384-1.977a.825.825 0 0 1 .811-.692.87.87 0 0 1 .137.011.826.826 0 0 1 .681.948c-.113.69-.249 1.388-.4 2.071a.823.823 0 0 1-.753.641.467.467 0 0 1-.053 0" class="cls-23" transform="translate(-3923.529 3588.215)"/>
            <g id="g282" transform="translate(384.92 176.224)">
                <g id="g284" clip-path="url(#clip-path-17)">
                    <path id="path296" fill="url(#linear-gradient-14)" d="M3911.53-3157.813c-.842 0-1.686-.031-2.521-.09a.823.823 0 0 1-.764-.88.827.827 0 0 1 .829-.767h.053c.793.057 1.6.086 2.4.086.574 0 1.149-.015 1.72-.043a.309.309 0 0 1 .042 0 .827.827 0 0 1 .824.784.828.828 0 0 1-.772.866h-.011q-.9.045-1.8.046m5.952-.511a.824.824 0 0 1-.812-.686.824.824 0 0 1 .672-.953 34.69 34.69 0 0 0 4.013-.941.8.8 0 0 1 .235-.034.825.825 0 0 1 .792.588.824.824 0 0 1-.554 1.026 35.989 35.989 0 0 1-4.206.987c-.03.005-.059.007-.089.011h-.051m-12.6-.131a.874.874 0 0 1-.161-.016 35.742 35.742 0 0 1-4.181-1.085.824.824 0 0 1-.529-1.04.821.821 0 0 1 .784-.569.9.9 0 0 1 .255.039 34.067 34.067 0 0 0 3.988 1.038.825.825 0 0 1 .65.968.824.824 0 0 1-.757.665.446.446 0 0 1-.051 0" transform="translate(-3899.973 3161.166)"/>
                </g>
            </g>
            <path id="path298" d="M4151.644-3189.549a.825.825 0 0 1-.757-.493.826.826 0 0 1 .424-1.087 33.865 33.865 0 0 0 3.666-1.882.83.83 0 0 1 .42-.115.828.828 0 0 1 .712.4.827.827 0 0 1-.289 1.132 35.5 35.5 0 0 1-3.846 1.974.818.818 0 0 1-.278.067h-.052" class="cls-23" transform="translate(-3741.139 3366.195)"/>
            <g id="g300" transform="translate(365.622 160.671)">
                <g id="g302" clip-path="url(#clip-path-18)">
                    <path id="path314" fill="url(#linear-gradient-15)" d="M3720.644-3303.1a.824.824 0 0 1-.348-.078 35.65 35.65 0 0 1-3.8-2.06.827.827 0 0 1-.265-1.137.827.827 0 0 1 .7-.389.811.811 0 0 1 .436.126 34.019 34.019 0 0 0 3.622 1.963.825.825 0 0 1 .4 1.1.823.823 0 0 1-.7.473.486.486 0 0 1-.053 0m-7.148-4.456a.809.809 0 0 1-.517-.184 36.089 36.089 0 0 1-3.2-2.908.823.823 0 0 1 .016-1.166.817.817 0 0 1 .576-.234.817.817 0 0 1 .59.25 34.8 34.8 0 0 0 3.049 2.773.826.826 0 0 1 .124 1.161.823.823 0 0 1-.591.305.446.446 0 0 1-.051 0m-5.878-6.041a.82.82 0 0 1-.656-.325 35.439 35.439 0 0 1-2.4-3.592.826.826 0 0 1 .295-1.128.827.827 0 0 1 .417-.113.827.827 0 0 1 .713.409 33.674 33.674 0 0 0 2.294 3.424.826.826 0 0 1-.158 1.156.818.818 0 0 1-.446.167h-.053" transform="translate(-3704.445 3318.752)"/>
                </g>
            </g>
            <path id="path316" d="M4225.4-3227.676a.826.826 0 0 1-.654-.319.827.827 0 0 1 .147-1.158c.532-.412 1.057-.841 1.556-1.276a.822.822 0 0 1 .542-.2.828.828 0 0 1 .623.282.826.826 0 0 1-.081 1.164c-.522.457-1.071.907-1.629 1.339a.832.832 0 0 1-.453.17h-.051" class="cls-23" transform="translate(-3807.619 3400.001)"/>
            <g id="g320" transform="translate(390.231 137.427)">
                <g id="g322" clip-path="url(#clip-path-19)">
                    <path id="path334" fill="url(#linear-gradient-16)" d="M3955.448-3548.4a4.559 4.559 0 0 0 1.071 3.346 4.568 4.568 0 0 0 3.123 1.61 4.575 4.575 0 0 0 3.347-1.071 4.568 4.568 0 0 0 1.609-3.125 4.6 4.6 0 0 0-4.194-4.955 4.454 4.454 0 0 0-.675-.006 4.6 4.6 0 0 0-4.281 4.201zm4.059 6.6a6.188 6.188 0 0 1-4.247-2.187 6.193 6.193 0 0 1-1.458-4.55 6.251 6.251 0 0 1 6.737-5.7 6.248 6.248 0 0 1 5.7 6.736 6.2 6.2 0 0 1-2.187 4.247 6.193 6.193 0 0 1-3.623 1.465 6.161 6.161 0 0 1-.925-.009" transform="translate(-3953.781 3554.256)"/>
                </g>
            </g>
            <path id="path352" fill="#accfd1" d="M1287.789-3870.877l-201.644-1.236a11.544 11.544 0 0 0-11.6 12.115l13.5 278.88a7.993 7.993 0 0 0 7.984 7.607h209.129a8.028 8.028 0 0 0 8.018-7.637l12.088-248.325-37.481-41.4" transform="translate(-968.478 3978.168)"/>
            <path id="path354" fill="#88b1be" d="M3218.481-3815.976a11.544 11.544 0 0 1-11.1-12.445l2.163-27.356 38.075 40.861-29.135-1.06" transform="translate(-2890.784 3963.444)"/>
            <g id="g356" transform="translate(145.656 158.833)">
                <g id="g358" clip-path="url(#clip-path-20)">
                    <path id="path370" fill="url(#linear-gradient-17)" d="M1481.854-3337.368c27.946.785 135.225 3.683 162.314 4.414 3.418.092 6.134 2.285 6 4.84-.125 2.433-2.8 4.3-6.051 4.22l-162.241-3.822c-3.125-.074-5.732-1.92-6.014-4.257l-.073-.592c-.322-2.674 2.489-4.9 6.062-4.8" transform="translate(-1475.767 3337.371)"/>
                </g>
            </g>
            <g id="g372" transform="translate(147.746 180.25)">
                <g id="g374" clip-path="url(#clip-path-21)">
                    <path id="path386" fill="url(#linear-gradient-18)" d="M1497.728-3113.463a2.856 2.856 0 0 0 2.215 1.055l111.338 3.905c1.4.05 2.559-.747 2.612-1.793l.283-5.488c.055-1.09-1.109-2.025-2.567-2.059l-108.3-2.531c-4.823-.112-7.892 3.687-5.582 6.911" transform="translate(-1496.944 3120.377)"/>
                </g>
            </g>
            <g id="g388" transform="translate(142.918 208.474)">
                <g id="g390" clip-path="url(#clip-path-22)">
                    <path id="path402" fill="url(#linear-gradient-19)" d="M1454.121-2834.409c27.946.784 135.225 3.682 162.314 4.414 3.417.092 6.132 2.285 6 4.84-.125 2.433-2.8 4.3-6.052 4.22l-162.24-3.822c-3.126-.074-5.733-1.92-6.016-4.257l-.071-.592c-.323-2.674 2.489-4.9 6.061-4.8" transform="translate(-1448.034 2834.412)"/>
                </g>
            </g>
            <g id="g404" transform="translate(145.008 229.891)">
                <g id="g406" clip-path="url(#clip-path-23)">
                    <path id="path418" fill="url(#linear-gradient-20)" d="M1469.993-2610.5a2.858 2.858 0 0 0 2.215 1.054l111.336 3.906c1.4.05 2.559-.747 2.613-1.793l.282-5.488c.057-1.091-1.109-2.025-2.568-2.06l-108.3-2.53c-4.824-.112-7.892 3.686-5.583 6.912" transform="translate(-1469.209 2617.418)"/>
                </g>
            </g>
            <g id="g420" transform="translate(159.132 265.356)">
                <g id="g422" clip-path="url(#clip-path-24)">
                    <path id="path434" d="M1612.311-2196.355a77.458 77.458 0 0 1 11.527-34.469 80.139 80.139 0 0 1 11.432-14.447c1.121-1.059 2.215-2.148 3.362-3.18 1.18-.992 2.333-2.023 3.541-2.985 1.236-.926 2.457-1.875 3.727-2.757l1.937-1.277.969-.637.486-.319c.175-.11.41-.25.621-.362a9.739 9.739 0 0 1 11.589 1.348 8.711 8.711 0 0 1 1.779 2.693 10.2 10.2 0 0 1 .485 1.417 11.481 11.481 0 0 1 .3 1.394 19.631 19.631 0 0 1 .038 5.2c-.087.824-.221 1.633-.366 2.421l-.442 2.225c-.284 1.486-.616 2.962-.939 4.44-.653 2.953-1.392 5.888-2.169 8.812a204.24 204.24 0 0 1-12.513 34.017l-1.981 4.08c-.694 1.343-1.369 2.7-2.077 4.032l-1.074 2-.537 1-.591 1.042a30.513 30.513 0 0 1-2.8 4.014 18.815 18.815 0 0 1-3.785 3.532 10.745 10.745 0 0 1-5.465 1.948 7.456 7.456 0 0 1-1.55-.057 8.374 8.374 0 0 1-1.5-.314 8.818 8.818 0 0 1-2.745-1.326 10.566 10.566 0 0 1-3.581-4.55 14.185 14.185 0 0 1-1.036-5.29 21.2 21.2 0 0 1 .6-5 43.62 43.62 0 0 1 1.329-4.507l.744-2.185.837-2.149a80.719 80.719 0 0 1 8.684-16.2 81.416 81.416 0 0 1 12.034-13.841l.84-.783.875-.744 1.754-1.482c.6-.479 1.209-.937 1.813-1.407s1.2-.945 1.84-1.372c1.254-.877 2.5-1.771 3.8-2.563l.97-.613.485-.305c.086-.053.149-.1.254-.158l.32-.178a7.715 7.715 0 0 1 2.782-.86 7.08 7.08 0 0 1 5.545 1.725 5.752 5.752 0 0 1 1.683 2.678 7.382 7.382 0 0 1 .2 2.869 16.01 16.01 0 0 1-.483 2.452l-.608 2.177-1.21 4.311c-1.6 5.75-3.266 11.484-4.9 17.229v.013l-2.52-.452a13.2 13.2 0 0 1 1.774-5.636 9.268 9.268 0 0 1 2.041-2.346 8.035 8.035 0 0 1 2.822-1.46 7.424 7.424 0 0 1 3.218-.209 6.094 6.094 0 0 1 1.608.484 6.242 6.242 0 0 1 .751.4l.508.32a4.6 4.6 0 0 0 4.04.267 4.154 4.154 0 0 0 .891-.512 3.916 3.916 0 0 0 .392-.337l.192-.186.229-.246 1.837-1.959 3.675-3.919 3.674-3.919 1.837-1.959a3.546 3.546 0 0 1 1.82-1.037 3.4 3.4 0 0 1 2.1.237 3.531 3.531 0 0 1 1.565 1.377 3.32 3.32 0 0 1 .456 2.09 2.34 2.34 0 0 1-.095.514c-.042.157-.1.362-.132.437l-.22.619-.417 1.245c-.539 1.665-.995 3.357-1.376 5.065s-.678 3.437-.894 5.173c-.024.213-.057.442-.074.644l-.016.53a1.919 1.919 0 0 0 .034.521 2.643 2.643 0 0 0 .083.51 4.288 4.288 0 0 0 .946 1.809 4.4 4.4 0 0 0 1.7 1.2 5.1 5.1 0 0 0 1 .3 5.005 5.005 0 0 0 1.038.04 4.065 4.065 0 0 0 1.949-.623l.228-.127.2-.169.416-.338.949-.93q3.79-3.724 7.24-7.776a119.142 119.142 0 0 0 12.233-17.346l1.3-2.316.629-1.171.315-.584.078-.146v-.008s-.007.012 0 .027c0 .1.04.118.028.109a.1.1 0 0 0 .059.009c.04-.009.092-.019.091-.026h-.005l-.113.116-.226.229c-.151.151-.3.308-.446.466-.3.311-.58.635-.863.957a32.15 32.15 0 0 0-3.044 4.165q-.673 1.1-1.263 2.253c-.193.384-.383.771-.562 1.163l-.263.589-.13.3-.086.264a5.43 5.43 0 0 0 .116 4.233 5.7 5.7 0 0 0 3.12 2.917 5.531 5.531 0 0 0 2.119.378 5.717 5.717 0 0 0 2.1-.524l.505-.231.57-.33c.378-.224.762-.437 1.134-.671.751-.454 1.493-.926 2.227-1.408a66.819 66.819 0 0 0 15.485-14.173 1.284 1.284 0 0 1 1.806-.208 1.285 1.285 0 0 1 .207 1.805 69.377 69.377 0 0 1-16.083 14.722c-.763.5-1.531.991-2.313 1.462-.386.244-.784.464-1.178.7l-.592.345-.712.336a8.282 8.282 0 0 1-3.074.751 8.11 8.11 0 0 1-3.132-.55 8.264 8.264 0 0 1-4.527-4.235 8.023 8.023 0 0 1-.191-6.209l.128-.373.141-.318.284-.637c.194-.422.4-.839.607-1.254q.635-1.241 1.364-2.432a34.638 34.638 0 0 1 3.289-4.5c.306-.35.614-.7.935-1.037q.237-.256.483-.5l.245-.248.123-.124c.079-.072.167-.146.254-.216a2.373 2.373 0 0 1 1.324-.5 2.5 2.5 0 0 1 1.345.317 2.474 2.474 0 0 1 1.275 2.324 2.41 2.41 0 0 1-.155.681c-.04.1-.088.213-.129.3l-.081.149-.321.6-.642 1.2-1.331 2.366a121.76 121.76 0 0 1-12.5 17.727q-3.518 4.137-7.4 7.944l-.97.95-.621.516-.317.253-.354.209a6.607 6.607 0 0 1-3.111.989 7.507 7.507 0 0 1-1.639-.069 7.714 7.714 0 0 1-1.562-.464 6.964 6.964 0 0 1-2.639-1.878 6.839 6.839 0 0 1-1.515-2.9 5.01 5.01 0 0 1-.137-.811 3.78 3.78 0 0 1-.052-.815l.03-.812.08-.691q.338-2.725.934-5.41c.4-1.787.875-3.557 1.439-5.3l.436-1.3.23-.648a1.329 1.329 0 0 0 .059-.2.353.353 0 0 0 .029-.144.745.745 0 0 0-.1-.487.981.981 0 0 0-.426-.367.819.819 0 0 0-.987.217l-1.837 1.96-3.674 3.918-3.674 3.919-1.837 1.959-.23.245-.287.285a6.676 6.676 0 0 1-.627.535 6.686 6.686 0 0 1-1.43.822 7.17 7.17 0 0 1-6.31-.395l-.629-.393a3.578 3.578 0 0 0-.43-.23 3.529 3.529 0 0 0-.956-.287 4.889 4.889 0 0 0-2.1.144 5.857 5.857 0 0 0-3.381 2.683 10.7 10.7 0 0 0-1.4 4.53l-2.521-.452v-.013c1.445-5.793 2.855-11.6 4.331-17.38l1.1-4.342.541-2.151a12.784 12.784 0 0 0 .337-1.945 4 4 0 0 0-.13-1.567 2.248 2.248 0 0 0-.7-1.037 3.511 3.511 0 0 0-2.781-.751 4.046 4.046 0 0 0-1.457.5l-.166.1-.217.142-.454.3-.908.608c-1.225.784-2.383 1.668-3.554 2.532-.595.42-1.148.9-1.715 1.35s-1.133.912-1.689 1.382l-1.627 1.453-.816.724-.785.756a77.184 77.184 0 0 0-11.2 13.312 76.278 76.278 0 0 0-7.959 15.431l-.756 2.035-.665 2.066a39.215 39.215 0 0 0-1.142 4.1 11.988 11.988 0 0 0 .3 7.309 5.592 5.592 0 0 0 1.909 2.378 3.762 3.762 0 0 0 1.278.583 3.9 3.9 0 0 0 1.369.145 5.667 5.667 0 0 0 2.833-1.093 13.772 13.772 0 0 0 2.706-2.595 25.243 25.243 0 0 0 2.287-3.348l.505-.909.515-.978 1.03-1.956c.679-1.306 1.327-2.63 1.991-3.945l1.9-3.992a208.216 208.216 0 0 0 12.027-33.188c.748-2.85 1.459-5.706 2.087-8.584.312-1.438.63-2.875.9-4.323l.424-2.166c.123-.68.231-1.345.3-2.005a14.271 14.271 0 0 0-.016-3.731 4.613 4.613 0 0 0-1.066-2.52 2.9 2.9 0 0 0-.933-.654 4.319 4.319 0 0 0-1.29-.326 5.075 5.075 0 0 0-2.8.61c-.119.063-.205.112-.346.2l-.453.295-.9.588-1.81 1.174c-1.191.807-2.32 1.7-3.5 2.533-1.144.874-2.237 1.815-3.361 2.717-1.091.942-2.132 1.943-3.2 2.91a82.033 82.033 0 0 0-11.135 13.273 82.674 82.674 0 0 0-12.928 32.234 1.287 1.287 0 0 1-1.483 1.054 1.294 1.294 0 0 1-1.068-1.369" class="cls-1" transform="translate(-1612.308 2258.092)"/>
                </g>
            </g>
            <g id="g436" transform="translate(291.542 277.419)">
                <g id="g438" clip-path="url(#clip-path-25)">
                    <path id="path450" d="M2955.159-2125.259a1.286 1.286 0 0 1-1.09-.6 1.286 1.286 0 0 1 .407-1.771l12.835-8.041a1.283 1.283 0 0 1 1.771.407 1.283 1.283 0 0 1-.407 1.77l-12.835 8.042a1.28 1.28 0 0 1-.681.2" class="cls-2" transform="translate(-2953.873 2135.87)"/>
                </g>
            </g>
            <g id="g452" transform="translate(352.871 425.785)">
                <g id="g454" clip-path="url(#clip-path-26)">
                    <path id="path466" fill="url(#linear-gradient-21)" d="M3575.909-632.638c3.963.342 10.842.9 16.266 1.137a15.655 15.655 0 0 0 6.216-.608c0 .121 0 .237-.008.343a1.123 1.123 0 0 1-1.066 1.059 190.551 190.551 0 0 1-21.3.022.8.8 0 0 1-.65-1.2 6.549 6.549 0 0 1 .541-.754" transform="translate(-3575.257 632.638)"/>
                </g>
            </g>
            <g id="g468" transform="translate(353.524 417.782)">
                <g id="g470" clip-path="url(#clip-path-27)">
                    <path id="path482" fill="url(#linear-gradient-22)" d="M3598.136-704.591c-5.423-.238-12.3-.8-16.265-1.137 3.9-4.781 16.265-8 16.265-8h3.493a14.654 14.654 0 0 1 2.724 8.533 15.658 15.658 0 0 1-6.217.608" transform="translate(-3581.871 713.732)"/>
                </g>
            </g>
            <g id="g484" transform="translate(367.354 412.08)">
                <g id="g486" clip-path="url(#clip-path-28)">
                    <path id="path498" fill="url(#linear-gradient-23)" d="M3728.508-771.5l-.327 6.468a1.476 1.476 0 0 1-1.262 1.39 5.74 5.74 0 0 1-2.624-.217 1.747 1.747 0 0 1-1.174-1.344l-1.13-6.3h6.516" transform="translate(-3721.991 771.505)"/>
                </g>
            </g>
            <g id="g500" transform="translate(413.264 424.787)">
                <g id="g502" clip-path="url(#clip-path-29)">
                    <path id="path514" fill="url(#linear-gradient-24)" d="M4193.127-640.671a3.137 3.137 0 0 0 2.824-2.087l.006.026a2.233 2.233 0 0 1-1.506 2.547 9.825 9.825 0 0 1-4.167.653 4.146 4.146 0 0 1-3.126-1.441l-.008-.013c1.295.641 3.112.716 5.978.316" transform="translate(-4187.15 642.758)"/>
                </g>
            </g>
            <g id="g516" transform="translate(409.052 412.037)">
                <g id="g518" clip-path="url(#clip-path-30)">
                    <path id="path530" fill="url(#linear-gradient-25)" d="M4146.56-771.937h2.88c4.389-.089 7.144 9.166 8.045 12.749a3.134 3.134 0 0 1-2.821 2.087c-2.866.4-4.684.325-5.979-.316-2.372-3.119-3.547-7.688-4.111-10.355a3.635 3.635 0 0 1 1.986-4.165" transform="translate(-4144.472 771.938)"/>
                </g>
            </g>
            <g id="g532" transform="translate(407.512 406.034)">
                <g id="g534" clip-path="url(#clip-path-31)">
                    <path id="path546" fill="url(#linear-gradient-26)" d="M4135.007-832.758l1.6 6.361a1.725 1.725 0 0 1-.9 1.958 6.135 6.135 0 0 1-3.313.8 1.441 1.441 0 0 1-1.176-.962l-2.35-6.693 6.138-1.466" transform="translate(-4128.869 832.758)"/>
                </g>
            </g>
            <g id="g548" transform="translate(354.062 317.412)">
                <g id="g550" clip-path="url(#clip-path-32)">
                    <path id="path562" fill="#38525d" d="M3648.819-1640.2c-1.991 1.766-8.464 2-8.464 2-23.318-55.967-32.857-63.917-32.857-63.917 3.367 21.124.544 67.89.544 67.89-3.849 1.7-8.809 0-8.809 0a360.449 360.449 0 0 0-11.909-88.52c15.762-.354 24.141-5.747 26.878-7.911 13.138 21.181 34.617 90.46 34.617 90.46" transform="translate(-3587.324 1730.662)"/>
                </g>
            </g>
            <g id="g564" transform="translate(332.916 252.667)">
                <g id="g566" clip-path="url(#clip-path-33)">
                    <path id="path578" fill="url(#linear-gradient-27)" d="M3417.094-2386.269c2.984 14.879 1.915 41.512 1.212 53.66-.2 3.414 2.187 8.147 4.112 11.377a1.012 1.012 0 0 1-.408 1.424c-3.226 1.658-14.153 6.795-26.817 7.435a1.807 1.807 0 0 1-1.817-1.35c-9.394-35.075-20.3-57.489-20.3-57.489 12.047-19.237 44.022-15.057 44.022-15.057" transform="translate(-3373.072 2386.653)"/>
                </g>
            </g>
            <g id="g580" transform="translate(362.966 335.394)">
                <g id="g582" clip-path="url(#clip-path-34)">
                    <path id="path594" fill="url(#linear-gradient-28)" d="M3687.211-1539.241a.747.747 0 0 0 .388-.109.748.748 0 0 0 .25-1.025 23.432 23.432 0 0 0-9.246-8.027.749.749 0 0 0-1 .347.747.747 0 0 0 .349 1 22.33 22.33 0 0 1 8.618 7.458.749.749 0 0 0 .639.358" transform="translate(-3677.531 1548.477)"/>
                </g>
            </g>
            <g id="g596" transform="translate(384.044 294.721)">
                <g id="g598" clip-path="url(#clip-path-35)">
                    <path id="path610" fill="url(#linear-gradient-29)" d="M3902.7-1959.538c-.958 6.932-3.788 14.493-9.453 22.524l-2.153-1.756a66.45 66.45 0 0 0 1.073-21.527c3.494-.682 7.619.021 10.533.758" transform="translate(-3891.097 1960.573)"/>
                </g>
            </g>
            <g id="g612" transform="translate(373.607 253.051)">
                <g id="g614" clip-path="url(#clip-path-36)">
                    <path id="path626" fill="url(#linear-gradient-30)" d="M3785.35-2364.406l3.331-18.361s22.262 17.017 18.711 42.7c-2.914-.737-7.039-1.439-10.533-.758-1.017-8.243-4.057-17.191-11.509-23.585" transform="translate(-3785.35 2382.767)"/>
                </g>
            </g>
            <g id="g628" transform="translate(330.614 268.256)">
                <g id="g630" clip-path="url(#clip-path-37)">
                    <path id="path642" fill="url(#linear-gradient-31)" d="M3351.7-2228.714l12.863 15.837c1.39 11.174-3.246 17.328-9.067 20.709a39.274 39.274 0 0 0-5.75-10.979c5.926-10.3 1.954-25.568 1.954-25.568" transform="translate(-3349.751 2228.714)"/>
                </g>
            </g>
            <g id="g644" transform="translate(313.711 293.824)">
                <g id="g646" clip-path="url(#clip-path-38)">
                    <path id="path658" fill="url(#linear-gradient-32)" d="M3195.388-1969.662a39.263 39.263 0 0 1 5.75 10.979c-15.1 10.724-22.653 4.1-22.653 4.1v-2.118a4.148 4.148 0 0 1 3.063-4.025c6.074-1.595 11.68-5.176 13.84-8.933" transform="translate(-3178.485 1969.662)"/>
                </g>
            </g>
            <g id="g660" transform="translate(340.833 241.148)">
                <g id="g662" clip-path="url(#clip-path-39)">
                    <path id="path674" fill="url(#linear-gradient-33)" d="M3453.284-2499.254l4.148 15.25a2.968 2.968 0 0 0 3.968 1.974 60.057 60.057 0 0 0 5.979-2.732 4 4 0 0 0 1.411-5.745l-8.625-12.86-6.881 4.112" transform="translate(-3453.284 2503.367)"/>
                </g>
            </g>
            <g id="g676" transform="translate(331.756 231.226)">
                <g id="g678" clip-path="url(#clip-path-40)">
                    <path id="path690" fill="url(#linear-gradient-34)" d="M3361.322-2601.448c-.039.261 3.46 17.4 3.46 17.4l9.746-2.206-.9-16.739s-11.671-2.842-12.3 1.542" transform="translate(-3361.322 2603.895)"/>
                </g>
            </g>
            <g id="g692" transform="translate(327.446 225.482)">
                <g id="g694" clip-path="url(#clip-path-41)">
                    <path id="path706" fill="url(#linear-gradient-35)" d="M3332.075-2651.714l1.165 8.773a1.217 1.217 0 0 1 0 .337c-.1.687-.609 3.029-2.975 2.36-2.144-.608-4.111-1.131-5.469-.715a1.236 1.236 0 0 0-.851 1.429 53.37 53.37 0 0 0 2.244 7.987 1.23 1.23 0 0 0 1.5.729 39.8 39.8 0 0 0 8.591-3.515 1.232 1.232 0 0 0 .6-1.112c-.092-2.215-.351-8.949-.134-10.836.205-1.772 2.379-2.833 3.324-3.213a1.219 1.219 0 0 0 .676-.68c.438-1.1 1.042-3.633-2.157-4.672a1.237 1.237 0 0 1-.783-1.6 3.212 3.212 0 0 0-1.8-4.438 4.529 4.529 0 0 0-5.4 1.3 1.238 1.238 0 0 1-1.576.186.98.98 0 0 0-1.114.038 1.218 1.218 0 0 1-1.724-.522 3.694 3.694 0 0 0-4.29-2.139c-4.366.75-4.861 5.588-3.709 8.424s5.84 1.755 8.193.325c1.787-1.087 4.107.053 5.117.662a1.225 1.225 0 0 1 .58.891" transform="translate(-3317.653 2662.095)"/>
                </g>
            </g>
            <g id="g708" transform="translate(346.145 237.668)">
                <g id="g710" clip-path="url(#clip-path-42)">
                    <path id="path722" fill="url(#linear-gradient-36)" d="M3507.893-2531.793s-1.795-5.028.05-6.258 4.576-.592 3.974 3.049c-.747 4.531-4.024 3.209-4.024 3.209" transform="translate(-3507.11 2538.624)"/>
                </g>
            </g>
            <g id="g724" transform="translate(255.26 275.035)">
                <g id="g726" clip-path="url(#clip-path-43)">
                    <path id="path738" fill="rgba(53,116,118,0.67)" d="M2750.156-2159.7l-163.883 53.783 7.82 24.148 164.828-52.471a7.577 7.577 0 0 0 5.208-8.221c-.5-3.741-2.179-8.881-6.765-14.983a6.489 6.489 0 0 0-7.209-2.255" transform="translate(-2586.273 2160.027)"/>
                </g>
            </g>
            <g id="g740" transform="translate(211.172 343.477)">
                <g id="g742" clip-path="url(#clip-path-44)">
                    <path id="path754" fill="url(#linear-gradient-37)" d="M2140.132-1455.021l19.437-11.562c1.873 2.457 3.52 6.238 3.619 11.959l-22.394 1.7a1.128 1.128 0 0 1-.662-2.095" transform="translate(-2139.578 1466.583)"/>
                </g>
            </g>
            <g id="g756" transform="translate(231.164 329.143)">
                <g id="g758" clip-path="url(#clip-path-45)">
                    <path id="path770" fill="url(#linear-gradient-38)" d="M2366.224-1611.809a31.274 31.274 0 0 1 7.821 24.148l-28.3 2.145c-.1-5.722-1.747-9.5-3.619-11.96l24.1-14.333" transform="translate(-2342.128 1611.809)"/>
                </g>
            </g>
            <path id="path772" d="M2839.1-2093.371a.477.477 0 0 0 .161-.528.478.478 0 0 0-.6-.3l-156.58 51.732a.476.476 0 0 0-.3.6.476.476 0 0 0 .6.3l156.58-51.732a.49.49 0 0 0 .144-.075" class="cls-94" transform="translate(-2417.063 2375.757)"/>
            <path id="path774" d="M2875.723-2001.666a.478.478 0 0 0 .161-.528.476.476 0 0 0-.6-.3l-156.58 51.732a.477.477 0 0 0-.3.6.478.478 0 0 0 .6.3l156.58-51.732a.481.481 0 0 0 .143-.075" class="cls-94" transform="translate(-2450.075 2293.102)"/>
            <g id="g776" transform="translate(370.53 315.4)">
                <g id="g778" clip-path="url(#clip-path-46)">
                    <path id="path790" fill="url(#linear-gradient-39)" d="M3768.58-1750.231l-10.05-.818-4.352 4.011s1.031 1.424 4.249.605a46.063 46.063 0 0 1 7.629-1.019s4.442 2 4.5-1.745l-1.975-1.034" transform="translate(-3754.178 1751.049)"/>
                </g>
            </g>
            <g id="g792" transform="translate(313.613 305.488)">
                <g id="g794" clip-path="url(#clip-path-47)">
                    <path id="path806" fill="url(#linear-gradient-40)" d="M3184.275-1843.876c-.868.679-3.846-.738-5.668-1.718a2.1 2.1 0 0 1-1.013-2.478c.438-1.382 1.168-3.167 2.069-3.393 1.494-.374 8.195 4.79 4.612 7.588" transform="translate(-3177.496 1851.484)"/>
                </g>
            </g>
        </g>
    </g>
</svg>
