<svg xmlns="http://www.w3.org/2000/svg" width="27.321" height="15.938" viewBox="0 0 27.321 15.938">
    <defs>
        <style>
            .cls-1{fill:#b0b0b0}
        </style>
    </defs>
    <g id="visibility_2_" transform="translate(0 -106.662)">
        <g id="Groupe_430" transform="translate(0 106.662)">
            <g id="Groupe_429">
                <path id="Tracé_2283" d="M27.22 114.307c-.215-.313-5.386-7.645-13.559-7.645-7.014 0-13.263 7.29-13.526 7.6a.571.571 0 0 0 0 .735c.263.311 6.513 7.6 13.526 7.6s13.263-7.29 13.526-7.6a.569.569 0 0 0 .033-.69zm-13.559 7.154c-5.623 0-10.968-5.362-12.327-6.83 1.356-1.47 6.7-6.83 12.327-6.83 6.579 0 11.222 5.354 12.356 6.8-1.309 1.421-6.686 6.86-12.356 6.86z" class="cls-1" transform="translate(0 -106.662)"/>
            </g>
        </g>
        <g id="Groupe_432" transform="translate(9.107 110.077)">
            <g id="Groupe_431">
                <path id="Tracé_2284" d="M175.216 170.662a4.554 4.554 0 1 0 4.554 4.554 4.558 4.558 0 0 0-4.554-4.554zm0 7.969a3.415 3.415 0 1 1 3.415-3.415 3.419 3.419 0 0 1-3.415 3.415z" class="cls-1" transform="translate(-170.662 -170.662)"/>
            </g>
        </g>
    </g>
</svg>
