<svg xmlns="http://www.w3.org/2000/svg" width="11.63" height="16.132" fill="#19647e" viewBox="0 0 11.63 16.132" >
    <g>
        <g>
            <path d="M82.37 11.558a1.6 1.6 0 0 0-1.215-1.248l-2.437-.6v-.09h1.862a.7.7 0 0 0 .7-.7V5.374a.869.869 0 0 0 0-.4v-1.3a.236.236 0 0 0-.473 0v.678a1.227 1.227 0 0 0-.421-.154.616.616 0 0 0-.519-.475.77.77 0 0 1-.609-.468.405.405 0 0 0-.691-.063 4.324 4.324 0 0 1-3.486 1.793c-.148 0-.249-.007-.284-.009a.625.625 0 0 0-.661.624v.543a3.206 3.206 0 0 0 .988 2.308 3.165 3.165 0 0 0 .683.5v.2h-1.858a.223.223 0 0 1-.223-.223V3.614a3.139 3.139 0 0 1 3.1-3.14h.016a4.028 4.028 0 0 1 1.787.439c.3.167.49.034.789.034A1.573 1.573 0 0 1 80.8 2.373v.2a.241.241 0 0 0 .237.236.236.236 0 0 0 .236-.237v-.245A2.038 2.038 0 0 0 79.418.475c-.375 0-.433.095-.561.025a4.536 4.536 0 0 0-2.012-.5 3.61 3.61 0 0 0-3.591 3.613v5.311a.7.7 0 0 0 .7.7H75.8v.086l-2.427.6h-.01l-.177.052-.016.005a1.568 1.568 0 0 0-1.022 1.19l-.691 3.471a.886.886 0 0 0 .958 1.1h2.556a.236.236 0 1 0 0-.473h-.889V13.43a.236.236 0 0 0-.473 0v2.23h-1.191c-.314 0-.5-.1-.5-.431 0-.161-.008 0 .7-3.579a1.108 1.108 0 0 1 .716-.837l.164-.048 1.394-.345c1.551 1.827 1.459 1.73 1.548 1.817a1.145 1.145 0 0 0 1.742-.1l1.46-1.714 1.389.344a1.146 1.146 0 0 1 .88.885c.7 3.544.7 3.417.7 3.578 0 .323-.177.431-.5.431h-1.193V13.43a.236.236 0 0 0-.473 0v2.23h-4.369a.236.236 0 1 0 0 .473H82.1a.868.868 0 0 0 .972-.9c.005-.271-.011-.142-.702-3.675zM80.4 4.689a.593.593 0 0 1 .405.349v.271a.593.593 0 0 1-.405.349zm0 1.5v-.046a1.224 1.224 0 0 0 .405-.152v2.933a.223.223 0 0 1-.223.223h-1.864v-.182A3.129 3.129 0 0 0 80.4 6.187zm-4.954 1.923a2.731 2.731 0 0 1-.846-1.966c.014-.515-.034-.577.048-.654a.149.149 0 0 1 .112-.041 4.747 4.747 0 0 0 4.114-1.89 1.213 1.213 0 0 0 .922.635.142.142 0 0 1 .124.14v1.851a2.654 2.654 0 0 1-4.474 1.925zm2.373 3.716a.684.684 0 0 1-1.119 0l-.493-.582h2.109zm.9-1.057h-2.913l-.406-.479.7-.172a.239.239 0 0 0 .179-.232v-.731a3.13 3.13 0 0 0 1.971.007 4.23 4.23 0 0 0 .013.8.236.236 0 0 0 .166.151l.7.174z" transform="translate(-71.445 -2.001) translate(71.445 2.001) translate(-71.445 -.001)"/>
        </g>
    </g>
</svg>
